<?xml version="1.0" encoding="UTF-8" standalone="no"?>
<!DOCTYPE svg PUBLIC "-//W3C//DTD SVG 1.1//EN" "http://www.w3.org/Graphics/SVG/1.1/DTD/svg11.dtd">
<svg width="100%" height="100%" viewBox="0 0 946 637" version="1.1" xmlns="http://www.w3.org/2000/svg" xmlns:xlink="http://www.w3.org/1999/xlink" xml:space="preserve" xmlns:serif="http://www.serif.com/" style="fill-rule:evenodd;clip-rule:evenodd;stroke-linejoin:round;stroke-miterlimit:2;">
    <rect x="438.375" y="26.927" width="491.92" height="399.448" style="fill:white;"/>
    <g transform="matrix(1,0,0,1,-127,-131.727)">
        <path d="M168.634,733.568C181.062,756.617 207.44,766.512 207.44,766.512C207.44,766.512 213.667,739.036 201.239,715.987C188.81,692.938 162.433,683.044 162.433,683.044C162.433,683.044 156.206,710.519 168.634,733.568Z" style="fill:rgb(47,46,65);fill-rule:nonzero;"/>
    </g>
    <g transform="matrix(1,0,0,1,-127,-131.727)">
        <path d="M177.177,725.985C199.615,739.485 208.257,766.299 208.257,766.299C208.257,766.299 180.519,771.226 158.08,757.726C135.642,744.226 127,717.412 127,717.412C127,717.412 154.738,712.485 177.177,725.985Z" style="fill:rgb(16,0,255);fill-rule:nonzero;"/>
    </g>
    <rect x="27" y="634.547" width="909" height="2" style="fill:rgb(63,61,86);"/>
    <rect x="458.203" y="174.67" width="75.463" height="14.797" style="fill:rgb(16,0,255);"/>
    <rect x="397" y="235.873" width="75.463" height="14.797" style="fill:rgb(16,0,255);"/>
    <rect x="537.118" y="346.805" width="37.978" height="14.797" style="fill:rgb(63,61,86);"/>
    <rect x="667.822" y="346.805" width="37.978" height="14.797" style="fill:rgb(63,61,86);"/>
    <rect x="736.38" y="346.805" width="37.978" height="14.797" style="fill:rgb(63,61,86);"/>
    <rect x="701.855" y="459.26" width="37.978" height="14.797" style="fill:rgb(63,61,86);"/>
    <rect x="838.971" y="459.26" width="37.978" height="14.797" style="fill:rgb(63,61,86);"/>
    <rect x="804.938" y="346.805" width="37.978" height="14.797" style="fill:rgb(63,61,86);"/>
    <rect x="873.496" y="346.805" width="37.978" height="14.797" style="fill:rgb(63,61,86);"/>
    <path d="M946,266.903L495.194,266.903L495.194,203.277L496.181,203.277L496.181,265.916L946,265.916L946,266.903Z" style="fill:rgb(63,61,86);fill-rule:nonzero;"/>
    <path d="M910.241,380.591L618.589,380.591L618.589,266.594L619.576,266.594L619.576,379.604L910.241,379.604L910.241,380.591Z" style="fill:rgb(63,61,86);fill-rule:nonzero;"/>
    <rect x="555.614" y="266.656" width="0.986" height="63.564" style="fill:rgb(63,61,86);"/>
    <rect x="686.318" y="266.656" width="0.986" height="63.564" style="fill:rgb(63,61,86);"/>
    <rect x="754.876" y="266.656" width="0.986" height="63.564" style="fill:rgb(63,61,86);"/>
    <rect x="823.434" y="266.656" width="0.986" height="63.564" style="fill:rgb(63,61,86);"/>
    <rect x="891.992" y="266.656" width="0.986" height="63.564" style="fill:rgb(63,61,86);"/>
    <rect x="720.351" y="380.097" width="0.986" height="63.564" style="fill:rgb(63,61,86);"/>
    <rect x="857.466" y="380.097" width="0.986" height="63.564" style="fill:rgb(63,61,86);"/>
    <rect x="458.203" y="299.627" width="75.463" height="14.797" style="fill:rgb(16,0,255);"/>
    <rect x="537.118" y="127.492" width="37.978" height="14.797" style="fill:rgb(63,61,86);"/>
    <rect x="667.822" y="127.492" width="37.978" height="14.797" style="fill:rgb(63,61,86);"/>
    <rect x="736.38" y="127.492" width="37.978" height="14.797" style="fill:rgb(63,61,86);"/>
    <rect x="701.855" y="15.037" width="37.978" height="14.797" style="fill:rgb(63,61,86);"/>
    <rect x="838.971" y="15.037" width="37.978" height="14.797" style="fill:rgb(63,61,86);"/>
    <rect x="804.938" y="127.492" width="37.978" height="14.797" style="fill:rgb(63,61,86);"/>
    <rect x="873.496" y="127.492" width="37.978" height="14.797" style="fill:rgb(63,61,86);"/>
    <path d="M946,222.191L495.194,222.191L495.194,285.817L496.181,285.817L496.181,223.178L946,223.178L946,222.191Z" style="fill:rgb(63,61,86);fill-rule:nonzero;"/>
    <path d="M910.241,108.503L618.589,108.503L618.589,222.5L619.576,222.5L619.576,109.49L910.241,109.49L910.241,108.503Z" style="fill:rgb(63,61,86);fill-rule:nonzero;"/>
    <rect x="555.614" y="158.874" width="0.986" height="63.564" style="fill:rgb(63,61,86);"/>
    <rect x="686.318" y="158.874" width="0.986" height="63.564" style="fill:rgb(63,61,86);"/>
    <rect x="754.876" y="158.874" width="0.986" height="63.564" style="fill:rgb(63,61,86);"/>
    <rect x="823.434" y="158.874" width="0.986" height="63.564" style="fill:rgb(63,61,86);"/>
    <rect x="891.992" y="158.874" width="0.986" height="63.564" style="fill:rgb(63,61,86);"/>
    <rect x="720.351" y="45.433" width="0.986" height="63.564" style="fill:rgb(63,61,86);"/>
    <rect x="857.466" y="45.433" width="0.986" height="63.564" style="fill:rgb(63,61,86);"/>
    <g transform="matrix(1,0,0,1,-127,-131.727)">
        <path d="M426.13,152.85C414.228,132.74 390.681,131.802 390.681,131.802C390.681,131.802 367.736,128.868 353.016,159.497C339.297,188.045 320.362,215.609 349.968,222.292L355.316,205.648L358.628,223.531C362.843,223.834 367.072,223.907 371.295,223.748C403,222.724 433.195,224.047 432.223,212.67C430.93,197.546 437.582,172.201 426.13,152.85Z" style="fill:rgb(47,46,65);fill-rule:nonzero;"/>
    </g>
    <g transform="matrix(1,0,0,1,-127,-131.727)">
        <path d="M382.223,221.369C382.28,223.633 382.263,226.02 381.138,227.985C378.908,231.881 373.465,232.464 370.19,235.535C366.747,238.764 366.357,244.004 366.193,248.722C366.021,253.655 365.876,258.749 367.676,263.344C368.778,265.876 370.172,268.27 371.829,270.479C373.828,273.361 375.845,276.229 377.882,279.085C378.969,280.694 380.181,282.214 381.506,283.634C385.152,287.348 390.154,289.404 395.148,290.871C398.375,291.819 401.859,292.557 405.061,291.527C407.179,290.701 409.131,289.5 410.825,287.983C413.299,286.208 415.498,284.077 417.349,281.659C420.038,277.759 420.782,272.877 421.339,268.174C422.987,254.265 423.628,240.255 423.257,226.253C423.325,224.727 423.051,223.206 422.457,221.799C420.799,218.561 416.358,217.87 414.018,215.085C412.018,212.704 411.936,209.306 411.953,206.196L411.996,198.279C412.066,197.612 411.932,196.94 411.612,196.35C411.026,195.71 410.208,195.328 409.341,195.291C404.42,194.474 399.432,194.141 394.446,194.294C390.404,194.418 382.649,194.08 379.154,196.331C375.981,198.374 379.953,204.018 380.688,207.188C381.676,211.851 382.19,216.602 382.223,221.369Z" style="fill:rgb(255,184,184);fill-rule:nonzero;"/>
    </g>
    <g transform="matrix(1,0,0,1,-127,-131.727)">
        <path d="M316.49,751.456C315.463,754.951 314.986,759.027 317.12,761.98C318.299,763.459 319.853,764.596 321.618,765.275C326.072,767.214 331.058,767.596 335.911,767.372C337.793,767.459 339.628,766.755 340.967,765.431C352.245,756.094 359.877,743.074 362.515,728.674C362.728,727.93 362.687,727.136 362.4,726.418C362.029,725.862 361.509,725.421 360.899,725.145C358.39,723.572 355.684,722.337 352.852,721.47C337.355,717.47 320.33,738.392 316.49,751.456Z" style="fill:rgb(47,46,65);fill-rule:nonzero;"/>
    </g>
    <g transform="matrix(1,0,0,1,-127,-131.727)">
        <path d="M479.008,702.475C481.09,704.893 483.657,706.848 486.541,708.212C489.471,709.568 492.866,709.51 495.748,708.055C500.011,705.628 501.219,699.989 500.879,695.095C500.25,686.043 495.926,677.886 490.957,670.492C489.385,668.153 485.904,661.19 482.85,661.103C481.399,661.062 475.973,666.323 474.499,667.324C469.112,670.983 465.381,673.6 466.502,680.622C467.752,688.454 473.737,696.836 479.008,702.475Z" style="fill:rgb(47,46,65);fill-rule:nonzero;"/>
    </g>
    <circle cx="264.5" cy="44.047" r="32" style="fill:rgb(255,184,184);"/>
    <g transform="matrix(1,0,0,1,-127,-131.727)">
        <path d="M378.323,255.035C376.288,252.01 374.613,248.757 373.333,245.343C372.054,241.895 372.023,238.106 373.246,234.639C369.788,232.632 365.093,234.257 362.575,237.362C360.057,240.467 359.286,244.63 359.064,248.621C358.842,252.613 359.077,256.663 358.208,260.566C356.287,269.2 349.155,276.298 348.625,285.127C348.103,293.813 354.059,301.379 356.989,309.573C358.765,314.68 359.508,320.089 359.173,325.485C359.078,327.227 358.969,329.213 360.198,330.451C360.838,331.01 361.595,331.417 362.413,331.644C376.553,336.619 391.825,337.049 406.81,337.429L431.559,338.055C433.055,338.234 434.572,337.98 435.929,337.324C438.15,335.962 438.447,332.911 438.485,330.306C438.81,307.877 437.856,285.45 436.902,263.039C436.556,254.915 436.205,246.745 434.482,238.799C434.043,236.776 433.324,234.526 431.456,233.632C429.875,232.877 427.999,233.366 426.355,233.973C418.685,236.826 412.054,241.931 407.334,248.616C402.256,255.843 399.758,264.513 394.788,271.795C391.181,277.08 389.095,272.474 386.692,268.583C383.904,264.066 381.114,259.55 378.323,255.035Z" style="fill:rgb(16,0,255);fill-rule:nonzero;"/>
    </g>
    <g transform="matrix(1,0,0,1,-127,-131.727)">
        <path d="M370.123,225.958C368.219,226.894 366.069,227.301 364.257,228.405C362.087,229.726 360.612,231.908 359.206,234.023L351.621,245.433C349.837,247.882 348.376,250.55 347.273,253.371C346.089,256.832 346.008,260.558 345.898,264.214C345.59,274.384 344.958,284.537 344.002,294.673C343.626,299.56 342.922,304.417 341.895,309.21C340.991,313.097 339.713,316.886 338.438,320.667L324.383,362.33C323.515,364.405 323.103,366.642 323.173,368.89C323.406,371.121 324.881,373.388 327.088,373.785C328.547,373.908 330.011,373.612 331.308,372.931C336.673,370.691 341.999,368.039 346.131,363.947C352.921,357.222 355.652,347.527 358.123,338.295C359.434,333.396 360.754,328.429 360.749,323.358C360.737,311.849 353.94,301.188 353.759,289.68C353.792,286.552 354.074,283.433 354.601,280.35C355.813,271.968 357.07,263.522 359.974,255.567C362.878,247.611 367.579,240.083 374.493,235.192C377.808,232.848 386.708,228.154 383.233,222.763C379.768,217.39 373.512,224.293 370.123,225.958Z" style="fill:rgb(87,90,136);fill-rule:nonzero;"/>
    </g>
    <g transform="matrix(1,0,0,1,-127,-131.727)">
        <path d="M431.78,329.098C408.848,327.319 385.896,325.841 362.923,324.662C360.992,324.562 358.796,324.566 357.472,325.974C356.903,326.666 356.479,327.465 356.223,328.323L351.316,341.558C349.142,347.42 348.152,352.955 343.812,357.456C339.471,361.957 334.308,365.608 330.023,370.161C323.631,376.984 319.425,385.567 317.949,394.798C316.754,402.375 317.434,410.226 315.476,417.642C313.063,426.782 316.935,436.3 316.874,445.753C316.784,459.831 314.853,473.825 312.925,487.771C307.336,528.206 301.747,568.641 295.676,609.006C290.692,642.146 285.784,677.92 301.348,707.6C305.068,714.694 310.135,721.43 317.25,725.109C321.19,726.961 325.364,728.272 329.656,729.004C340.677,731.31 351.825,732.961 363.042,733.949C367.592,734.349 372.895,734.343 375.813,730.829C377.77,728.471 378.044,725.187 378.232,722.128L379.458,702.154C381.045,676.308 380.463,649.512 374.696,624.267C372.752,615.755 370.306,607.355 368.679,598.777C367.134,590.629 366.333,582.357 366.288,574.064C366.162,568.119 366.709,562.179 367.918,556.358C372.137,537.586 386.114,520.659 384.082,501.527C396.961,520.416 401.23,542.042 405.26,564.546C408.2,580.962 411.379,597.412 416.945,613.133C422.996,630.223 431.98,647.191 430.701,665.275C430.389,669.045 429.763,672.782 428.831,676.447C425.172,691.626 440.634,704.607 454.892,698.242C454.989,698.199 455.087,698.155 455.184,698.11C468.361,692.04 475.016,676.058 488.457,670.597C494.697,668.062 502.471,667.704 505,660.041C505.561,658.27 505.749,656.403 505.553,654.556C504.961,648.358 501.43,643.344 498.681,638.017C492.685,626.396 490.412,613.27 488.255,600.373C486.113,587.559 484.009,574.738 481.945,561.912C480.596,553.526 479.251,545.089 476.495,537.055C475.288,533.538 473.814,530.108 472.847,526.517C469.234,513.104 472.971,498.814 471.46,485.005C469.761,469.471 466.641,454.047 463.225,438.799C458.8,419.047 457.896,398.697 457.185,378.469C456.902,370.434 456.608,362.202 453.58,354.754C449.309,344.249 440.882,335.861 431.78,329.098Z" style="fill:rgb(47,46,65);fill-rule:nonzero;"/>
    </g>
    <path d="M293.868,19.185L270.604,6.999L238.479,11.984L231.832,41.341L248.378,40.704L253,29.919L253,40.526L260.634,40.233L265.066,23.062L267.835,41.341L294.976,40.787L293.868,19.185Z" style="fill:rgb(47,46,65);fill-rule:nonzero;"/>
    <g transform="matrix(1,0,0,1,-127,-131.727)">
        <path d="M408.63,240.117C410.513,238.335 412.887,237.157 415.445,236.735C416.34,236.731 417.201,236.384 417.85,235.767C418.168,235.229 418.311,234.605 418.259,233.981C418.341,228.341 417.873,222.707 416.862,217.158C419.058,216.379 421.391,216.062 423.715,216.227L445.256,216.287C449.588,216.299 454.072,216.343 458.013,218.14C462.049,220.171 465.294,223.493 467.229,227.576C469.137,231.635 470.537,235.915 471.395,240.317C473.956,251.372 464.766,262.498 463.944,273.815C463.707,277.079 463.981,280.367 463.681,283.626C463.365,287.057 462.415,290.423 462.337,293.868C462.241,298.127 463.483,302.299 464.913,306.313C469.284,318.575 475.509,330.084 480.561,342.082C481.853,344.818 482.722,347.735 483.138,350.733C483.541,353.765 482.681,356.833 480.762,359.214C478.656,361.578 475.449,362.543 472.492,363.671C468.776,365.089 465.229,366.911 461.913,369.106C460.575,370.097 459.129,370.934 457.604,371.603C456.107,372.071 454.574,372.41 453.02,372.617C449.029,373.377 445.259,374.985 441.403,376.264C440.132,376.685 438.665,377.053 437.516,376.365C436.872,375.906 436.355,375.29 436.013,374.577C428.622,361.778 426.012,346.82 424.317,332.137C422.623,317.454 421.688,302.534 417.193,288.453C415.827,284.172 414.131,279.969 413.355,275.543C412.232,269.144 413.073,262.519 411.917,256.125C410.893,250.458 408.239,245.863 408.63,240.117Z" style="fill:rgb(87,90,136);fill-rule:nonzero;"/>
    </g>
    <g transform="matrix(1,0,0,1,-127,-131.727)">
        <path d="M457.746,362.262C451.333,365.329 446.259,370.207 441.966,375.873C441.058,377.073 442.277,379.31 445,379.273C447.534,379.239 449.048,375.99 451.582,375.956C452.357,382.729 453.759,389.416 455.771,395.929C460.827,391.49 463.854,385.24 466.751,379.167L472.476,367.163C474.578,362.756 476.68,358.347 478.575,353.847C479.09,352.795 479.408,351.657 479.514,350.49C479.764,342.746 472.128,342.699 468.835,347.546C465.234,352.847 464.112,359.217 457.746,362.262Z" style="fill:rgb(255,184,184);fill-rule:nonzero;"/>
    </g>
    <g transform="matrix(1,0,0,1,-127,-131.727)">
        <path d="M459.063,229.123C463.958,234.21 468.888,239.339 472.688,245.289C476.488,251.238 479.128,258.136 478.951,265.193C478.762,266.98 478.827,268.784 479.145,270.552C479.698,272.183 480.522,273.708 481.583,275.064C486.379,282.104 490.101,289.819 492.628,297.954C493.038,299.559 493.646,301.107 494.436,302.563C495.159,303.746 496.144,304.745 496.941,305.88C499.774,310.06 499.86,315.548 497.159,319.814C496.758,320.316 496.464,320.895 496.297,321.515C495.969,323.459 498.409,324.629 499.306,326.384C500.216,328.165 499.345,330.439 497.836,331.751C496.227,332.95 494.373,333.779 492.407,334.178C494.932,337.793 491.868,342.872 490.841,347.16C490.122,350.16 490.131,353.283 489.66,356.332C489.19,359.381 488.131,362.516 485.783,364.516C485.483,364.804 485.116,365.009 484.715,365.114C483.412,365.368 482.525,363.861 482.069,362.615C480.649,358.734 479.216,354.778 476.712,351.49C474.209,348.203 470.415,345.628 466.283,345.64C465.59,343.983 465.741,342.089 466.688,340.562C467.516,339.001 468.729,337.677 469.643,336.164C470.8,334.102 471.587,331.853 471.968,329.52C474.008,318.803 471.953,307.701 466.211,298.424C464.876,296.223 463.262,294.205 461.408,292.42C459.39,290.529 457.03,289.009 455.167,286.965C452.295,283.566 450.558,279.351 450.201,274.915C449.857,270.509 449.974,266.078 450.551,261.695C451.389,252.998 452.465,244.289 453.708,235.64C453.804,234.514 454.095,233.412 454.57,232.386C455.545,230.567 457.195,230.001 459.063,229.123Z" style="fill:rgb(87,90,136);fill-rule:nonzero;"/>
    </g>
</svg>
