<?xml version="1.0" encoding="UTF-8" standalone="no"?>
<!DOCTYPE svg PUBLIC "-//W3C//DTD SVG 1.1//EN" "http://www.w3.org/Graphics/SVG/1.1/DTD/svg11.dtd">
<svg width="100%" height="100%" viewBox="0 0 433 429" version="1.1" xmlns="http://www.w3.org/2000/svg" xmlns:xlink="http://www.w3.org/1999/xlink" xml:space="preserve" xmlns:serif="http://www.serif.com/" style="fill-rule:evenodd;clip-rule:evenodd;stroke-linecap:round;">
    <g transform="matrix(0.26,0,0,0.26,112.244,106.75)">
        <g transform="matrix(1,0,0,1,-177.99,-144.441)">
            <g id="Layer_1">
                <path d="M318.71,265.064C318.71,301.508 268.812,331.08 207.253,331.08C145.693,331.08 95.796,301.55 95.796,265.064L95.796,195.549L318.71,195.549L318.71,265.064Z" style="fill:rgb(66,44,191);fill-rule:nonzero;stroke:black;stroke-width:0.02px;"/>
            </g>
        </g>
        <g transform="matrix(1,0,0,1,-177.99,-144.441)">
            <g id="Layer_11" serif:id="Layer_1">
                <path d="M316.71,225.246C321.292,226.537 202.671,306.298 202.671,306.298L95.754,226.162L241.49,198.173C241.49,198.173 312.129,223.955 316.71,225.246Z" style="fill:rgb(37,22,107);fill-rule:nonzero;stroke:black;stroke-width:0.02px;"/>
            </g>
        </g>
        <g id="Layer_12" serif:id="Layer_1" transform="matrix(1,0,0,1,30.2622,29.0538)">
            <path d="M198.131,-0.021L-0.042,114.393L-198.131,-0.021L-198.131,-9.059L0,-114.393L198.131,-0.021Z" style="fill:white;fill-rule:nonzero;stroke:black;stroke-width:0.02px;stroke-linecap:butt;"/>
        </g>
        <g id="Layer_13" serif:id="Layer_1" transform="matrix(1,0,0,1,30.2622,20.0157)">
            <path d="M198.131,-0.021L-0.042,114.393L-198.131,-0.021L0,-114.393L198.131,-0.021Z" style="fill:rgb(75,73,242);fill-rule:nonzero;stroke:black;stroke-width:0.02px;stroke-linecap:butt;"/>
        </g>
        <g id="Layer_14" serif:id="Layer_1" transform="matrix(1,0,0,1,129.307,81.7209)">
            <path d="M99.087,-52.688L-99.087,61.726L-99.087,52.688L99.087,-61.726L99.087,-52.688Z" style="fill:rgb(21,42,133);fill-rule:nonzero;stroke:black;stroke-width:0.02px;stroke-linecap:butt;"/>
        </g>
        <g transform="matrix(1,0,0,1,-177.99,-144.441)">
            <g id="Layer_15" serif:id="Layer_1">
                <path d="M111.748,202.88L207.378,146.485C209.377,145.319 211.918,145.985 213.084,147.943C214.25,149.9 213.584,152.441 211.626,153.607L120.37,207.628C112.29,212.417 107.292,221.122 107.292,230.535L107.292,330.83C107.292,333.121 105.417,334.995 103.127,334.995L102.793,334.995C100.503,334.995 98.628,333.121 98.628,330.83L98.628,225.829C98.628,216.374 103.626,207.669 111.748,202.88Z" style="fill:rgb(137,224,254);fill-rule:nonzero;stroke:black;stroke-width:0.02px;"/>
            </g>
        </g>
        <g transform="matrix(1,0,0,1,-177.99,-144.441)">
            <g id="Layer_16" serif:id="Layer_1">
                <path d="M102.46,293.594C106.792,293.594 110.374,296.926 110.665,301.216L114.789,357.611C115.122,362.401 111.373,366.441 106.584,366.441L98.295,366.441C93.505,366.441 89.715,362.359 90.09,357.611L94.213,301.216C94.547,296.926 98.129,293.594 102.46,293.594Z" style="fill:url(#_Linear1);fill-rule:nonzero;stroke:black;stroke-width:0.02px;"/>
            </g>
        </g>
        <g transform="matrix(1,0,0,1,-177.99,-144.441)">
            <g id="Layer_17" serif:id="Layer_1">
                <path d="M102.502,269.853C107.625,269.853 111.79,274.019 111.79,279.142C111.79,284.265 107.625,288.43 102.502,288.43C97.379,288.43 93.214,284.265 93.214,279.142C93.214,274.019 97.379,269.853 102.502,269.853Z" style="fill:rgb(137,224,254);fill-rule:nonzero;stroke:black;stroke-width:0.02px;"/>
            </g>
        </g>
    </g>
    <g transform="matrix(0.26,0,0,0.26,300.104,91.7852)">
        <g transform="matrix(0.922152,0,0,0.922152,-161.794,-114.739)">
            <g id="Layer_18" serif:id="Layer_1">
                <path d="M153.482,45.524L163.561,42.483C188.052,35.07 217.499,43.9 245.904,70.681L235.825,73.721C207.419,46.898 177.973,38.069 153.482,45.524Z" style="fill:none;fill-rule:nonzero;stroke:black;stroke-width:0.02px;"/>
            </g>
        </g>
        <g transform="matrix(0.922152,0,0,0.922152,-161.794,-114.739)">
            <g id="Layer_19" serif:id="Layer_1">
                <path d="M316.794,297.801C316.877,297.468 316.919,297.135 317.002,296.76C317.127,296.01 317.293,295.302 317.418,294.552C317.585,293.678 317.752,292.845 317.918,291.97C318.043,291.303 318.126,290.637 318.21,289.971C318.335,289.179 318.46,288.388 318.585,287.638C318.668,287.138 318.751,286.639 318.834,286.097C319.001,284.973 319.126,283.848 319.251,282.723C319.334,282.057 319.418,281.432 319.501,280.766C319.543,280.558 319.543,280.349 319.584,280.1C319.792,278.059 320.001,276.018 320.126,273.935L320.126,273.81C320.167,273.519 320.167,273.227 320.167,272.936C320.292,271.186 320.417,269.479 320.5,267.729C320.5,267.438 320.5,267.105 320.542,266.813C320.584,265.98 320.584,265.147 320.625,264.314C320.667,263.314 320.709,262.273 320.709,261.273L320.709,254.734C320.709,253.901 320.667,253.027 320.667,252.194C320.667,251.277 320.625,250.361 320.584,249.403C320.584,248.945 320.584,248.487 320.542,248.029C320.5,246.821 320.417,245.613 320.334,244.363C320.292,243.572 320.251,242.781 320.209,241.989C320.209,241.781 320.209,241.531 320.167,241.323C320.042,239.115 319.834,236.95 319.667,234.742L319.667,234.659C319.667,234.451 319.626,234.284 319.626,234.076C319.459,232.118 319.251,230.161 319.001,228.203C318.959,227.911 318.918,227.578 318.876,227.287C318.793,226.537 318.668,225.787 318.585,225.079C318.46,224.038 318.335,222.955 318.168,221.914C318.085,221.247 317.96,220.581 317.877,219.915C317.752,219.082 317.627,218.249 317.502,217.416C317.418,216.832 317.335,216.208 317.21,215.625C317.002,214.417 316.794,213.25 316.585,212.043C316.46,211.376 316.377,210.71 316.252,210.085C316.21,209.835 316.169,209.627 316.127,209.377C315.752,207.253 315.294,205.129 314.878,203.004C314.878,202.921 314.836,202.838 314.836,202.755C314.711,202.171 314.586,201.63 314.461,201.047C314.086,199.381 313.753,197.715 313.337,196.049C313.295,195.799 313.212,195.549 313.128,195.299C312.795,193.966 312.462,192.675 312.129,191.342C311.837,190.259 311.587,189.177 311.337,188.094C311.296,187.885 311.212,187.719 311.171,187.51C310.254,184.053 309.255,180.597 308.214,177.181C308.13,176.89 308.047,176.598 307.964,176.307C307.88,175.973 307.714,175.64 307.63,175.307C306.131,170.475 304.507,165.727 302.757,160.979C302.674,160.729 302.591,160.479 302.507,160.188C302.341,159.771 302.174,159.355 302.008,158.897C300.592,155.148 299.134,151.4 297.551,147.693C296.427,145.069 295.26,142.486 294.094,139.904C294.052,139.779 294.011,139.654 293.927,139.571C293.053,137.697 292.178,135.864 291.262,134.031C291.095,133.656 290.887,133.282 290.72,132.907C290.72,132.865 290.679,132.865 290.679,132.823C289.596,130.658 288.513,128.492 287.388,126.368C287.347,126.243 287.263,126.159 287.222,126.034C286.889,125.41 286.514,124.785 286.18,124.16C285.472,122.827 284.723,121.494 283.973,120.162C283.848,119.912 283.681,119.662 283.557,119.412C283.057,118.537 282.557,117.704 282.057,116.83C281.474,115.872 280.933,114.872 280.349,113.914C280.141,113.581 279.933,113.206 279.683,112.873C279.142,111.957 278.558,111.04 277.975,110.124C277.476,109.333 277.017,108.541 276.518,107.791C276.226,107.375 275.934,106.917 275.643,106.5C275.018,105.542 274.393,104.626 273.769,103.668C273.31,103.002 272.894,102.335 272.477,101.71C272.144,101.211 271.769,100.711 271.395,100.211C270.77,99.295 270.103,98.42 269.479,97.504C269.062,96.962 268.687,96.379 268.312,95.838C267.896,95.255 267.438,94.713 266.98,94.13C266.355,93.297 265.688,92.422 265.064,91.631C264.73,91.215 264.397,90.756 264.064,90.298C263.523,89.59 262.94,88.924 262.398,88.257C261.773,87.508 261.19,86.758 260.565,86.008C260.316,85.717 260.066,85.383 259.816,85.092C259.066,84.217 258.275,83.343 257.525,82.468C256.983,81.885 256.484,81.26 255.942,80.677C255.817,80.51 255.692,80.385 255.526,80.219C254.11,78.678 252.693,77.178 251.277,75.721L250.944,75.387C249.653,74.055 248.32,72.722 246.987,71.431C246.654,71.097 246.321,70.806 245.988,70.473C244.905,69.431 243.822,68.432 242.739,67.474C241.323,66.224 239.907,64.975 238.491,63.809C237.075,62.642 235.658,61.518 234.242,60.393C232.826,59.31 231.41,58.269 229.994,57.269C228.536,56.228 227.078,55.27 225.621,54.354C224.163,53.396 222.705,52.521 221.247,51.688C219.706,50.814 218.207,49.981 216.666,49.189C215.125,48.398 213.584,47.648 212.084,46.94C210.418,46.19 208.752,45.482 207.086,44.858C205.379,44.191 203.629,43.608 201.963,43.067C200.131,42.483 198.256,41.984 196.424,41.567C194.341,41.067 192.259,40.693 190.218,40.401C187.844,40.068 185.47,39.86 183.137,39.776C180.138,39.693 177.223,39.776 174.307,40.109C170.684,40.484 167.102,41.234 163.645,42.275L153.565,45.316C157.022,44.274 160.563,43.525 164.228,43.15C167.102,42.817 170.059,42.733 173.058,42.817C175.39,42.9 177.723,43.108 180.138,43.441C182.179,43.733 184.262,44.108 186.344,44.608C188.177,45.024 190.01,45.524 191.884,46.107C193.591,46.649 195.299,47.232 197.048,47.898C198.714,48.523 200.38,49.231 202.047,49.981C203.588,50.689 205.129,51.397 206.628,52.23C208.169,53.021 209.669,53.854 211.21,54.729C212.667,55.562 214.125,56.478 215.583,57.394C217.041,58.311 218.498,59.31 219.956,60.31C221.372,61.31 222.788,62.351 224.205,63.434C225.621,64.517 227.037,65.641 228.453,66.849C229.869,68.015 231.285,69.265 232.701,70.514C233.784,71.472 234.867,72.472 235.95,73.513C237.616,75.096 239.282,76.72 240.865,78.386C240.99,78.511 241.073,78.594 241.198,78.719C242.781,80.344 244.363,82.01 245.904,83.717C246.446,84.301 246.946,84.925 247.487,85.508C248.528,86.675 249.528,87.841 250.528,89.049C251.152,89.798 251.777,90.548 252.36,91.298C253.277,92.422 254.151,93.505 255.026,94.63C255.692,95.463 256.317,96.296 256.983,97.171C257.817,98.295 258.65,99.378 259.483,100.503C260.149,101.419 260.774,102.294 261.44,103.21C262.231,104.334 263.023,105.501 263.814,106.625C264.439,107.583 265.064,108.5 265.688,109.457C266.48,110.665 267.23,111.873 268.021,113.081C268.604,113.997 269.187,114.914 269.729,115.83C270.52,117.121 271.311,118.454 272.061,119.745C272.561,120.62 273.102,121.494 273.602,122.369C274.477,123.91 275.351,125.493 276.184,127.076C276.518,127.7 276.892,128.367 277.226,128.992C278.433,131.241 279.6,133.531 280.724,135.822C280.891,136.197 281.099,136.572 281.266,136.947C282.224,138.904 283.182,140.862 284.098,142.861C285.306,145.443 286.43,148.026 287.555,150.65C289.138,154.315 290.595,158.064 292.012,161.812C292.261,162.479 292.511,163.187 292.803,163.853C294.552,168.56 296.177,173.349 297.676,178.181C297.884,178.806 298.051,179.43 298.259,180.055C299.3,183.47 300.3,186.927 301.216,190.426C301.55,191.676 301.883,192.967 302.174,194.258C302.507,195.591 302.841,196.882 303.174,198.215C303.632,200.131 304.049,202.047 304.465,204.004C304.59,204.587 304.715,205.129 304.84,205.712C305.34,208.127 305.84,210.585 306.256,213.001C306.381,213.667 306.506,214.333 306.589,215C306.922,216.791 307.214,218.582 307.464,220.373C307.589,221.206 307.714,222.039 307.839,222.872C308.089,224.621 308.339,226.329 308.547,228.078C308.63,228.828 308.755,229.536 308.838,230.286C309.13,232.576 309.338,234.825 309.546,237.116C309.546,237.324 309.588,237.491 309.588,237.699C309.796,240.157 310.005,242.614 310.13,245.03C310.171,245.821 310.213,246.613 310.254,247.404C310.338,249.07 310.421,250.778 310.463,252.444C310.504,253.36 310.504,254.276 310.546,255.234C310.588,256.775 310.588,258.316 310.588,259.857L310.588,262.606C310.588,264.189 310.546,265.772 310.504,267.354C310.463,268.187 310.463,269.02 310.421,269.853C310.338,271.894 310.213,273.977 310.088,275.976C310.046,276.268 310.046,276.559 310.046,276.851C309.88,279.183 309.63,281.474 309.38,283.765C309.297,284.431 309.213,285.056 309.13,285.722C308.922,287.347 308.713,288.971 308.505,290.595C308.38,291.387 308.255,292.178 308.13,292.928C307.88,294.469 307.63,295.968 307.339,297.509C307.214,298.259 307.089,298.967 306.922,299.717C306.506,301.883 306.048,304.007 305.548,306.089C305.007,308.297 304.465,310.463 303.84,312.545C303.674,313.128 303.465,313.711 303.299,314.295C302.882,315.752 302.424,317.168 301.966,318.585C301.716,319.376 301.425,320.167 301.133,321C300.717,322.167 300.3,323.333 299.842,324.457C299.509,325.29 299.175,326.123 298.842,326.956C298.426,327.998 297.968,329.039 297.509,330.038C297.093,330.955 296.676,331.829 296.26,332.746C295.843,333.662 295.385,334.537 294.927,335.411C294.386,336.453 293.844,337.452 293.303,338.452C292.886,339.243 292.428,339.993 292.012,340.784C291.303,341.95 290.595,343.117 289.887,344.241C289.513,344.866 289.096,345.491 288.721,346.074C287.43,347.948 286.139,349.781 284.764,351.488C283.723,352.821 282.64,354.112 281.516,355.32C280.391,356.528 279.267,357.694 278.1,358.819C276.434,360.402 274.727,361.901 272.977,363.276C272.561,363.609 272.144,363.942 271.686,364.275C270.02,365.525 268.312,366.733 266.563,367.774C266.438,367.857 266.313,367.94 266.188,368.024C264.314,369.148 262.398,370.106 260.44,371.023C259.982,371.231 259.483,371.439 259.024,371.647C257.067,372.48 255.026,373.272 252.985,373.896L263.064,370.856C265.105,370.231 267.105,369.44 269.104,368.607C269.562,368.399 270.062,368.19 270.52,367.982C272.477,367.066 274.393,366.108 276.268,364.983C276.393,364.9 276.518,364.817 276.643,364.733C278.392,363.65 280.1,362.484 281.807,361.193C282.224,360.86 282.682,360.568 283.098,360.235C284.848,358.861 286.555,357.403 288.221,355.778C288.263,355.737 288.305,355.695 288.388,355.653C289.513,354.571 290.595,353.446 291.637,352.28C292.678,351.114 293.719,349.906 294.76,348.615C294.802,348.573 294.844,348.49 294.885,348.448C296.26,346.74 297.551,344.908 298.842,343.033C298.967,342.867 299.092,342.742 299.175,342.575C299.467,342.117 299.717,341.659 300.008,341.201C300.717,340.076 301.466,338.91 302.133,337.744C302.299,337.411 302.507,337.161 302.716,336.827C302.966,336.369 303.216,335.87 303.465,335.453C304.007,334.453 304.548,333.454 305.09,332.413C305.298,331.996 305.548,331.58 305.756,331.163C306.006,330.705 306.173,330.205 306.423,329.705C306.839,328.831 307.256,327.914 307.672,326.998C307.88,326.54 308.089,326.082 308.297,325.623C308.547,325.082 308.755,324.499 308.963,323.916L310.463,320.167C310.713,319.459 310.963,318.71 311.254,317.96C311.546,317.168 311.837,316.377 312.087,315.544C312.212,315.211 312.295,314.919 312.42,314.586C312.753,313.503 313.087,312.379 313.42,311.254C313.587,310.671 313.795,310.088 313.961,309.505C314.003,309.338 314.045,309.213 314.086,309.088C314.628,307.214 315.128,305.34 315.586,303.382C315.627,303.257 315.627,303.174 315.669,303.049C316.002,301.425 316.419,299.634 316.794,297.801Z" style="fill:rgb(82,53,228);fill-rule:nonzero;stroke:black;stroke-width:0.02px;"/>
            </g>
        </g>
        <g id="Layer_110" serif:id="Layer_1" transform="matrix(0.885266,-0.267424,0.267424,0.885266,25.611,78.7189)">
            <ellipse cx="0" cy="0" rx="99.42" ry="171.642" style="fill:rgb(127,114,221);stroke:black;stroke-width:0.02px;stroke-linecap:butt;"/>
        </g>
        <g id="Layer_111" serif:id="Layer_1" transform="matrix(0.885266,-0.267424,0.267424,0.885266,25.6071,78.7189)">
            <ellipse cx="0" cy="0" rx="90.84" ry="156.856" style="fill:white;stroke:black;stroke-width:0.02px;stroke-linecap:butt;"/>
        </g>
        <g transform="matrix(0.922152,0,0,0.922152,-161.794,-114.739)">
            <g id="Layer_112" serif:id="Layer_1">
                <path d="M233.034,85.425C233.826,86.175 234.242,87.633 233.992,88.716L228.245,112.748C227.995,113.831 227.12,114.081 226.329,113.331C225.537,112.581 225.079,111.082 225.329,109.999L231.077,86.008C231.327,84.925 232.201,84.675 233.034,85.425Z" style="fill:rgb(127,114,221);fill-rule:nonzero;stroke:black;stroke-width:0.02px;"/>
            </g>
        </g>
        <g transform="matrix(0.922152,0,0,0.922152,-161.794,-114.739)">
            <g id="Layer_113" serif:id="Layer_1">
                <path d="M180.097,306.214C180.888,306.964 181.305,308.422 181.055,309.505L175.307,333.537C175.057,334.578 174.182,334.828 173.433,334.079C172.641,333.329 172.183,331.829 172.433,330.788L178.181,306.756C178.431,305.715 179.264,305.465 180.097,306.214Z" style="fill:rgb(127,114,221);fill-rule:nonzero;stroke:black;stroke-width:0.02px;"/>
            </g>
        </g>
        <g transform="matrix(0.922152,0,0,0.922152,-161.794,-114.739)">
            <g id="Layer_114" serif:id="Layer_1">
                <path d="M295.677,294.636C296.468,295.385 296.926,296.843 296.676,297.926C296.427,299.009 295.552,299.259 294.76,298.509L276.684,281.474C275.893,280.724 275.476,279.267 275.726,278.184C275.976,277.101 276.851,276.892 277.6,277.642L295.677,294.636Z" style="fill:rgb(127,114,221);fill-rule:nonzero;stroke:black;stroke-width:0.02px;"/>
            </g>
        </g>
        <g transform="matrix(0.922152,0,0,0.922152,-161.794,-114.739)">
            <g id="Layer_115" serif:id="Layer_1">
                <path d="M129.7,138.113C130.491,138.863 130.949,140.279 130.658,141.362C130.408,142.445 129.575,142.695 128.742,141.945L110.665,124.91C109.874,124.16 109.457,122.702 109.707,121.619C109.957,120.537 110.79,120.287 111.582,121.078L129.7,138.113Z" style="fill:rgb(127,114,221);fill-rule:nonzero;stroke:black;stroke-width:0.02px;"/>
            </g>
        </g>
        <g transform="matrix(0.922152,0,0,0.922152,-161.794,-114.739)">
            <g id="Layer_116" serif:id="Layer_1">
                <path d="M255.526,317.793C255.776,318.043 256.026,318.376 256.192,318.793L268.854,345.616C269.395,346.824 269.354,348.198 268.729,348.74C268.312,349.114 267.729,348.989 267.23,348.49C266.98,348.24 266.73,347.948 266.563,347.532L253.901,320.667C253.36,319.501 253.402,318.126 254.026,317.543C254.484,317.21 255.026,317.335 255.526,317.793Z" style="fill:rgb(127,114,221);fill-rule:nonzero;stroke:black;stroke-width:0.02px;"/>
            </g>
        </g>
        <g transform="matrix(0.922152,0,0,0.922152,-161.794,-114.739)">
            <g id="Layer_117" serif:id="Layer_1">
                <path d="M139.154,71.056C139.404,71.306 139.612,71.597 139.821,71.972L152.482,98.837C153.024,100.003 152.982,101.377 152.357,101.96C151.941,102.294 151.358,102.169 150.858,101.71C150.608,101.461 150.4,101.169 150.192,100.794L137.53,73.93C136.988,72.763 137.03,71.389 137.655,70.806C138.071,70.473 138.654,70.598 139.154,71.056Z" style="fill:rgb(127,114,221);fill-rule:nonzero;stroke:black;stroke-width:0.02px;"/>
            </g>
        </g>
        <g transform="matrix(0.922152,0,0,0.922152,-161.794,-114.739)">
            <g id="Layer_118" serif:id="Layer_1">
                <path d="M220.706,327.998C221.206,328.456 221.622,329.289 221.747,330.122L225.912,359.485C226.079,360.777 225.579,361.734 224.746,361.61C224.454,361.568 224.205,361.401 223.955,361.151C223.455,360.693 223.038,359.902 222.955,359.027L218.79,329.664C218.623,328.372 219.123,327.414 219.956,327.539C220.206,327.581 220.456,327.748 220.706,327.998Z" style="fill:rgb(127,114,221);fill-rule:nonzero;stroke:black;stroke-width:0.02px;"/>
            </g>
        </g>
        <g transform="matrix(0.922152,0,0,0.922152,-161.794,-114.739)">
            <g id="Layer_119" serif:id="Layer_1">
                <path d="M182.429,58.352C182.929,58.81 183.345,59.643 183.47,60.477L187.635,89.84C187.802,91.131 187.302,92.089 186.469,91.964C186.219,91.923 185.928,91.756 185.678,91.548C185.178,91.09 184.762,90.257 184.637,89.424L180.472,60.06C180.263,58.769 180.805,57.811 181.638,57.936C181.929,57.977 182.179,58.102 182.429,58.352Z" style="fill:rgb(127,114,221);fill-rule:nonzero;stroke:black;stroke-width:0.02px;"/>
            </g>
        </g>
        <g transform="matrix(0.922152,0,0,0.922152,-161.794,-114.739)">
            <g id="Layer_120" serif:id="Layer_1">
                <path d="M145.902,257.4C146.152,257.65 146.36,257.941 146.568,258.358C147.151,259.566 147.11,260.982 146.443,261.482L132.365,273.644C131.949,273.977 131.366,273.852 130.907,273.394C130.658,273.144 130.408,272.811 130.241,272.436C129.658,271.27 129.7,269.853 130.366,269.312L144.444,257.192C144.819,256.817 145.402,256.942 145.902,257.4Z" style="fill:rgb(127,114,221);fill-rule:nonzero;stroke:black;stroke-width:0.02px;"/>
            </g>
        </g>
        <g transform="matrix(0.922152,0,0,0.922152,-161.794,-114.739)">
            <g id="Layer_121" serif:id="Layer_1">
                <path d="M275.518,146.152C275.768,146.401 276.018,146.735 276.184,147.11C276.726,148.276 276.684,149.65 276.059,150.233L261.982,162.354C261.565,162.728 260.982,162.603 260.482,162.145C260.232,161.895 259.982,161.604 259.816,161.187C259.274,160.021 259.316,158.647 259.941,158.064L274.06,145.985C274.477,145.61 275.06,145.693 275.518,146.152Z" style="fill:rgb(127,114,221);fill-rule:nonzero;stroke:black;stroke-width:0.02px;"/>
            </g>
        </g>
        <g transform="matrix(0.922152,0,0,0.922152,-161.794,-114.739)">
            <g id="Layer_122" serif:id="Layer_1">
                <path d="M127.95,197.423C128.45,197.881 128.825,198.673 128.95,199.547C129.158,200.839 128.617,201.797 127.784,201.672L109.291,199.131C108.999,199.089 108.749,198.923 108.5,198.673C108,198.215 107.583,197.423 107.5,196.549C107.292,195.257 107.833,194.3 108.666,194.424L127.159,196.965C127.409,197.048 127.659,197.215 127.95,197.423Z" style="fill:rgb(127,114,221);fill-rule:nonzero;stroke:black;stroke-width:0.02px;"/>
            </g>
        </g>
        <g transform="matrix(0.922152,0,0,0.922152,-161.794,-114.739)">
            <g id="Layer_123" serif:id="Layer_1">
                <path d="M297.884,220.789C298.384,221.247 298.801,222.08 298.926,222.913C299.134,224.246 298.592,225.204 297.801,225.079L279.308,222.497C279.017,222.455 278.767,222.33 278.517,222.08C278.017,221.622 277.6,220.831 277.517,219.956C277.309,218.623 277.85,217.665 278.683,217.832L297.176,220.331C297.384,220.414 297.634,220.581 297.884,220.789Z" style="fill:rgb(127,114,221);fill-rule:nonzero;stroke:black;stroke-width:0.02px;"/>
            </g>
        </g>
        <g transform="matrix(0.922152,0,0,0.922152,-161.794,-114.739)">
            <g id="Layer_124" serif:id="Layer_1">
                <path d="M210.127,190.426C211.709,193.467 212.376,197.298 211.668,200.297C211.376,201.547 210.835,202.505 210.21,203.171L208.044,198.298C208.211,198.048 208.377,197.673 208.461,197.298L210.127,190.426Z" style="fill:rgb(15,19,22);fill-rule:nonzero;stroke:black;stroke-width:0.02px;"/>
            </g>
        </g>
        <g transform="matrix(0.922152,0,0,0.922152,-161.794,-114.739)">
            <g id="Layer_125" serif:id="Layer_1">
                <path d="M203.254,194.258C202.296,195.257 202.171,197.548 203.088,199.547L204.587,202.963C204.421,202.838 204.254,202.671 204.087,202.546C200.88,199.547 199.173,193.675 200.172,189.468C200.88,186.469 202.796,185.095 205.004,185.636L203.379,192.509C203.213,193.008 203.171,193.633 203.254,194.258Z" style="fill:rgb(15,19,22);fill-rule:nonzero;stroke:black;stroke-width:0.02px;"/>
            </g>
        </g>
        <g transform="matrix(0.922152,0,0,0.922152,-161.794,-114.739)">
            <g id="Layer_126" serif:id="Layer_1">
                <path d="M205.962,194.591C206.461,195.049 206.878,195.674 207.211,196.465L208.044,198.298L210.21,203.171L246.904,286.68C247.862,288.846 247.695,291.303 246.529,292.137C245.78,292.678 244.822,292.428 243.989,291.637C243.53,291.179 243.072,290.554 242.739,289.804L204.587,202.921L203.088,199.506C202.213,197.507 202.296,195.216 203.254,194.216C203.296,194.175 203.379,194.091 203.421,194.05C204.171,193.55 205.129,193.8 205.962,194.591Z" style="fill:rgb(15,19,22);fill-rule:nonzero;stroke:black;stroke-width:0.02px;"/>
            </g>
        </g>
        <g transform="matrix(0.922152,0,0,0.922152,-161.794,-114.739)">
            <g id="Layer_127" serif:id="Layer_1">
                <path d="M220.123,135.531C221.539,136.863 222.33,139.446 221.872,141.362L210.085,190.468L208.461,197.34C208.377,197.757 208.211,198.09 208.044,198.34L207.211,196.507C206.878,195.716 206.42,195.091 205.962,194.633C205.129,193.841 204.171,193.633 203.421,194.133C203.338,194.175 203.296,194.258 203.254,194.3C203.171,193.675 203.213,193.05 203.338,192.509L204.962,185.636L216.707,136.572C217.207,134.614 218.707,134.156 220.123,135.531Z" style="fill:rgb(15,19,22);fill-rule:nonzero;stroke:black;stroke-width:0.02px;"/>
            </g>
        </g>
    </g>
    <g transform="matrix(0.26,0,0,0.26,216.166,214.5)">
        <g id="Layer_128" serif:id="Layer_1" transform="matrix(1,0,0,1,43.2587,-80.7264)">
            <path d="M-68.744,-11.516L68.744,11.558L-68.744,-11.558L-68.744,-11.516Z" style="fill:rgb(153,60,75);fill-rule:nonzero;stroke:black;stroke-width:0.02px;stroke-linecap:butt;"/>
        </g>
        <g transform="matrix(1,0,0,1,-207.456,-237.603)">
            <g id="Layer_129" serif:id="Layer_1">
                <path d="M181.971,145.36L181.804,145.36C181.888,145.319 181.929,145.319 181.971,145.36Z" style="fill:rgb(139,54,68);fill-rule:nonzero;stroke:black;stroke-width:0.02px;"/>
            </g>
        </g>
        <g transform="matrix(1,0,0,1,-207.456,-237.603)">
            <g id="Layer_130" serif:id="Layer_1">
                <path d="M181.846,145.319C181.721,145.319 181.638,145.277 181.513,145.277C181.638,145.277 181.721,145.319 181.846,145.319Z" style="fill:rgb(143,56,70);fill-rule:nonzero;stroke:black;stroke-width:0.02px;"/>
            </g>
        </g>
        <g transform="matrix(1,0,0,1,-207.456,-237.603)">
            <g id="Layer_131" serif:id="Layer_1">
                <path d="M181.263,145.277L181.18,145.277L181.263,145.277Z" style="fill:rgb(148,58,73);fill-rule:nonzero;stroke:black;stroke-width:0.02px;"/>
            </g>
        </g>
        <g transform="matrix(1,0,0,1,-207.456,-237.603)">
            <g id="Layer_132" serif:id="Layer_1">
                <path d="M181.513,145.277L181.346,145.277L181.513,145.277Z" style="fill:rgb(148,58,73);fill-rule:nonzero;stroke:black;stroke-width:0.02px;"/>
            </g>
        </g>
        <g transform="matrix(1,0,0,1,-207.456,-237.603)">
            <g id="Layer_133" serif:id="Layer_1">
                <path d="M181.18,145.277L180.846,145.277L181.18,145.277Z" style="fill:rgb(153,60,75);fill-rule:nonzero;stroke:black;stroke-width:0.02px;"/>
            </g>
        </g>
        <g transform="matrix(1,0,0,1,-207.456,-237.603)">
            <g id="Layer_134" serif:id="Layer_1">
                <path d="M180.597,145.277L180.472,145.277L180.597,145.277Z" style="fill:rgb(158,61,77);fill-rule:nonzero;stroke:black;stroke-width:0.02px;"/>
            </g>
        </g>
        <g transform="matrix(1,0,0,1,-207.456,-237.603)">
            <g id="Layer_135" serif:id="Layer_1">
                <path d="M180.805,145.277L180.68,145.277L180.805,145.277Z" style="fill:rgb(158,61,77);fill-rule:nonzero;stroke:black;stroke-width:0.02px;"/>
            </g>
        </g>
        <g transform="matrix(1,0,0,1,-207.456,-237.603)">
            <g id="Layer_136" serif:id="Layer_1">
                <path d="M180.43,145.277C180.263,145.277 180.138,145.319 179.972,145.319C180.138,145.319 180.305,145.319 180.43,145.277Z" style="fill:rgb(163,63,80);fill-rule:nonzero;stroke:black;stroke-width:0.02px;"/>
            </g>
        </g>
        <g transform="matrix(1,0,0,1,-207.456,-237.603)">
            <g id="Layer_137" serif:id="Layer_1">
                <path d="M180.013,145.36L180.013,145.36Z" style="fill:rgb(167,65,82);fill-rule:nonzero;stroke:black;stroke-width:0.02px;"/>
            </g>
        </g>
        <g transform="matrix(1,0,0,1,-207.456,-237.603)">
            <g id="Layer_138" serif:id="Layer_1">
                <path d="M179.389,145.527L179.389,145.527Z" style="fill:rgb(167,65,82);fill-rule:nonzero;stroke:black;stroke-width:0.02px;"/>
            </g>
        </g>
        <g transform="matrix(1,0,0,1,-207.456,-237.603)">
            <g id="Layer_139" serif:id="Layer_1">
                <path d="M179.347,145.527C179.18,145.568 179.014,145.652 178.847,145.735C179.014,145.652 179.18,145.568 179.347,145.527Z" style="fill:rgb(172,67,84);fill-rule:nonzero;stroke:black;stroke-width:0.02px;"/>
            </g>
        </g>
        <g transform="matrix(1,0,0,1,-207.456,-237.603)">
            <g id="Layer_140" serif:id="Layer_1">
                <path d="M178.764,145.777C178.681,145.818 178.639,145.86 178.556,145.902C178.597,145.86 178.681,145.818 178.764,145.777Z" style="fill:rgb(172,67,84);fill-rule:nonzero;stroke:black;stroke-width:0.02px;"/>
            </g>
        </g>
        <g transform="matrix(1,0,0,1,-207.456,-237.603)">
            <g id="Layer_141" serif:id="Layer_1">
                <path d="M178.264,146.11C178.222,146.152 178.181,146.193 178.139,146.235C178.181,146.152 178.222,146.11 178.264,146.11Z" style="fill:rgb(167,65,82);fill-rule:nonzero;stroke:black;stroke-width:0.02px;"/>
            </g>
        </g>
        <g transform="matrix(1,0,0,1,-207.456,-237.603)">
            <g id="Layer_142" serif:id="Layer_1">
                <path d="M178.556,145.902C178.514,145.902 178.514,145.943 178.472,145.943C178.472,145.902 178.514,145.902 178.556,145.902Z" style="fill:rgb(167,65,82);fill-rule:nonzero;stroke:black;stroke-width:0.02px;"/>
            </g>
        </g>
        <g transform="matrix(1,0,0,1,-207.456,-237.603)">
            <g id="Layer_143" serif:id="Layer_1">
                <path d="M178.139,146.193C178.097,146.235 178.097,146.235 178.056,146.277C178.056,146.235 178.097,146.235 178.139,146.193Z" style="fill:rgb(163,63,80);fill-rule:nonzero;stroke:black;stroke-width:0.02px;"/>
            </g>
        </g>
        <g transform="matrix(1,0,0,1,-207.456,-237.603)">
            <g id="Layer_144" serif:id="Layer_1">
                <path d="M177.973,146.36C177.931,146.401 177.931,146.401 177.931,146.443C177.931,146.401 177.931,146.401 177.973,146.36Z" style="fill:rgb(163,63,80);fill-rule:nonzero;stroke:black;stroke-width:0.02px;"/>
            </g>
        </g>
        <g transform="matrix(1,0,0,1,-207.456,-237.603)">
            <g id="Layer_145" serif:id="Layer_1">
                <path d="M177.889,146.443C177.848,146.526 177.806,146.568 177.764,146.651C177.806,146.568 177.848,146.485 177.889,146.443Z" style="fill:rgb(158,61,77);fill-rule:nonzero;stroke:black;stroke-width:0.02px;"/>
            </g>
        </g>
        <g transform="matrix(1,0,0,1,-207.456,-237.603)">
            <g id="Layer_146" serif:id="Layer_1">
                <path d="M177.723,146.693L177.764,146.651L177.723,146.693Z" style="fill:rgb(153,60,75);fill-rule:nonzero;stroke:black;stroke-width:0.02px;"/>
            </g>
        </g>
        <g transform="matrix(1,0,0,1,-207.456,-237.603)">
            <g id="Layer_147" serif:id="Layer_1">
                <path d="M321.708,169.601L321.708,169.601Z" style="fill:rgb(124,48,61);fill-rule:nonzero;stroke:black;stroke-width:0.02px;"/>
            </g>
        </g>
        <g transform="matrix(1,0,0,1,-207.456,-237.603)">
            <g id="Layer_148" serif:id="Layer_1">
                <path d="M320.042,168.601C320.084,168.601 320.126,168.601 320.126,168.643C320.084,168.601 320.084,168.601 320.042,168.601Z" style="fill:rgb(129,50,63);fill-rule:nonzero;stroke:black;stroke-width:0.02px;"/>
            </g>
        </g>
        <g transform="matrix(1,0,0,1,-207.456,-237.603)">
            <g id="Layer_149" serif:id="Layer_1">
                <path d="M320.042,168.601C319.917,168.56 319.792,168.518 319.667,168.518C319.792,168.518 319.917,168.56 320.042,168.601Z" style="fill:rgb(134,52,66);fill-rule:nonzero;stroke:black;stroke-width:0.02px;"/>
            </g>
        </g>
        <g transform="matrix(1,0,0,1,-207.456,-237.603)">
            <g id="Layer_150" serif:id="Layer_1">
                <path d="M319.459,168.435C319.543,168.435 319.584,168.476 319.667,168.476C319.626,168.476 319.543,168.476 319.459,168.435Z" style="fill:rgb(139,54,68);fill-rule:nonzero;stroke:black;stroke-width:0.02px;"/>
            </g>
        </g>
        <g transform="matrix(1,0,0,1,-207.456,-237.603)">
            <g id="Layer_151" serif:id="Layer_1">
                <path d="M122.869,259.774C122.869,259.816 122.911,259.816 122.869,259.774C122.911,259.816 122.869,259.816 122.869,259.774Z" style="fill:rgb(161,63,79);fill-rule:nonzero;stroke:black;stroke-width:0.02px;"/>
            </g>
        </g>
        <g id="Layer_152" serif:id="Layer_1" transform="matrix(1,0,0,1,-57.3689,-35.1816)">
            <path d="M-27.635,55.728L27.635,-55.728L-27.635,55.728Z" style="fill:rgb(161,63,79);fill-rule:nonzero;stroke:black;stroke-width:0.02px;stroke-linecap:butt;"/>
        </g>
        <g transform="matrix(1,0,0,1,-207.456,-237.603)">
            <g id="Layer_153" serif:id="Layer_1">
                <path d="M124.118,260.44C124.327,260.524 124.577,260.565 124.827,260.607C124.577,260.607 124.327,260.524 124.118,260.44Z" style="fill:rgb(161,63,79);fill-rule:nonzero;stroke:black;stroke-width:0.02px;"/>
            </g>
        </g>
        <g transform="matrix(1,0,0,1,-207.456,-237.603)">
            <g id="Layer_154" serif:id="Layer_1">
                <path d="M122.577,259.483L122.577,259.483Z" style="fill:rgb(161,63,79);fill-rule:nonzero;stroke:black;stroke-width:0.02px;"/>
            </g>
        </g>
        <g transform="matrix(1,0,0,1,-207.456,-237.603)">
            <g id="Layer_155" serif:id="Layer_1">
                <path d="M122.411,258.316C122.411,258.275 122.452,258.233 122.452,258.15C122.452,258.233 122.411,258.275 122.411,258.316Z" style="fill:rgb(153,60,75);fill-rule:nonzero;stroke:black;stroke-width:0.02px;"/>
            </g>
        </g>
        <g transform="matrix(1,0,0,1,-207.456,-237.603)">
            <g id="Layer_156" serif:id="Layer_1">
                <path d="M122.411,259.108C122.411,259.108 122.411,259.149 122.411,259.108C122.411,259.149 122.411,259.108 122.411,259.108Z" style="fill:rgb(153,60,75);fill-rule:nonzero;stroke:black;stroke-width:0.02px;"/>
            </g>
        </g>
        <g transform="matrix(1,0,0,1,-207.456,-237.603)">
            <g id="Layer_157" serif:id="Layer_1">
                <path d="M122.369,259.066L122.369,259.108C122.411,259.108 122.411,259.066 122.369,259.066Z" style="fill:rgb(148,58,73);fill-rule:nonzero;stroke:black;stroke-width:0.02px;"/>
            </g>
        </g>
        <g transform="matrix(1,0,0,1,-207.456,-237.603)">
            <g id="Layer_158" serif:id="Layer_1">
                <path d="M122.411,258.316L122.411,258.316Z" style="fill:rgb(148,58,73);fill-rule:nonzero;stroke:black;stroke-width:0.02px;"/>
            </g>
        </g>
        <g transform="matrix(1,0,0,1,-207.456,-237.603)">
            <g id="Layer_159" serif:id="Layer_1">
                <path d="M122.369,258.441L122.369,258.525L122.369,258.441Z" style="fill:rgb(148,58,73);fill-rule:nonzero;stroke:black;stroke-width:0.02px;"/>
            </g>
        </g>
        <g transform="matrix(1,0,0,1,-207.456,-237.603)">
            <g id="Layer_160" serif:id="Layer_1">
                <path d="M122.327,258.691C122.327,258.691 122.327,258.733 122.327,258.691C122.327,258.733 122.327,258.691 122.327,258.691Z" style="fill:rgb(143,56,70);fill-rule:nonzero;stroke:black;stroke-width:0.02px;"/>
            </g>
        </g>
        <g transform="matrix(1,0,0,1,-207.456,-237.603)">
            <g id="Layer_161" serif:id="Layer_1">
                <path d="M122.369,258.525C122.327,258.525 122.327,258.525 122.369,258.525C122.327,258.525 122.327,258.566 122.369,258.525C122.327,258.566 122.327,258.525 122.369,258.525Z" style="fill:rgb(143,56,70);fill-rule:nonzero;stroke:black;stroke-width:0.02px;"/>
            </g>
        </g>
        <g transform="matrix(1,0,0,1,-207.456,-237.603)">
            <g id="Layer_162" serif:id="Layer_1">
                <path d="M122.577,259.483C122.661,259.607 122.744,259.691 122.869,259.774C122.786,259.691 122.661,259.607 122.577,259.483Z" style="fill:rgb(118,35,51);fill-rule:nonzero;stroke:black;stroke-width:0.02px;"/>
            </g>
        </g>
        <g transform="matrix(1,0,0,1,-207.456,-237.603)">
            <g id="Layer_163" serif:id="Layer_1">
                <path d="M122.411,259.149C122.452,259.274 122.494,259.358 122.577,259.483C122.536,259.358 122.452,259.274 122.411,259.149Z" style="fill:rgb(118,35,51);fill-rule:nonzero;stroke:black;stroke-width:0.02px;"/>
            </g>
        </g>
        <g transform="matrix(1,0,0,1,-207.456,-237.603)">
            <g id="Layer_164" serif:id="Layer_1">
                <path d="M122.327,258.733C122.327,258.858 122.369,258.983 122.369,259.066C122.369,258.941 122.327,258.816 122.327,258.733Z" style="fill:rgb(118,35,51);fill-rule:nonzero;stroke:black;stroke-width:0.02px;"/>
            </g>
        </g>
        <g transform="matrix(1,0,0,1,-207.456,-237.603)">
            <g id="Layer_165" serif:id="Layer_1">
                <path d="M266.521,282.474C266.521,282.432 266.563,282.432 266.563,282.39C266.563,282.432 266.521,282.432 266.521,282.474Z" style="fill:rgb(161,63,79);fill-rule:nonzero;stroke:black;stroke-width:0.02px;"/>
            </g>
        </g>
        <g id="Layer_166" serif:id="Layer_1" transform="matrix(1,0,0,1,80.1194,-12.0656)">
            <path d="M26.677,-53.812L-26.677,53.812L26.677,-53.812Z" style="fill:rgb(161,63,79);fill-rule:nonzero;stroke:black;stroke-width:0.02px;stroke-linecap:butt;"/>
        </g>
        <g id="Layer_167" serif:id="Layer_1" transform="matrix(1,0,0,1,-11.9907,30.7511)">
            <path d="M-65.433,-10.996L65.433,10.996L-65.433,-10.996Z" style="fill:rgb(153,60,75);fill-rule:nonzero;stroke:black;stroke-width:0.02px;stroke-linecap:butt;"/>
        </g>
        <g transform="matrix(1,0,0,1,-207.456,-237.603)">
            <g id="Layer_168" serif:id="Layer_1">
                <path d="M320.126,168.601C320.084,168.601 320.042,168.601 320.042,168.56C319.917,168.518 319.792,168.476 319.667,168.476C319.584,168.476 319.543,168.435 319.459,168.435L181.971,145.36L181.804,145.36C181.679,145.36 181.596,145.319 181.471,145.319L180.472,145.319C180.305,145.319 180.18,145.36 180.013,145.36C179.805,145.402 179.597,145.443 179.389,145.527C179.222,145.568 179.055,145.652 178.889,145.735C178.847,145.735 178.806,145.777 178.764,145.818C178.681,145.86 178.639,145.902 178.556,145.943C178.514,145.943 178.514,145.985 178.472,145.985C178.389,146.027 178.306,146.11 178.264,146.152L177.973,146.443C177.931,146.485 177.931,146.485 177.931,146.526C177.889,146.61 177.848,146.651 177.806,146.735L177.764,146.776L122.452,258.15C122.411,258.191 122.411,258.233 122.411,258.316L122.411,258.358C122.411,258.4 122.369,258.441 122.369,258.483L122.369,258.733C122.369,258.858 122.411,258.983 122.411,259.066L122.411,259.149C122.452,259.274 122.494,259.358 122.577,259.483C122.661,259.607 122.744,259.691 122.869,259.774L122.911,259.816C123.036,259.941 123.16,260.024 123.327,260.149C123.535,260.274 123.827,260.399 124.118,260.482C124.327,260.565 124.577,260.607 124.827,260.649L255.734,282.64L262.315,283.765C264.106,284.056 265.938,283.473 266.521,282.474C266.521,282.432 266.563,282.432 266.563,282.39L272.186,271.061L321.833,170.934C322,170.6 322,170.226 321.875,169.892C321.833,169.809 321.792,169.726 321.75,169.684C321.75,169.684 321.75,169.642 321.708,169.642C321.708,169.601 321.667,169.601 321.667,169.559C321.5,169.351 321.25,169.143 320.959,168.976C320.75,168.851 320.542,168.768 320.292,168.684C320.251,168.643 320.167,168.643 320.126,168.601ZM314.253,171.725L260.899,279.35L130.033,257.358L183.387,149.733L314.253,171.725Z" style="fill:rgb(195,59,84);fill-rule:nonzero;stroke:black;stroke-width:0.02px;"/>
            </g>
        </g>
        <g id="Layer_169" serif:id="Layer_1" transform="matrix(1,0,0,1,61.9181,39.1228)">
            <path d="M-2.811,5.664L2.811,-5.664L-2.811,5.664Z" style="fill:rgb(152,46,66);fill-rule:nonzero;stroke:black;stroke-width:0.02px;stroke-linecap:butt;"/>
        </g>
        <g id="Layer_170" serif:id="Layer_1" transform="matrix(1,0,0,1,-17.197,34.0415)">
            <path d="M-65.433,-10.996L65.433,10.996L-65.433,-10.996Z" style="fill:rgb(145,44,63);fill-rule:nonzero;stroke:black;stroke-width:0.02px;stroke-linecap:butt;"/>
        </g>
        <g transform="matrix(1,0,0,1,-207.456,-237.603)">
            <g id="Layer_171" serif:id="Layer_1">
                <path d="M283.307,302.841L354.696,158.855L160.979,126.284L89.59,270.27L283.307,302.841ZM122.327,258.525L122.327,258.441C122.369,258.358 122.369,258.233 122.411,258.15L177.681,146.693L177.723,146.651C177.764,146.568 177.806,146.526 177.848,146.443C177.889,146.401 177.889,146.401 177.889,146.36L178.181,146.068C178.264,146.027 178.306,145.943 178.389,145.902C178.431,145.902 178.431,145.86 178.472,145.86C178.556,145.818 178.597,145.777 178.681,145.735C178.722,145.693 178.764,145.693 178.806,145.652C178.972,145.568 179.139,145.527 179.305,145.443C179.514,145.36 179.722,145.319 179.93,145.277C180.055,145.235 180.222,145.235 180.388,145.235L181.43,145.235C181.554,145.235 181.638,145.235 181.763,145.277L181.929,145.277L319.459,168.435C319.543,168.435 319.584,168.476 319.667,168.476C319.792,168.518 319.917,168.518 320.001,168.56C320.084,168.601 320.209,168.601 320.292,168.643C320.542,168.726 320.75,168.809 320.959,168.934C321.25,169.101 321.5,169.309 321.667,169.517C321.667,169.559 321.708,169.559 321.708,169.601L321.75,169.642C321.792,169.726 321.833,169.767 321.875,169.851C322.042,170.184 322.042,170.559 321.833,170.892L272.186,271.061L266.563,282.39C266.563,282.432 266.521,282.432 266.521,282.474C265.938,283.473 264.106,284.056 262.315,283.765L255.734,282.64L124.827,260.649C124.577,260.607 124.368,260.524 124.118,260.482C123.827,260.399 123.577,260.274 123.327,260.149C123.16,260.066 123.036,259.941 122.911,259.816L122.869,259.774C122.744,259.691 122.661,259.566 122.577,259.483C122.494,259.358 122.452,259.274 122.411,259.149L122.411,259.066C122.369,258.941 122.369,258.858 122.369,258.733C122.327,258.65 122.327,258.608 122.327,258.525Z" style="fill:rgb(206,80,101);fill-rule:nonzero;stroke:black;stroke-width:0.02px;"/>
            </g>
        </g>
        <g id="Layer_172" serif:id="Layer_1" transform="matrix(1,0,0,1,14.6865,-23.0613)">
            <path d="M38.756,64.808L92.11,-42.817L-38.756,-64.808L-92.11,42.817L38.756,64.808Z" style="fill:rgb(206,80,101);fill-rule:nonzero;stroke:black;stroke-width:0.02px;stroke-linecap:butt;"/>
        </g>
        <g id="Layer_173" serif:id="Layer_1" transform="matrix(1,0,0,1,-21.0705,73.1305)">
            <path d="M-96.796,-40.463L-96.921,7.893L96.796,40.463L96.921,-7.893L-96.796,-40.463Z" style="fill:rgb(180,183,209);fill-rule:nonzero;stroke:black;stroke-width:0.02px;stroke-linecap:butt;"/>
        </g>
        <g id="Layer_174" serif:id="Layer_1" transform="matrix(1,0,0,1,111.482,17.4021)">
            <path d="M-35.632,47.836L-35.757,96.192L35.632,-47.794L35.757,-96.192L-35.632,47.836Z" style="fill:rgb(232,234,239);fill-rule:nonzero;stroke:black;stroke-width:0.02px;stroke-linecap:butt;"/>
        </g>
        <g id="Layer_175" serif:id="Layer_1" transform="matrix(1,0,0,1,9.81336,-96.9493)">
            <path d="M5.477,-3.165L-5.477,3.165L5.477,-3.165Z" style="fill:rgb(35,150,171);fill-rule:nonzero;stroke:black;stroke-width:0.02px;stroke-linecap:butt;"/>
        </g>
        <g id="Layer_176" serif:id="Layer_1" transform="matrix(1,0,0,1,-1.8696,-90.1603)">
            <path d="M2.457,-1.416L-2.457,1.416L2.457,-1.416Z" style="fill:rgb(35,150,171);fill-rule:nonzero;stroke:black;stroke-width:0.02px;stroke-linecap:butt;"/>
        </g>
        <g id="Layer_177" serif:id="Layer_1" transform="matrix(1,0,0,1,-10.0956,-85.3705)">
            <path d="M2.437,-1.416L-2.437,1.416L2.437,-1.416Z" style="fill:rgb(35,150,171);fill-rule:nonzero;stroke:black;stroke-width:0.02px;stroke-linecap:butt;"/>
        </g>
        <g id="Layer_178" serif:id="Layer_1" transform="matrix(1,0,0,1,55.4206,-76.9571)">
            <path d="M-40.13,-23.158L40.13,23.158L-40.13,-23.158Z" style="fill:rgb(24,104,119);fill-rule:nonzero;stroke:black;stroke-width:0.02px;stroke-linecap:butt;"/>
        </g>
        <g id="Layer_179" serif:id="Layer_1" transform="matrix(1,0,0,1,49.9436,-73.7708)">
            <path d="M-34.653,-26.344L-45.607,-20.013L34.653,26.344L45.607,19.971L-34.653,-26.344Z" style="fill:rgb(26,145,160);fill-rule:nonzero;stroke:black;stroke-width:0.02px;stroke-linecap:butt;"/>
        </g>
        <g id="Layer_180" serif:id="Layer_1" transform="matrix(1,0,0,1,40.718,-68.4187)">
            <path d="M-40.13,-23.158L40.13,23.158L-40.13,-23.158Z" style="fill:rgb(24,104,119);fill-rule:nonzero;stroke:black;stroke-width:0.02px;stroke-linecap:butt;"/>
        </g>
        <g id="Layer_181" serif:id="Layer_1" transform="matrix(1,0,0,1,38.2606,-67.0026)">
            <path d="M-37.673,-24.574L-42.588,-21.742L37.673,24.574L42.588,21.742L-37.673,-24.574Z" style="fill:rgb(26,145,160);fill-rule:nonzero;stroke:black;stroke-width:0.02px;stroke-linecap:butt;"/>
        </g>
        <g id="Layer_182" serif:id="Layer_1" transform="matrix(1,0,0,1,32.4712,-63.6289)">
            <path d="M-40.13,-23.158L40.13,23.158L-40.13,-23.158Z" style="fill:rgb(24,104,119);fill-rule:nonzero;stroke:black;stroke-width:0.02px;stroke-linecap:butt;"/>
        </g>
        <g id="Layer_183" serif:id="Layer_1" transform="matrix(1,0,0,1,30.0347,-62.2128)">
            <path d="M-37.694,-24.574L-42.567,-21.742L37.652,24.574L42.567,21.742L-37.694,-24.574Z" style="fill:rgb(26,145,160);fill-rule:nonzero;stroke:black;stroke-width:0.02px;stroke-linecap:butt;"/>
        </g>
        <g transform="matrix(1,0,0,1,-207.456,-237.603)">
            <g id="Layer_184" serif:id="Layer_1">
                <path d="M354.904,179.389L230.244,107.375L61.684,205.337L186.344,277.309L354.904,179.389ZM222.747,137.488L303.007,183.804L292.053,190.176L211.793,143.819L222.747,137.488ZM208.044,146.027L288.305,192.342L283.432,195.174L203.129,148.859L208.044,146.027ZM199.797,150.816L280.058,197.132L275.185,199.964L194.924,153.649L199.797,150.816Z" style="fill:rgb(39,167,190);fill-rule:nonzero;stroke:black;stroke-width:0.02px;"/>
            </g>
        </g>
        <g id="Layer_185" serif:id="Layer_1" transform="matrix(1,0,0,1,-83.4629,20.5467)">
            <path d="M-62.309,-52.813L-62.392,-19.201L62.267,52.813L62.392,19.159L-62.309,-52.813Z" style="fill:rgb(180,183,209);fill-rule:nonzero;stroke:black;stroke-width:0.02px;stroke-linecap:butt;"/>
        </g>
        <g id="Layer_186" serif:id="Layer_1" transform="matrix(1,0,0,1,63.126,7.57259)">
            <path d="M-84.196,32.133L-84.321,65.787L84.238,-32.175L84.321,-65.787L-84.196,32.133Z" style="fill:rgb(232,234,239);fill-rule:nonzero;stroke:black;stroke-width:0.02px;stroke-linecap:butt;"/>
        </g>
        <g id="Layer_187" serif:id="Layer_1" transform="matrix(1,0,0,1,-136.734,-7.33828)">
            <path d="M-4.665,-13.807L-4.748,8.351L-0.791,5.602L4.748,13.807L4.748,-8.351L-4.665,-13.807Z" style="fill:rgb(239,93,117);fill-rule:nonzero;stroke:black;stroke-width:0.02px;stroke-linecap:butt;"/>
        </g>
        <g id="Layer_188" serif:id="Layer_1" transform="matrix(1,0,0,1,-4.49358,-113.151)">
            <path d="M69.64,-59.144L117.996,21.908L-69.64,59.144L-117.996,-21.908L69.64,-59.144Z" style="fill:rgb(255,207,72);fill-rule:nonzero;stroke:black;stroke-width:0.02px;stroke-linecap:butt;"/>
        </g>
        <g id="Layer_189" serif:id="Layer_1" transform="matrix(1,0,0,1,19.6429,-56.1318)">
            <path d="M93.859,-35.111L93.776,-2.124L-93.859,35.111L-93.776,2.124L93.859,-35.111Z" style="fill:rgb(232,234,239);fill-rule:nonzero;stroke:black;stroke-width:0.02px;stroke-linecap:butt;"/>
        </g>
        <g id="Layer_190" serif:id="Layer_1" transform="matrix(1,0,0,1,-98.3529,-78.04)">
            <path d="M24.22,24.032L24.136,57.02L-24.22,-24.074L-24.136,-57.02L24.22,24.032Z" style="fill:rgb(180,183,209);fill-rule:nonzero;stroke:black;stroke-width:0.02px;stroke-linecap:butt;"/>
        </g>
    </g>
    <g transform="matrix(0.26,0,0,0.26,337.073,214.5)">
        <g transform="matrix(1.24763,0,0,1.24763,-359.556,-266.23)">
            <g id="Layer_191" serif:id="Layer_1">
                <path d="M219.165,87.216C217.082,85.925 221.581,236.575 221.581,236.575L292.761,280.849L292.761,133.032" style="fill:rgb(235,169,117);fill-rule:nonzero;stroke:black;stroke-width:0.02px;"/>
            </g>
        </g>
        <g id="Layer_192" serif:id="Layer_1" transform="matrix(1.24763,0,0,1.24763,-58.4227,-45.2525)">
            <path d="M50.314,-41.172L-19.284,-85.363L-50.314,-70.577L-35.653,75.325L15.244,85.363L42.858,78.157L50.314,-41.172Z" style="fill:rgb(255,239,224);fill-rule:nonzero;stroke:black;stroke-width:0.02px;stroke-linecap:butt;"/>
        </g>
        <g id="Layer_193" serif:id="Layer_1" transform="matrix(1.24763,0,0,1.24763,-14.2271,3.64588)">
            <path d="M15.931,-83.322L-15.931,-64.496L-15.931,83.322L15.931,66.62L15.931,-83.322" style="fill:rgb(255,196,132);fill-rule:nonzero;stroke:black;stroke-width:0.02px;stroke-linecap:butt;"/>
        </g>
        <g transform="matrix(1.24763,0,0,1.24763,-359.556,-266.23)">
            <g id="Layer_194" serif:id="Layer_1">
                <path d="M187.594,103.876C185.511,102.585 189.676,255.359 189.676,255.359L260.857,299.634L260.857,151.816" style="fill:rgb(235,169,117);fill-rule:nonzero;stroke:black;stroke-width:0.02px;"/>
            </g>
        </g>
        <g id="Layer_195" serif:id="Layer_1" transform="matrix(1.24763,0,0,1.24763,-10.7715,-6.38322)">
            <path d="M4.79,-37.881L4.79,30.134L-4.79,37.881L-4.79,-31.134L4.79,-37.881Z" style="fill:rgb(255,239,224);fill-rule:nonzero;stroke:black;stroke-width:0.02px;stroke-linecap:butt;"/>
        </g>
        <g id="Layer_196" serif:id="Layer_1" transform="matrix(1.24763,0,0,1.24763,-93.1089,40.6444)">
            <path d="M15.931,-83.322L-15.931,-64.454L-15.931,83.322L15.931,66.62L15.931,-83.322" style="fill:rgb(255,196,132);fill-rule:nonzero;stroke:black;stroke-width:0.02px;stroke-linecap:butt;"/>
        </g>
        <g transform="matrix(1.24763,0,0,1.24763,-359.556,-266.23)">
            <g id="Layer_197" serif:id="Layer_1">
                <path d="M124.368,133.573C122.286,132.282 126.451,285.056 126.451,285.056L197.632,329.33L197.632,181.513" style="fill:rgb(255,181,124);fill-rule:nonzero;stroke:black;stroke-width:0.02px;"/>
            </g>
        </g>
        <g transform="matrix(1.24763,0,0,1.24763,-359.556,-266.23)">
            <g id="Layer_198" serif:id="Layer_1">
                <path d="M172.683,94.13C170.6,92.839 175.099,243.489 175.099,243.489L246.279,287.763L246.279,139.946" style="fill:rgb(0,125,125);fill-rule:nonzero;stroke:black;stroke-width:0.02px;"/>
            </g>
        </g>
        <g id="Layer_199" serif:id="Layer_1" transform="matrix(1.24763,0,0,1.24763,-116.363,-36.6264)">
            <path d="M50.314,-41.172L-19.284,-85.363L-50.314,-70.535L-35.653,75.325L15.244,85.363L42.858,78.157L50.314,-41.172Z" style="fill:rgb(255,239,224);fill-rule:nonzero;stroke:black;stroke-width:0.02px;stroke-linecap:butt;"/>
        </g>
        <g id="Layer_1100" serif:id="Layer_1" transform="matrix(1.24763,0,0,1.24763,-72.1673,12.2719)">
            <path d="M15.931,-83.322L-15.931,-64.496L-15.931,83.322L15.931,66.62L15.931,-83.322" style="fill:rgb(0,149,150);fill-rule:nonzero;stroke:black;stroke-width:0.02px;stroke-linecap:butt;"/>
        </g>
        <g transform="matrix(1.24763,0,0,1.24763,-359.556,-266.23)">
            <g id="Layer_1101" serif:id="Layer_1">
                <path d="M141.153,110.79C139.071,109.499 143.236,262.273 143.236,262.273L214.417,306.548L214.417,158.73" style="fill:rgb(0,125,125);fill-rule:nonzero;stroke:black;stroke-width:0.02px;"/>
            </g>
        </g>
        <g id="Layer_1102" serif:id="Layer_1" transform="matrix(1.24763,0,0,1.24763,-68.7116,2.24284)">
            <path d="M4.79,-37.881L4.79,30.134L-4.79,37.881L-4.79,-31.134L4.79,-37.881Z" style="fill:rgb(255,239,224);fill-rule:nonzero;stroke:black;stroke-width:0.02px;stroke-linecap:butt;"/>
        </g>
        <g transform="matrix(1.24763,0,0,1.24763,-359.556,-266.23)">
            <g id="Layer_1103" serif:id="Layer_1">
                <path d="M155.939,116.871C153.857,115.58 158.355,266.23 158.355,266.23L229.494,310.504L229.494,162.728" style="fill:rgb(224,150,149);fill-rule:nonzero;stroke:black;stroke-width:0.02px;"/>
            </g>
        </g>
        <g id="Layer_1104" serif:id="Layer_1" transform="matrix(1.24763,0,0,1.24763,-137.304,-8.22795)">
            <path d="M50.314,-41.192L-19.284,-85.383L-50.314,-70.556L-35.653,75.304L15.244,85.383L42.858,78.178L50.314,-41.192Z" style="fill:rgb(255,239,224);fill-rule:nonzero;stroke:black;stroke-width:0.02px;stroke-linecap:butt;"/>
        </g>
        <g id="Layer_1105" serif:id="Layer_1" transform="matrix(1.24763,0,0,1.24763,-93.1089,40.6444)">
            <path d="M15.931,-83.322L-15.931,-64.454L-15.931,83.322L15.931,66.62L15.931,-83.322" style="fill:rgb(244,171,166);fill-rule:nonzero;stroke:black;stroke-width:0.02px;stroke-linecap:butt;"/>
        </g>
        <g transform="matrix(1.24763,0,0,1.24763,-359.556,-266.23)">
            <g id="Layer_1106" serif:id="Layer_1">
                <path d="M124.368,133.573C122.286,132.282 126.451,285.056 126.451,285.056L197.632,329.33L197.632,181.513" style="fill:rgb(224,150,149);fill-rule:nonzero;stroke:black;stroke-width:0.02px;"/>
            </g>
        </g>
        <g id="Layer_1107" serif:id="Layer_1" transform="matrix(1.24763,0,0,1.24763,-89.6532,30.6153)">
            <path d="M4.79,-37.881L4.79,30.134L-4.79,37.881L-4.79,-31.134L4.79,-37.881Z" style="fill:rgb(255,239,224);fill-rule:nonzero;stroke:black;stroke-width:0.02px;stroke-linecap:butt;"/>
        </g>
    </g>
    <g transform="matrix(0.26,0,0,0.26,104.251,336.215)">
        <g id="Layer_1108" serif:id="Layer_1" transform="matrix(1.50057,0,0,1.50057,471.892,-1031.06)">
            <clipPath id="_clip2">
                <path d="M1.437,-0.916L4.061,0.625C3.27,0.167 2.187,0.25 1.02,0.916L-1.604,-0.625C-0.396,-1.291 0.687,-1.374 1.437,-0.916Z"/>
            </clipPath>
            <g clip-path="url(#_clip2)">
                <g transform="matrix(1,0,0,1,-212.98,-98.0452)">
                    <path d="M214,98.962L211.376,97.42C211.584,97.296 211.793,97.212 211.959,97.129L214.583,98.67C214.417,98.753 214.208,98.837 214,98.962" style="fill:rgb(80,54,74);fill-rule:nonzero;stroke:black;stroke-width:0.02px;"/>
                </g>
            </g>
        </g>
        <g id="Layer_1109" serif:id="Layer_1" transform="matrix(1.50057,0,0,1.50057,472.705,-1031.4)">
            <clipPath id="_clip3">
                <path d="M0.895,-0.687L3.519,0.854C2.728,0.396 1.645,0.479 0.479,1.145L-2.145,-0.396C-0.937,-1.062 0.146,-1.145 0.895,-0.687Z"/>
            </clipPath>
            <g clip-path="url(#_clip3)">
                <g transform="matrix(1,0,0,1,-213.521,-97.8162)">
                    <path d="M214.583,98.67L211.959,97.129C212.126,97.046 212.293,97.004 212.459,96.962L215.083,98.503C214.958,98.545 214.792,98.587 214.583,98.67" style="fill:rgb(78,52,73);fill-rule:nonzero;stroke:black;stroke-width:0.02px;"/>
                </g>
            </g>
        </g>
        <g id="Layer_1110" serif:id="Layer_1" transform="matrix(1.50057,0,0,1.50057,473.361,-1031.59)">
            <clipPath id="_clip4">
                <path d="M0.458,-0.562L3.082,0.979C2.291,0.521 1.208,0.604 0.042,1.27L-2.582,-0.271C-1.374,-0.937 -0.292,-1.02 0.458,-0.562Z"/>
            </clipPath>
            <g clip-path="url(#_clip4)">
                <g transform="matrix(1,0,0,1,-213.959,-97.6912)">
                    <path d="M215.083,98.503L212.459,96.962C212.584,96.921 212.709,96.921 212.834,96.879L215.458,98.42C215.375,98.42 215.25,98.462 215.083,98.503" style="fill:rgb(76,51,71);fill-rule:nonzero;stroke:black;stroke-width:0.02px;"/>
                </g>
            </g>
        </g>
        <g id="Layer_1111" serif:id="Layer_1" transform="matrix(1.50057,0,0,1.50057,473.955,-1031.68)">
            <clipPath id="_clip5">
                <path d="M0.062,-0.5L2.686,1.041C1.895,0.583 0.812,0.666 -0.354,1.333L-2.978,-0.208C-1.77,-0.875 -0.687,-0.958 0.062,-0.5Z"/>
            </clipPath>
            <g clip-path="url(#_clip5)">
                <g transform="matrix(1,0,0,1,-214.354,-97.6287)">
                    <path d="M215.5,98.42L212.876,96.879C213.001,96.879 213.084,96.837 213.209,96.837L215.833,98.378C215.708,98.378 215.583,98.378 215.5,98.42" style="fill:rgb(74,50,69);fill-rule:nonzero;stroke:black;stroke-width:0.02px;"/>
                </g>
            </g>
        </g>
        <g id="Layer_1112" serif:id="Layer_1" transform="matrix(1.50057,0,0,1.50057,474.361,-1031.72)">
            <clipPath id="_clip6">
                <path d="M-0.208,-0.479L2.416,1.062C1.624,0.604 0.541,0.687 -0.625,1.354L-3.249,-0.187C-2.041,-0.854 -0.958,-0.937 -0.208,-0.479Z"/>
            </clipPath>
            <g clip-path="url(#_clip6)">
                <g transform="matrix(1,0,0,1,-214.625,-97.6079)">
                    <path d="M215.791,98.378L213.167,96.837L213.459,96.837L216.083,98.378L215.791,98.378" style="fill:rgb(72,48,67);fill-rule:nonzero;stroke:black;stroke-width:0.02px;"/>
                </g>
            </g>
        </g>
        <g id="Layer_1113" serif:id="Layer_1" transform="matrix(1.50057,0,0,1.50057,474.767,-1031.68)">
            <clipPath id="_clip7">
                <path d="M-0.479,-0.5L2.145,1.041C1.354,0.583 0.271,0.666 -0.895,1.333L-3.519,-0.208C-2.312,-0.875 -1.229,-0.958 -0.479,-0.5Z"/>
            </clipPath>
            <g clip-path="url(#_clip7)">
                <g transform="matrix(1,0,0,1,-214.896,-97.6287)">
                    <path d="M216.083,98.378L213.459,96.837C213.542,96.837 213.625,96.837 213.709,96.879L216.333,98.42C216.249,98.378 216.166,98.378 216.083,98.378" style="fill:rgb(70,47,65);fill-rule:nonzero;stroke:black;stroke-width:0.02px;"/>
                </g>
            </g>
        </g>
        <g id="Layer_1114" serif:id="Layer_1" transform="matrix(1.50057,0,0,1.50057,475.142,-1031.62)">
            <clipPath id="_clip8">
                <path d="M-0.729,-0.541L1.895,1C1.104,0.541 0.021,0.625 -1.145,1.291L-3.769,-0.25C-2.562,-0.916 -1.479,-1 -0.729,-0.541Z"/>
            </clipPath>
            <g clip-path="url(#_clip8)">
                <g transform="matrix(1,0,0,1,-215.146,-97.6704)">
                    <path d="M216.333,98.42L213.709,96.879C213.792,96.879 213.875,96.921 213.959,96.921L216.583,98.462C216.499,98.42 216.416,98.42 216.333,98.42" style="fill:rgb(68,46,63);fill-rule:nonzero;stroke:black;stroke-width:0.02px;"/>
                </g>
            </g>
        </g>
        <g id="Layer_1115" serif:id="Layer_1" transform="matrix(1.50057,0,0,1.50057,475.486,-1031.53)">
            <clipPath id="_clip9">
                <path d="M-0.958,-0.604L1.666,0.937C0.875,0.479 -0.208,0.562 -1.374,1.229L-3.998,-0.312C-2.791,-0.979 -1.708,-1.062 -0.958,-0.604Z"/>
            </clipPath>
            <g clip-path="url(#_clip9)">
                <g transform="matrix(1,0,0,1,-215.375,-97.7329)">
                    <path d="M216.583,98.462L213.959,96.921C214.042,96.962 214.125,96.962 214.167,97.004L216.791,98.545C216.749,98.503 216.666,98.462 216.583,98.462" style="fill:rgb(66,44,61);fill-rule:nonzero;stroke:black;stroke-width:0.02px;"/>
                </g>
            </g>
        </g>
        <g id="Layer_1116" serif:id="Layer_1" transform="matrix(1.50057,0,0,1.50057,475.798,-1031.37)">
            <clipPath id="_clip10">
                <path d="M-1.166,-0.708L1.458,0.833C0.666,0.375 -0.417,0.458 -1.583,1.125L-4.207,-0.417C-2.999,-1.083 -1.916,-1.166 -1.166,-0.708Z"/>
            </clipPath>
            <g clip-path="url(#_clip10)">
                <g transform="matrix(1,0,0,1,-215.583,-97.837)">
                    <path d="M216.791,98.545L214.167,97.004C214.25,97.046 214.292,97.087 214.375,97.129L216.999,98.67C216.957,98.587 216.874,98.587 216.791,98.545" style="fill:rgb(64,43,60);fill-rule:nonzero;stroke:black;stroke-width:0.02px;"/>
                </g>
            </g>
        </g>
        <g id="Layer_1117" serif:id="Layer_1" transform="matrix(1.50057,0,0,1.50057,475.98,-1031.33)">
            <clipPath id="_clip11">
                <path d="M-1.287,-0.737L1.337,0.804C0.546,0.346 -0.537,0.429 -1.704,1.095L-4.327,-0.446C-3.12,-1.112 -2.037,-1.195 -1.287,-0.737Z"/>
            </clipPath>
            <g clip-path="url(#_clip11)">
                <g transform="matrix(1,0,0,1,-215.704,-97.8661)">
                    <path d="M216.999,98.628L214.375,97.087L214.417,97.087L216.999,98.628C217.041,98.67 217.041,98.628 216.999,98.628" style="fill:rgb(62,42,58);fill-rule:nonzero;stroke:black;stroke-width:0.02px;"/>
                </g>
            </g>
        </g>
        <g id="Layer_1118" serif:id="Layer_1" transform="matrix(1.50057,0,0,1.50057,347.799,-857.217)">
            <path d="M1.499,68.786L-1.125,67.286L-1.499,-68.786L1.125,-67.245L1.499,68.786Z" style="fill:rgb(53,36,50);fill-rule:nonzero;stroke:black;stroke-width:0.02px;stroke-linecap:butt;"/>
        </g>
        <g id="Layer_1119" serif:id="Layer_1" transform="matrix(1.50057,0,0,1.50057,409.486,-995.06)">
            <path d="M-39.984,24.615L-42.608,23.074L39.984,-24.615L42.608,-23.074L-39.984,24.615Z" style="fill:rgb(81,37,117);fill-rule:nonzero;stroke:black;stroke-width:0.02px;stroke-linecap:butt;"/>
        </g>
        <g transform="matrix(1.50057,0,0,1.50057,152.3,-1178.18)">
            <g id="Layer_1120" serif:id="Layer_1">
                <path d="M214,98.962C216.374,97.587 218.29,98.67 218.29,101.419L218.665,227.62C218.665,230.327 216.749,233.659 214.417,234.992L131.782,282.682L131.407,146.651L214,98.962Z" style="fill:rgb(115,53,166);fill-rule:nonzero;stroke:black;stroke-width:0.02px;"/>
            </g>
        </g>
        <g id="Layer_1121" serif:id="Layer_1" transform="matrix(1.50057,0,0,1.50057,365.924,-847.779)">
            <path d="M9.33,71.077L-8.955,60.414L-9.33,-71.077L8.955,-60.456L9.33,71.077Z" style="fill:rgb(222,222,222);fill-rule:nonzero;stroke:black;stroke-width:0.02px;stroke-linecap:butt;"/>
        </g>
        <g transform="matrix(1.50057,0,0,1.50057,152.3,-1178.18)">
            <g id="Layer_1122" serif:id="Layer_1">
                <path d="M215.166,103.793C215.041,103.71 214.917,103.668 214.833,103.626C214.833,103.626 214.792,103.626 214.792,103.585C214.75,103.585 214.708,103.543 214.667,103.543C214.625,103.543 214.542,103.501 214.5,103.501C214.458,103.501 214.375,103.46 214.333,103.46C214.292,103.46 214.25,103.46 214.208,103.418L214.167,103.418C214.042,103.377 213.917,103.377 213.792,103.377L212.917,103.377C212.876,103.377 212.792,103.418 212.751,103.418C212.667,103.418 212.584,103.46 212.501,103.46C212.459,103.46 212.417,103.46 212.376,103.501C212.334,103.501 212.293,103.543 212.251,103.543C212.126,103.585 211.959,103.626 211.793,103.71C211.751,103.71 211.709,103.751 211.626,103.751C211.584,103.751 211.584,103.793 211.543,103.793C211.293,103.918 211.001,104.043 210.751,104.168L133.032,149.109L151.358,159.771L229.078,114.914C229.328,114.747 229.619,114.622 229.869,114.539C229.952,114.497 230.036,114.456 230.119,114.456C230.286,114.414 230.41,114.331 230.577,114.289C230.66,114.247 230.785,114.247 230.869,114.206C230.952,114.164 231.035,114.164 231.119,114.164C231.243,114.122 231.327,114.122 231.452,114.122L232.16,114.122C232.326,114.122 232.493,114.164 232.618,114.164C232.66,114.164 232.701,114.164 232.743,114.206C232.868,114.247 232.993,114.247 233.076,114.289C233.118,114.289 233.159,114.331 233.201,114.331C233.326,114.372 233.493,114.456 233.618,114.539L215.166,103.793Z" style="fill:rgb(230,230,230);fill-rule:nonzero;stroke:black;stroke-width:0.02px;"/>
            </g>
        </g>
        <g transform="matrix(1.50057,0,0,1.50057,152.3,-1178.18)">
            <g id="Layer_1123" serif:id="Layer_1">
                <path d="M229.036,114.872C232.493,112.873 235.325,114.497 235.325,118.454L235.658,235.575C235.658,239.532 232.868,244.405 229.411,246.404L151.691,291.262L151.316,159.73L229.036,114.872Z" style="fill:white;fill-rule:nonzero;stroke:black;stroke-width:0.02px;"/>
            </g>
        </g>
        <g id="Layer_1124" serif:id="Layer_1" transform="matrix(1.50057,0,0,1.50057,505.205,-1010.37)">
            <clipPath id="_clip12">
                <path d="M1.437,-0.875L4.061,0.666C3.27,0.208 2.187,0.292 1.02,0.958L-1.604,-0.583C-0.396,-1.291 0.646,-1.333 1.437,-0.875Z"/>
            </clipPath>
            <g clip-path="url(#_clip12)">
                <g transform="matrix(1,0,0,1,-235.179,-111.832)">
                    <path d="M236.2,112.748L233.576,111.207C233.784,111.082 233.992,110.999 234.159,110.915L236.783,112.456C236.616,112.54 236.408,112.623 236.2,112.748" style="fill:rgb(80,54,74);fill-rule:nonzero;stroke:black;stroke-width:0.02px;"/>
                </g>
            </g>
        </g>
        <g id="Layer_1125" serif:id="Layer_1" transform="matrix(1.50057,0,0,1.50057,506.017,-1010.72)">
            <clipPath id="_clip13">
                <path d="M0.895,-0.646L3.519,0.895C2.728,0.437 1.645,0.521 0.479,1.187L-2.145,-0.354C-0.937,-1.062 0.104,-1.104 0.895,-0.646Z"/>
            </clipPath>
            <g clip-path="url(#_clip13)">
                <g transform="matrix(1,0,0,1,-235.721,-111.602)">
                    <path d="M236.783,112.456L234.159,110.915C234.326,110.832 234.492,110.79 234.659,110.749L237.283,112.29C237.116,112.331 236.95,112.373 236.783,112.456" style="fill:rgb(78,52,73);fill-rule:nonzero;stroke:black;stroke-width:0.02px;"/>
                </g>
            </g>
        </g>
        <g id="Layer_1126" serif:id="Layer_1" transform="matrix(1.50057,0,0,1.50057,506.673,-1010.9)">
            <clipPath id="_clip14">
                <path d="M0.458,-0.521L3.082,1.02C2.291,0.562 1.208,0.646 0.042,1.312L-2.582,-0.229C-1.374,-0.937 -0.333,-0.979 0.458,-0.521Z"/>
            </clipPath>
            <g clip-path="url(#_clip14)">
                <g transform="matrix(1,0,0,1,-236.158,-111.478)">
                    <path d="M237.283,112.29L234.659,110.749C234.784,110.707 234.909,110.707 235.034,110.665L237.658,112.206C237.533,112.206 237.408,112.248 237.283,112.29" style="fill:rgb(76,51,71);fill-rule:nonzero;stroke:black;stroke-width:0.02px;"/>
                </g>
            </g>
        </g>
        <g id="Layer_1127" serif:id="Layer_1" transform="matrix(1.50057,0,0,1.50057,507.205,-1011)">
            <clipPath id="_clip15">
                <path d="M0.104,-0.458L2.728,1.083C1.937,0.625 0.854,0.708 -0.312,1.374L-2.936,-0.167C-1.728,-0.875 -0.687,-0.916 0.104,-0.458Z"/>
            </clipPath>
            <g clip-path="url(#_clip15)">
                <g transform="matrix(1,0,0,1,-236.512,-111.415)">
                    <path d="M237.658,112.206L235.034,110.665C235.159,110.665 235.242,110.624 235.367,110.624L237.991,112.165C237.908,112.165 237.783,112.206 237.658,112.206" style="fill:rgb(74,50,69);fill-rule:nonzero;stroke:black;stroke-width:0.02px;"/>
                </g>
            </g>
        </g>
        <g id="Layer_1128" serif:id="Layer_1" transform="matrix(1.50057,0,0,1.50057,507.673,-1011.03)">
            <clipPath id="_clip16">
                <path d="M-0.208,-0.437L2.416,1.104C1.624,0.646 0.541,0.729 -0.625,1.395L-3.249,-0.146C-2.041,-0.854 -1,-0.895 -0.208,-0.437Z"/>
            </clipPath>
            <g clip-path="url(#_clip16)">
                <g transform="matrix(1,0,0,1,-236.825,-111.394)">
                    <path d="M237.991,112.165L235.367,110.624L235.658,110.624L238.282,112.165L237.991,112.165" style="fill:rgb(72,48,67);fill-rule:nonzero;stroke:black;stroke-width:0.02px;"/>
                </g>
            </g>
        </g>
        <g id="Layer_1129" serif:id="Layer_1" transform="matrix(1.50057,0,0,1.50057,508.08,-1011)">
            <clipPath id="_clip17">
                <path d="M-0.479,-0.458L2.145,1.083C1.354,0.625 0.271,0.708 -0.895,1.374L-3.519,-0.167C-2.312,-0.875 -1.27,-0.916 -0.479,-0.458Z"/>
            </clipPath>
            <g clip-path="url(#_clip17)">
                <g transform="matrix(1,0,0,1,-237.095,-111.415)">
                    <path d="M238.282,112.165L235.658,110.624C235.742,110.624 235.825,110.624 235.908,110.665L238.532,112.206C238.449,112.206 238.366,112.165 238.282,112.165" style="fill:rgb(70,47,65);fill-rule:nonzero;stroke:black;stroke-width:0.02px;"/>
                </g>
            </g>
        </g>
        <g id="Layer_1130" serif:id="Layer_1" transform="matrix(1.50057,0,0,1.50057,508.455,-1010.93)">
            <clipPath id="_clip18">
                <path d="M-0.729,-0.5L1.895,1.041C1.104,0.583 0.021,0.666 -1.145,1.333L-3.769,-0.208C-2.562,-0.916 -1.52,-0.958 -0.729,-0.5Z"/>
            </clipPath>
            <g clip-path="url(#_clip18)">
                <g transform="matrix(1,0,0,1,-237.345,-111.457)">
                    <path d="M238.532,112.206L235.908,110.665C235.992,110.665 236.075,110.707 236.158,110.707L238.782,112.248C238.699,112.248 238.616,112.206 238.532,112.206" style="fill:rgb(68,46,63);fill-rule:nonzero;stroke:black;stroke-width:0.02px;"/>
                </g>
            </g>
        </g>
        <g id="Layer_1131" serif:id="Layer_1" transform="matrix(1.50057,0,0,1.50057,508.798,-1010.84)">
            <clipPath id="_clip19">
                <path d="M-0.958,-0.562L1.666,0.979C0.875,0.521 -0.208,0.604 -1.374,1.27L-3.998,-0.271C-2.791,-0.979 -1.749,-1.02 -0.958,-0.562Z"/>
            </clipPath>
            <g clip-path="url(#_clip19)">
                <g transform="matrix(1,0,0,1,-237.574,-111.519)">
                    <path d="M238.782,112.248L236.158,110.707C236.242,110.749 236.325,110.749 236.367,110.79L238.99,112.331C238.949,112.331 238.866,112.29 238.782,112.248" style="fill:rgb(66,44,61);fill-rule:nonzero;stroke:black;stroke-width:0.02px;"/>
                </g>
            </g>
        </g>
        <g id="Layer_1132" serif:id="Layer_1" transform="matrix(1.50057,0,0,1.50057,509.111,-1010.68)">
            <clipPath id="_clip20">
                <path d="M-1.166,-0.666L1.458,0.875C0.666,0.417 -0.417,0.5 -1.583,1.166L-4.207,-0.375C-2.999,-1.083 -1.958,-1.125 -1.166,-0.666Z"/>
            </clipPath>
            <g clip-path="url(#_clip20)">
                <g transform="matrix(1,0,0,1,-237.783,-111.623)">
                    <path d="M238.99,112.331L236.367,110.79C236.45,110.832 236.491,110.874 236.575,110.915L239.199,112.456C239.157,112.415 239.074,112.373 238.99,112.331" style="fill:rgb(64,43,60);fill-rule:nonzero;stroke:black;stroke-width:0.02px;"/>
                </g>
            </g>
        </g>
        <g id="Layer_1133" serif:id="Layer_1" transform="matrix(1.50057,0,0,1.50057,509.292,-1010.59)">
            <clipPath id="_clip21">
                <path d="M-1.287,-0.729L1.337,0.812C0.546,0.354 -0.537,0.437 -1.704,1.104L-4.327,-0.437C-3.12,-1.145 -2.078,-1.187 -1.287,-0.729Z"/>
            </clipPath>
            <g clip-path="url(#_clip21)">
                <g transform="matrix(1,0,0,1,-237.903,-111.686)">
                    <path d="M239.199,112.456L236.575,110.915L236.616,110.915L239.199,112.456" style="fill:rgb(62,42,58);fill-rule:nonzero;stroke:black;stroke-width:0.02px;"/>
                </g>
            </g>
        </g>
        <g id="Layer_1134" serif:id="Layer_1" transform="matrix(1.50057,0,0,1.50057,381.111,-836.467)">
            <path d="M1.499,68.786L-1.125,67.245L-1.499,-68.786L1.125,-67.286L1.499,68.786Z" style="fill:rgb(53,36,50);fill-rule:nonzero;stroke:black;stroke-width:0.02px;stroke-linecap:butt;"/>
        </g>
        <g id="Layer_1135" serif:id="Layer_1" transform="matrix(1.50057,0,0,1.50057,442.799,-974.341)">
            <path d="M-39.984,24.595L-42.608,23.095L39.984,-24.595L42.608,-23.095L-39.984,24.595Z" style="fill:rgb(81,37,117);fill-rule:nonzero;stroke:black;stroke-width:0.02px;stroke-linecap:butt;"/>
        </g>
        <g transform="matrix(1.50057,0,0,1.50057,152.3,-1178.18)">
            <g id="Layer_1136" serif:id="Layer_1">
                <path d="M236.2,112.748C238.574,111.373 240.49,112.456 240.49,115.205L240.865,241.406C240.865,244.113 238.949,247.446 236.575,248.778L153.982,296.51L153.607,160.479L236.2,112.748Z" style="fill:rgb(115,53,166);fill-rule:nonzero;stroke:black;stroke-width:0.02px;"/>
            </g>
        </g>
        <g id="Layer_1137" serif:id="Layer_1" transform="matrix(1.50057,0,0,1.50057,364.518,-846.842)">
            <path d="M-12.558,-75.7L12.058,-60.372L12.558,75.7L-12.266,60.372L-12.558,-75.7Z" style="fill:rgb(81,37,117);fill-rule:nonzero;stroke:black;stroke-width:0.02px;stroke-linecap:butt;"/>
        </g>
        <g id="Layer_1138" serif:id="Layer_1" transform="matrix(1.50057,0,0,1.50057,367.143,-950.716)">
            <path d="M-10.35,-8.851L14.39,6.393L10.225,8.851L-14.39,-6.435L-10.35,-8.851Z" style="fill:rgb(81,37,117);fill-rule:nonzero;stroke:black;stroke-width:0.02px;stroke-linecap:butt;"/>
        </g>
        <g transform="matrix(1.50057,0,0,1.50057,152.3,-1178.18)">
            <g id="Layer_1139" serif:id="Layer_1">
                <path d="M133.323,172.475L133.323,271.603C133.323,274.185 134.614,276.559 136.78,277.975C141.862,281.307 148.567,277.684 148.567,271.603L148.567,172.475C148.567,169.726 147.11,167.185 144.694,165.852C139.612,162.937 133.323,166.644 133.323,172.475Z" style="fill:rgb(71,33,102);fill-rule:nonzero;stroke:black;stroke-width:0.02px;"/>
            </g>
        </g>
        <g id="Layer_1140" serif:id="Layer_1" transform="matrix(1.50057,0,0,1.50057,418.143,-823.498)">
            <path d="M1.52,68.765L-1.104,67.266L-1.52,-68.765L1.104,-67.266L1.52,68.765Z" style="fill:rgb(53,36,50);fill-rule:nonzero;stroke:black;stroke-width:0.02px;stroke-linecap:butt;"/>
        </g>
        <g transform="matrix(1.50057,0,0,1.50057,152.3,-1178.18)">
            <g id="Layer_1141" serif:id="Layer_1">
                <path d="M261.315,119.579L261.065,119.454C260.982,119.412 260.899,119.412 260.857,119.37C260.815,119.37 260.774,119.329 260.69,119.329L260.607,119.329C260.524,119.329 260.44,119.287 260.357,119.287L259.774,119.287C259.649,119.287 259.524,119.329 259.399,119.37C259.358,119.37 259.274,119.412 259.233,119.412C259.191,119.412 259.149,119.454 259.066,119.454C258.983,119.495 258.941,119.495 258.858,119.537C258.65,119.62 258.441,119.703 258.275,119.828L175.64,167.602L178.264,169.143L260.857,121.453L259.566,120.703L260.857,121.453C261.107,121.286 261.398,121.161 261.648,121.078C261.69,121.078 261.732,121.036 261.815,121.036C262.065,120.953 262.273,120.911 262.523,120.87L262.565,120.87C262.815,120.87 263.023,120.87 263.273,120.911L263.314,120.911C263.523,120.953 263.731,121.036 263.939,121.161L261.315,119.579Z" style="fill:rgb(217,103,127);fill-rule:nonzero;stroke:black;stroke-width:0.02px;"/>
            </g>
        </g>
        <g transform="matrix(1.50057,0,0,1.50057,152.3,-1178.18)">
            <g id="Layer_1142" serif:id="Layer_1">
                <path d="M260.857,121.411C263.231,120.037 265.147,121.12 265.147,123.869L265.522,250.07C265.522,252.777 263.606,256.109 261.273,257.442L178.681,305.131L178.264,169.101L260.857,121.411Z" style="fill:rgb(255,121,149);fill-rule:nonzero;stroke:black;stroke-width:0.02px;"/>
            </g>
        </g>
        <g id="Layer_1143" serif:id="Layer_1" transform="matrix(1.50057,0,0,1.50057,436.267,-814.092)">
            <path d="M9.351,71.077L-8.976,60.414L-9.351,-71.077L8.976,-60.456L9.351,71.077Z" style="fill:rgb(222,222,222);fill-rule:nonzero;stroke:black;stroke-width:0.02px;stroke-linecap:butt;"/>
        </g>
        <g transform="matrix(1.50057,0,0,1.50057,152.3,-1178.18)">
            <g id="Layer_1144" serif:id="Layer_1">
                <path d="M262.065,126.243C262.065,126.243 262.023,126.243 262.065,126.243C261.94,126.159 261.815,126.118 261.732,126.076C261.732,126.076 261.69,126.076 261.69,126.034C261.648,126.034 261.607,125.993 261.565,125.993C261.523,125.993 261.44,125.951 261.398,125.951C261.357,125.951 261.273,125.909 261.232,125.909C261.19,125.909 261.149,125.909 261.107,125.868L261.065,125.868C260.94,125.826 260.815,125.826 260.69,125.826L259.816,125.826C259.774,125.826 259.691,125.868 259.649,125.868C259.566,125.868 259.483,125.909 259.399,125.909C259.358,125.909 259.316,125.909 259.274,125.951C259.233,125.951 259.191,125.993 259.149,125.993C259.024,126.034 258.858,126.076 258.691,126.159C258.65,126.159 258.608,126.201 258.525,126.201C258.483,126.201 258.483,126.243 258.441,126.243C258.191,126.368 257.9,126.493 257.65,126.617L179.888,171.558L198.215,182.221L275.934,137.363C276.184,137.197 276.476,137.072 276.726,136.988C276.809,136.947 276.892,136.905 276.976,136.905C277.142,136.863 277.267,136.78 277.434,136.739C277.517,136.697 277.642,136.697 277.725,136.655C277.809,136.655 277.892,136.614 277.975,136.614C278.1,136.572 278.184,136.572 278.309,136.572L279.017,136.572C279.183,136.572 279.35,136.614 279.475,136.614C279.516,136.614 279.558,136.614 279.6,136.655C279.725,136.697 279.85,136.697 279.933,136.739C279.975,136.739 280.016,136.78 280.058,136.78C280.183,136.822 280.349,136.905 280.474,136.988L262.065,126.243Z" style="fill:rgb(230,230,230);fill-rule:nonzero;stroke:black;stroke-width:0.02px;"/>
            </g>
        </g>
        <g transform="matrix(1.50057,0,0,1.50057,152.3,-1178.18)">
            <g id="Layer_1145" serif:id="Layer_1">
                <path d="M275.934,137.322C279.391,135.322 282.224,136.947 282.224,140.904L282.557,258.025C282.557,261.982 279.766,266.855 276.309,268.854L198.59,313.711L198.215,182.179L275.934,137.322Z" style="fill:white;fill-rule:nonzero;stroke:black;stroke-width:0.02px;"/>
            </g>
        </g>
        <g id="Layer_1146" serif:id="Layer_1" transform="matrix(1.50057,0,0,1.50057,451.424,-802.779)">
            <path d="M1.499,68.786L-1.125,67.245L-1.499,-68.786L1.125,-67.245L1.499,68.786Z" style="fill:rgb(53,36,50);fill-rule:nonzero;stroke:black;stroke-width:0.02px;stroke-linecap:butt;"/>
        </g>
        <g transform="matrix(1.50057,0,0,1.50057,152.3,-1178.18)">
            <g id="Layer_1147" serif:id="Layer_1">
                <path d="M283.515,133.407L283.265,133.282C283.182,133.24 283.098,133.24 283.057,133.198C283.015,133.198 282.973,133.157 282.89,133.157L282.807,133.157C282.723,133.157 282.64,133.115 282.557,133.115L281.974,133.115C281.849,133.115 281.724,133.157 281.599,133.198C281.557,133.198 281.474,133.24 281.432,133.24C281.391,133.24 281.349,133.282 281.266,133.282C281.182,133.323 281.141,133.323 281.057,133.365C280.849,133.448 280.641,133.531 280.474,133.656L197.84,181.388L200.464,182.929L283.057,135.239C283.307,135.073 283.598,134.948 283.848,134.864C283.89,134.864 283.931,134.823 284.015,134.823C284.265,134.739 284.473,134.698 284.723,134.656L284.764,134.656C285.014,134.656 285.223,134.656 285.472,134.698L285.514,134.698C285.722,134.739 285.931,134.823 286.139,134.948L283.515,133.407Z" style="fill:rgb(217,103,127);fill-rule:nonzero;stroke:black;stroke-width:0.02px;"/>
            </g>
        </g>
        <g transform="matrix(1.50057,0,0,1.50057,152.3,-1178.18)">
            <g id="Layer_1148" serif:id="Layer_1">
                <path d="M283.057,135.239C285.431,133.865 287.347,134.948 287.347,137.697L287.722,263.897C287.722,266.605 285.806,269.937 283.432,271.27L200.839,318.959L200.464,182.929L283.057,135.239Z" style="fill:rgb(255,121,149);fill-rule:nonzero;stroke:black;stroke-width:0.02px;"/>
            </g>
        </g>
        <g id="Layer_1149" serif:id="Layer_1" transform="matrix(1.50057,0,0,1.50057,434.767,-812.811)">
            <path d="M-12.433,-76.179L12.433,-60.726L12.433,76.179L-12.433,60.102L-12.433,-76.179Z" style="fill:rgb(217,103,127);fill-rule:nonzero;stroke:black;stroke-width:0.02px;stroke-linecap:butt;"/>
        </g>
        <g id="Layer_1150" serif:id="Layer_1" transform="matrix(1.50057,0,0,1.50057,437.924,-917.341)">
            <path d="M-10.454,-8.934L14.536,6.477L10.329,8.934L-14.536,-6.518L-10.454,-8.934Z" style="fill:rgb(217,103,127);fill-rule:nonzero;stroke:black;stroke-width:0.02px;stroke-linecap:butt;"/>
        </g>
        <g transform="matrix(1.50057,0,0,1.50057,152.3,-1178.18)">
            <g id="Layer_1151" serif:id="Layer_1">
                <path d="M188.26,186.886C191.759,188.927 194.591,193.8 194.591,197.798C194.591,201.838 191.717,203.421 188.219,201.422C184.72,199.423 181.888,194.508 181.929,190.509C181.929,186.469 184.762,184.845 188.26,186.886Z" style="fill:white;fill-rule:nonzero;stroke:black;stroke-width:0.02px;"/>
            </g>
        </g>
        <g transform="matrix(1.50057,0,0,1.50057,152.3,-1178.18)">
            <g id="Layer_1152" serif:id="Layer_1">
                <path d="M188.26,236.2C191.759,238.241 194.591,243.114 194.591,247.112C194.591,251.152 191.717,252.735 188.219,250.736C184.72,248.737 181.888,243.822 181.929,239.823C181.929,235.825 184.762,234.201 188.26,236.2Z" style="fill:white;fill-rule:nonzero;stroke:black;stroke-width:0.02px;"/>
            </g>
        </g>
        <g transform="matrix(1.50057,0,0,1.50057,152.3,-1178.18)">
            <g id="Layer_1153" serif:id="Layer_1">
                <path d="M188.26,280.266C191.759,282.307 194.591,287.18 194.591,291.179C194.591,295.219 191.717,296.801 188.219,294.802C184.72,292.803 181.888,287.888 181.929,283.89C181.929,279.85 184.762,278.225 188.26,280.266Z" style="fill:white;fill-rule:nonzero;stroke:black;stroke-width:0.02px;"/>
            </g>
        </g>
        <g id="Layer_1154" serif:id="Layer_1" transform="matrix(1.50057,0,0,1.50057,522.923,-891.279)">
            <path d="M-37.069,-5.185L-37.069,47.961L37.069,4.811L37.069,-47.961L-37.069,-5.185Z" style="fill:white;fill-rule:nonzero;stroke:black;stroke-width:0.02px;stroke-linecap:butt;"/>
        </g>
    </g>
    <g transform="matrix(0.26,0,0,0.26,93.2596,215.5)">
        <g transform="matrix(1.18572,0,0,1.18572,-142.57,-275.659)">
            <g id="Layer_1155" serif:id="Layer_1">
                <path d="M211.876,233.659C211.876,247.945 201.922,253.776 189.593,246.696C177.306,239.657 167.31,222.372 167.31,208.086C167.31,193.841 177.264,187.969 189.593,195.008C201.88,202.088 211.834,219.373 211.876,233.659" style="fill:rgb(223,149,48);fill-rule:nonzero;stroke:black;stroke-width:0.02px;"/>
            </g>
        </g>
        <g transform="matrix(1.18572,0,0,1.18572,-142.57,-275.659)">
            <g id="Layer_1156" serif:id="Layer_1">
                <path d="M127.784,287.347C127.784,305.756 114.955,313.295 99.045,304.173C83.176,295.094 70.306,272.811 70.306,254.401C70.306,236.033 83.134,228.453 99.003,237.574C114.914,246.696 127.784,268.979 127.784,287.347" style="fill:rgb(170,190,235);fill-rule:nonzero;stroke:black;stroke-width:0.02px;"/>
            </g>
        </g>
        <g transform="matrix(1.18572,0,0,1.18572,-142.57,-275.659)">
            <g id="Layer_1157" serif:id="Layer_1">
                <path d="M315.919,112.29C331.829,121.411 344.658,143.694 344.699,162.062C344.699,171.892 341.034,178.597 335.161,181.346L231.41,229.036L119.703,305.84C124.702,302.716 127.784,296.343 127.784,287.347C127.784,268.979 114.914,246.696 99.003,237.574C92.797,234.034 87.091,233.034 82.385,234.242L172.1,197.007C197.382,186.511 220.914,172.308 241.989,154.815L292.886,112.581C298.093,107.417 306.464,106.875 315.919,112.29Z" style="fill:rgb(210,221,244);fill-rule:nonzero;stroke:black;stroke-width:0.02px;"/>
            </g>
        </g>
        <g transform="matrix(1.18572,0,0,1.18572,-142.57,-275.659)">
            <g id="Layer_1158" serif:id="Layer_1">
                <path d="M118.954,306.298C118.912,306.298 118.954,306.298 118.954,306.298Z" style="fill:rgb(119,121,189);fill-rule:nonzero;stroke:black;stroke-width:0.02px;"/>
            </g>
        </g>
        <g id="Layer_1159" serif:id="Layer_1" transform="matrix(1.18572,0,0,1.18572,-28.7851,46.1941)">
            <clipPath id="_clip22">
                <path d="M31.821,15.906C31.821,34.316 18.993,41.855 3.082,32.733C0.167,31.067 -2.624,28.943 -5.248,26.527C-5.706,26.319 -6.123,26.111 -6.581,25.819C-18.16,19.197 -27.573,2.911 -27.573,-10.5C-27.573,-14.249 -26.823,-17.331 -25.532,-19.746C-24.324,-36.115 -11.995,-42.488 3.04,-33.866C18.951,-24.745 31.821,-2.462 31.821,15.906Z"/>
            </clipPath>
            <g clip-path="url(#_clip22)">
                <g transform="matrix(1,0,0,1,-95.9627,-271.44)">
                    <path d="M120.537,285.514C120.537,301.258 109.541,307.714 95.963,299.925C82.385,292.137 71.389,273.102 71.389,257.358C71.389,241.656 82.385,235.159 95.963,242.947C109.541,250.736 120.537,269.812 120.537,285.514" style="fill:rgb(154,178,223);fill-rule:nonzero;stroke:black;stroke-width:0.02px;"/>
                </g>
            </g>
        </g>
        <g id="Layer_1160" serif:id="Layer_1" transform="matrix(1.18572,0,0,1.18572,-34.5139,48.3918)">
            <clipPath id="_clip23">
                <path d="M36.652,14.053C36.652,32.462 23.824,40.001 7.914,30.88C4.998,29.214 2.207,27.089 -0.417,24.674C-0.875,24.465 -1.291,24.257 -1.749,23.966C-13.328,17.343 -22.741,1.058 -22.741,-12.354C-22.741,-16.102 -21.991,-19.184 -20.7,-21.6C-19.492,-37.969 -7.164,-44.341 7.872,-35.719C23.782,-26.598 36.652,-4.315 36.652,14.053Z"/>
            </clipPath>
            <g clip-path="url(#_clip23)">
                <g transform="matrix(1,0,0,1,-91.1313,-273.294)">
                    <path d="M112.123,285.306C112.123,298.759 102.752,304.257 91.131,297.593C79.552,290.97 70.139,274.685 70.139,261.273C70.139,247.862 79.511,242.323 91.09,248.987C102.71,255.609 112.123,271.894 112.123,285.306" style="fill:rgb(170,190,235);fill-rule:nonzero;stroke:black;stroke-width:0.02px;"/>
                </g>
            </g>
        </g>
        <g id="Layer_1161" serif:id="Layer_1" transform="matrix(1.18572,0,0,1.18572,-34.4892,41.7)">
            <clipPath id="_clip24">
                <path d="M36.632,19.701C36.632,38.11 23.803,45.649 7.893,36.527C4.977,34.861 2.187,32.737 -0.437,30.322C-0.895,30.113 -1.312,29.905 -1.77,29.613C-13.349,22.991 -22.762,6.706 -22.762,-6.706C-22.762,-10.454 -22.012,-13.536 -20.721,-15.952C-19.513,-32.321 -7.185,-38.693 7.851,-30.072C23.762,-20.95 36.632,1.333 36.632,19.701Z"/>
            </clipPath>
            <g clip-path="url(#_clip24)">
                <g transform="matrix(1,0,0,1,-91.1521,-267.65)">
                    <path d="M110.374,276.143C110.374,276.143 97.004,283.182 90.257,289.221C77.678,280.724 71.93,269.77 71.93,258.608C71.93,247.487 79.719,242.906 89.299,248.403C98.628,253.776 107.916,264.064 110.374,276.143Z" style="fill:rgb(192,207,240);fill-rule:nonzero;stroke:black;stroke-width:0.02px;"/>
                </g>
            </g>
        </g>
        <g id="Layer_1162" serif:id="Layer_1" transform="matrix(1.18572,0,0,1.18572,63.937,-7.0489)">
            <clipPath id="_clip25">
                <path d="M-46.378,60.81C-46.378,79.219 -59.206,86.758 -75.117,77.637C-78.032,75.97 -80.823,73.846 -83.447,71.431C-83.905,71.222 -84.321,71.014 -84.78,70.723C-96.358,64.1 -105.771,47.815 -105.771,34.403C-105.771,30.655 -105.022,27.573 -103.731,25.157C-102.523,8.788 -90.194,2.416 -75.158,11.037C-59.248,20.159 -46.378,42.442 -46.378,60.81Z"/>
            </clipPath>
            <g clip-path="url(#_clip25)">
                <g transform="matrix(1,0,0,1,-174.162,-226.537)">
                    <path d="M249.528,157.189C261.232,163.895 270.687,180.305 270.687,193.841C270.687,201.089 267.979,206.003 263.689,208.044L187.261,243.156L106.375,298.717C110.041,296.427 110.999,292.72 110.999,286.097C110.999,272.561 101.502,256.15 89.84,249.445C85.3,246.821 81.052,246.113 77.637,246.987L171.725,207.961L232.576,157.439C236.367,153.565 242.531,153.19 249.528,157.189Z" style="fill:rgb(210,221,244);fill-rule:nonzero;stroke:black;stroke-width:0.02px;"/>
                </g>
            </g>
        </g>
        <g id="Layer_1163" serif:id="Layer_1" transform="matrix(1.18572,0,0,1.18572,86.5311,-18.6348)">
            <clipPath id="_clip26">
                <path d="M-65.433,70.585C-65.433,88.995 -78.261,96.533 -94.172,87.412C-97.087,85.746 -99.878,83.622 -102.502,81.206C-102.96,80.998 -103.377,80.789 -103.835,80.498C-115.413,73.875 -124.827,57.59 -124.827,44.179C-124.827,40.43 -124.077,37.348 -122.786,34.932C-121.578,18.564 -109.249,12.191 -94.213,20.813C-78.303,29.934 -65.433,52.217 -65.433,70.585Z"/>
            </clipPath>
            <g clip-path="url(#_clip26)">
                <g transform="matrix(1,0,0,1,-193.217,-216.766)">
                    <path d="M281.516,135.406C295.219,143.278 306.339,162.479 306.339,178.347C306.339,186.844 303.174,192.592 298.134,194.966L208.627,236.117L113.623,301.425C116.788,299.675 119.245,294.177 119.245,286.43C119.245,270.562 108.125,251.361 94.422,243.489C89.09,240.448 84.134,239.574 80.094,240.615L190.343,194.841L261.648,135.656C266.147,131.199 273.352,130.741 281.516,135.406Z" style="fill:rgb(192,207,240);fill-rule:nonzero;stroke:black;stroke-width:0.02px;"/>
                </g>
            </g>
        </g>
        <g transform="matrix(1.18572,0,0,1.18572,-142.57,-275.659)">
            <g id="Layer_1164" serif:id="Layer_1">
                <path d="M97.462,247.612L198.215,198.881C210.668,192.842 222.705,185.928 234.159,178.181L326.831,115.622C358.652,131.699 349.073,176.431 335.203,181.305L241.49,224.371C234.742,227.453 228.286,231.119 222.205,235.325L119.703,305.84C124.702,302.716 127.117,295.094 124.743,283.723C122.078,271.061 110.874,250.444 97.462,247.612Z" style="fill:rgb(233,238,250);fill-rule:nonzero;stroke:black;stroke-width:0.02px;"/>
            </g>
        </g>
        <g transform="matrix(1.18572,0,0,1.18572,-142.57,-275.659)">
            <g id="Layer_1165" serif:id="Layer_1">
                <path d="M253.402,209.793C253.402,214 252.485,217.457 250.903,220.04L241.49,224.371C234.742,227.453 228.286,231.119 222.205,235.325L202.546,248.82C205.254,246.113 206.836,241.781 206.836,236.075C206.836,224.454 200.172,210.793 191.009,202.296L198.131,198.839C210.585,192.8 222.622,185.886 234.076,178.139L237.075,176.098C246.488,184.345 253.402,198.09 253.402,209.793Z" style="fill:rgb(225,232,248);fill-rule:nonzero;stroke:black;stroke-width:0.02px;"/>
            </g>
        </g>
        <g transform="matrix(1.18572,0,0,1.18572,-142.57,-275.659)">
            <g id="Layer_1166" serif:id="Layer_1">
                <path d="M236.741,169.851C248.695,176.723 258.4,193.508 258.4,207.336C258.4,214.25 255.984,219.123 252.11,221.414L207.086,246.862C210.085,244.197 211.876,239.657 211.876,233.659C211.876,219.415 201.88,202.13 189.551,195.049C183.72,191.717 178.431,191.301 174.432,193.3L220.914,168.809C221.581,168.351 222.289,167.976 223.08,167.685C226.829,166.269 231.577,166.893 236.741,169.851Z" style="fill:rgb(255,195,31);fill-rule:nonzero;stroke:black;stroke-width:0.02px;"/>
            </g>
        </g>
    </g>
    <defs>
        <linearGradient id="_Linear1" x1="0" y1="0" x2="1" y2="0" gradientUnits="userSpaceOnUse" gradientTransform="matrix(4.46292e-15,-72.8851,72.8851,4.46292e-15,102.451,366.459)"><stop offset="0" style="stop-color:rgb(255,79,237);stop-opacity:1"/><stop offset="0.36" style="stop-color:rgb(238,50,216);stop-opacity:1"/><stop offset="0.76" style="stop-color:rgb(223,24,198);stop-opacity:1"/><stop offset="1" style="stop-color:rgb(217,14,191);stop-opacity:1"/></linearGradient>
    </defs>
</svg>
