<?xml version="1.0" encoding="UTF-8" standalone="no"?>
<!DOCTYPE svg PUBLIC "-//W3C//DTD SVG 1.1//EN" "http://www.w3.org/Graphics/SVG/1.1/DTD/svg11.dtd">
<svg width="100%" height="100%" viewBox="0 0 1400 1400" version="1.1" xmlns="http://www.w3.org/2000/svg" xmlns:xlink="http://www.w3.org/1999/xlink" xml:space="preserve" xmlns:serif="http://www.serif.com/" style="fill-rule:evenodd;clip-rule:evenodd;stroke-linejoin:round;stroke-miterlimit:2;">
    <g>
        <g>
            <path d="M522.2,1008.2L520.7,358.7L506.6,350.5L508.1,1000C508.1,1006.8 510.5,1011.6 514.4,1013.9L528.5,1022.1C524.6,1019.8 522.2,1015 522.2,1008.2Z" style="fill:rgb(242,242,242);fill-rule:nonzero;"/>
            <g>
                <path d="M520.7,358.7L520.8,408.2L872.7,205L874.1,805C874.1,818.7 864.5,835.4 852.6,842.3L544,1020.5C532.1,1027.4 522.4,1021.9 522.3,1008.1L520.7,358.7Z" style="fill:white;fill-rule:nonzero;"/>
            </g>
            <path d="M858.6,196.8L520.8,391.8L520.7,358.6C520.7,344.9 530.3,328.2 542.2,321.3L850.8,143.1C856.8,139.6 862.2,139.3 866.2,141.6L852.1,133.4C848.2,131.1 842.7,131.4 836.7,134.9L528.2,313.2C516.3,320.1 506.6,336.8 506.7,350.5L506.8,400L520.9,408.2L872.7,205L858.6,196.8Z" style="fill:rgb(119,189,251);fill-rule:nonzero;"/>
            <g>
                <path d="M850.9,143.2C862.8,136.3 872.5,141.8 872.6,155.6L872.7,205.1L520.9,408.2L520.8,358.7C520.8,345 530.4,328.3 542.3,321.4L850.9,143.2Z" style="fill:rgb(67,103,199);fill-rule:nonzero;"/>
            </g>
            <g>
                <g>
                    <path d="M782.7,211.1C786.8,208.7 790.2,210.6 790.2,215.4C790.2,220.2 786.9,225.9 782.7,228.3C778.6,230.7 775.2,228.8 775.2,224C775.2,219.3 778.6,213.5 782.7,211.1Z" style="fill:rgb(254,210,44);fill-rule:nonzero;"/>
                </g>
                <g>
                    <path d="M808.2,196.4C812.3,194 815.7,195.9 815.7,200.7C815.7,205.5 812.4,211.2 808.2,213.6C804.1,216 800.7,214.1 800.7,209.3C800.8,204.6 804.1,198.8 808.2,196.4Z" style="fill:rgb(249,101,168);fill-rule:nonzero;"/>
                </g>
                <g>
                    <path d="M833.8,181.7C837.9,179.3 841.3,181.2 841.3,186C841.3,190.8 838,196.5 833.8,198.9C829.7,201.3 826.3,199.4 826.3,194.6C826.3,189.8 829.6,184 833.8,181.7Z" style="fill:rgb(146,215,254);fill-rule:nonzero;"/>
                </g>
            </g>
        </g>
        <g>
            <g>
                <path d="M683.8,549.7L684.2,699.8L553.7,775.2L553.2,625.1L683.8,549.7Z" style="fill:rgb(242,242,242);fill-rule:nonzero;"/>
            </g>
            <g>
                <path d="M683.3,363.9L683.7,513.9L553.1,589.3L552.7,439.3L683.3,363.9Z" style="fill:rgb(242,242,242);fill-rule:nonzero;"/>
            </g>
            <g>
                <path d="M843,271.7L843.4,421.7L712.8,497.1L712.4,347.1L843,271.7Z" style="fill:rgb(242,242,242);fill-rule:nonzero;"/>
            </g>
            <g>
                <path d="M843.5,457.5L843.9,607.6L713.3,683L712.9,532.9L843.5,457.5Z" style="fill:rgb(242,242,242);fill-rule:nonzero;"/>
            </g>
            <g>
                <path d="M684.3,735.5L684.8,885.6L554.2,961L553.8,810.9L684.3,735.5Z" style="fill:rgb(242,242,242);fill-rule:nonzero;"/>
            </g>
            <g>
                <path d="M844,643.3L844.5,793.4L713.9,868.8L713.4,718.7L844,643.3Z" style="fill:rgb(242,242,242);fill-rule:nonzero;"/>
            </g>
        </g>
        <g>
            <path d="M902.2,441.5C907.7,438.3 912.2,440.9 912.2,447.2L912.8,652.5C912.8,658.8 908.4,666.6 902.8,669.8L663.2,808.1C657.7,811.3 653.2,808.7 653.2,802.4L652.6,597.1C652.6,590.8 657,583 662.6,579.8L902.2,441.5Z" style="fill:rgb(3,30,108);fill-rule:nonzero;"/>
            <path d="M907.3,447.2C907.3,445.8 907,445.2 906.9,445.1L906.7,445.1C906.5,445.1 905.8,445.2 904.7,445.8L665.1,584.2C661.1,586.5 657.6,592.5 657.6,597.1L657.7,622.9L907.4,478.8L907.3,447.2Z" style="fill:white;fill-rule:nonzero;"/>
            <g>
                <path d="M887.9,569.9C889.3,569.1 890.5,569.7 890.5,571.4C890.5,573.1 889.3,575.1 887.9,575.9L820.9,614.6C819.5,615.4 818.3,614.8 818.3,613.1C818.3,611.4 819.5,609.4 820.9,608.6L887.9,569.9Z" style="fill:white;fill-rule:nonzero;"/>
            </g>
            <g>
                <path d="M887.8,543.4C889.2,542.6 890.4,543.2 890.4,544.9C890.4,546.6 889.2,548.6 887.8,549.4L820.8,588.1C819.4,588.9 818.2,588.3 818.2,586.6C818.2,584.9 819.4,582.9 820.8,582.1L887.8,543.4Z" style="fill:white;fill-rule:nonzero;"/>
            </g>
            <g>
                <path d="M810.4,614.7C811.8,613.9 813,614.5 813,616.2C813,617.9 811.8,619.9 810.4,620.7L778.1,639.3C776.7,640.1 775.5,639.5 775.5,637.8C775.5,636.1 776.7,634.1 778.1,633.3L810.4,614.7Z" style="fill:white;fill-rule:nonzero;"/>
            </g>
            <g>
                <path d="M835.8,586.1C837.2,585.3 838.4,585.9 838.4,587.6C838.4,589.3 837.2,591.3 835.8,592.1L778.1,625.4C776.7,626.2 775.5,625.6 775.5,623.9C775.5,622.2 776.7,620.2 778.1,619.4L835.8,586.1Z" style="fill:rgb(249,101,168);fill-rule:nonzero;"/>
            </g>
            <g>
                <path d="M767.8,639.3C769.2,638.5 770.4,639.1 770.4,640.8C770.4,642.5 769.2,644.5 767.8,645.3L754,653.2C752.6,654 751.4,653.4 751.4,651.7C751.4,650 752.6,648 754,647.2L767.8,639.3Z" style="fill:white;fill-rule:nonzero;"/>
            </g>
            <g>
                <path d="M888.5,647.7C889.9,646.9 891.1,647.5 891.1,649.2C891.1,650.9 889.9,652.9 888.5,653.7L683.3,772.2C681.9,773 680.7,772.4 680.7,770.7C680.7,769 681.9,767 683.3,766.2L888.5,647.7Z" style="fill:rgb(146,215,254);fill-rule:nonzero;"/>
            </g>
            <g>
                <path d="M835.7,559.6C837.1,558.8 838.3,559.4 838.3,561.1C838.3,562.8 837.1,564.8 835.7,565.6L778,598.9C776.6,599.7 775.4,599.1 775.4,597.4C775.4,595.7 776.6,593.7 778,592.9L835.7,559.6Z" style="fill:rgb(254,210,44);fill-rule:nonzero;"/>
            </g>
            <g>
                <path d="M888.5,634.9C889.9,634.1 891.1,634.7 891.1,636.4C891.1,638.1 889.9,640.1 888.5,640.9L683.3,759.4C681.9,760.2 680.7,759.6 680.7,757.9C680.7,756.2 681.9,754.2 683.3,753.4L888.5,634.9Z" style="fill:rgb(146,215,254);fill-rule:nonzero;"/>
            </g>
            <g>
                <path d="M888.5,622.1C889.9,621.3 891.1,621.9 891.1,623.6C891.1,625.3 889.9,627.3 888.5,628.1L683.2,746.7C681.8,747.5 680.6,746.9 680.6,745.2C680.6,743.5 681.8,741.5 683.2,740.7L888.5,622.1Z" style="fill:rgb(146,215,254);fill-rule:nonzero;"/>
            </g>
            <g>
                <path d="M767.9,651.8C769.3,651 770.5,651.6 770.5,653.3C770.5,655 769.3,657 767.9,657.8L716.2,687.7C714.8,688.5 713.6,687.9 713.6,686.2C713.6,684.5 714.8,682.5 716.2,681.7L767.9,651.8Z" style="fill:rgb(58,224,192);fill-rule:nonzero;"/>
            </g>
            <g>
                <path d="M888.4,609.4C889.8,608.6 891,609.2 891,610.9C891,612.6 889.8,614.6 888.4,615.4L683.2,733.9C681.8,734.7 680.6,734.1 680.6,732.4C680.6,730.7 681.8,728.7 683.2,727.9L888.4,609.4Z" style="fill:rgb(146,215,254);fill-rule:nonzero;"/>
            </g>
            <g>
                <path d="M888.4,596.6C889.8,595.8 891,596.4 891,598.1C891,599.8 889.8,601.8 888.4,602.6L683.1,721.1C681.7,721.9 680.5,721.3 680.5,719.6C680.5,717.9 681.7,715.9 683.1,715.1L888.4,596.6Z" style="fill:rgb(146,215,254);fill-rule:nonzero;"/>
            </g>
            <g>
                <path d="M767.9,625.3C769.3,624.5 770.5,625.1 770.5,626.8C770.5,628.5 769.3,630.5 767.9,631.3L716.2,661.2C714.8,662 713.6,661.4 713.6,659.7C713.6,658 714.8,656 716.2,655.2L767.9,625.3Z" style="fill:rgb(254,210,44);fill-rule:nonzero;"/>
            </g>
            <g>
                <path d="M706.7,687.2C708.1,686.4 709.3,687 709.3,688.7C709.3,690.4 708.1,692.4 706.7,693.2L683.1,706.8C681.7,707.6 680.5,707 680.5,705.3C680.5,703.6 681.7,701.6 683.1,700.8L706.7,687.2Z" style="fill:rgb(58,224,192);fill-rule:nonzero;"/>
            </g>
            <g>
                <path d="M744.7,652.6C746.1,651.8 747.3,652.4 747.3,654.1C747.3,655.8 746.1,657.8 744.7,658.6L683.1,694.2C681.7,695 680.5,694.4 680.5,692.7C680.5,691 681.7,689 683.1,688.2L744.7,652.6Z" style="fill:white;fill-rule:nonzero;"/>
            </g>
            <g>
                <path d="M767.8,598.8C769.2,598 770.4,598.6 770.4,600.3C770.4,602 769.2,604 767.8,604.8L716.1,634.7C714.7,635.5 713.5,634.9 713.5,633.2C713.5,631.5 714.7,629.5 716.1,628.7L767.8,598.8Z" style="fill:rgb(254,210,44);fill-rule:nonzero;"/>
            </g>
            <g>
                <path d="M706.6,660.7C708,659.9 709.2,660.5 709.2,662.2C709.2,663.9 708,665.9 706.6,666.7L683,680.3C681.6,681.1 680.4,680.5 680.4,678.8C680.4,677.1 681.6,675.1 683,674.3L706.6,660.7Z" style="fill:rgb(254,210,44);fill-rule:nonzero;"/>
            </g>
            <g>
                <path d="M744.6,626.1C746,625.3 747.2,625.9 747.2,627.6C747.2,629.3 746,631.3 744.6,632.1L683,667.7C681.6,668.5 680.4,667.9 680.4,666.2C680.4,664.5 681.6,662.5 683,661.7L744.6,626.1Z" style="fill:rgb(58,224,192);fill-rule:nonzero;"/>
            </g>
            <g>
                <path d="M744.5,599.6C745.9,598.8 747.1,599.4 747.1,601.1C747.1,602.8 745.9,604.8 744.5,605.6L682.9,641.2C681.5,642 680.3,641.4 680.3,639.7C680.3,638 681.5,636 682.9,635.2L744.5,599.6Z" style="fill:rgb(249,101,168);fill-rule:nonzero;"/>
            </g>
            <g>
                <path d="M810.3,588.2C811.7,587.4 812.9,588 812.9,589.7C812.9,591.4 811.7,593.4 810.3,594.2L778,612.8C776.6,613.6 775.4,613 775.4,611.3C775.4,609.6 776.6,607.6 778,606.8L810.3,588.2Z" style="fill:white;fill-rule:nonzero;"/>
            </g>
            <g>
                <path d="M810.2,561.6C811.6,560.8 812.8,561.4 812.8,563.1C812.8,564.8 811.6,566.8 810.2,567.6L778,586.3C776.6,587.1 775.4,586.5 775.4,584.8C775.4,583.1 776.6,581.1 778,580.3L810.2,561.6Z" style="fill:white;fill-rule:nonzero;"/>
            </g>
            <g>
                <path d="M888.4,555.7C889.6,555 890.5,555.6 890.5,556.9L890.5,558.1C890.5,559.4 889.6,561.1 888.4,561.7L846.2,586.1C845,586.8 844.1,586.2 844.1,584.9L844.1,583.7C844.1,582.4 845,580.7 846.2,580.1L888.4,555.7Z" style="fill:rgb(249,101,168);fill-rule:nonzero;"/>
            </g>
            <g>
                <path d="M767.6,586.2C769,585.4 770.2,586 770.2,587.7C770.2,589.4 769,591.4 767.6,592.2L753.8,600.1C752.4,600.9 751.2,600.3 751.2,598.6C751.2,596.9 752.4,594.9 753.8,594.1L767.6,586.2Z" style="fill:rgb(249,101,168);fill-rule:nonzero;"/>
            </g>
        </g>
        <g>
            <path d="M751.1,802.1C751.1,802.1 735.8,791.9 722.3,777.6C722.3,777.6 713.2,777 707.7,772.9C702.2,768.8 702.2,768.5 701.4,766.6C700.6,764.7 699.2,759.7 699.2,759.7C699.2,759.7 692.6,757.5 690.7,754.5C688.8,751.5 694.3,751.7 698.4,753.4C702.5,755.1 712.2,760 712.2,760C712.2,760 723.2,764.4 726.5,766.6C729.8,768.8 757.9,784.2 757.9,784.2L751.1,802.1Z" style="fill:rgb(233,180,136);fill-rule:nonzero;"/>
            <path d="M789.6,974.8C789.6,974.8 777.6,973.7 770.5,972.9C770.5,972.9 764.5,971.9 764.1,977.5C763.7,983 767.1,987.2 776.8,992L789.5,997.6C789.5,997.6 794.3,1001 798.8,1001C803.3,1001 806.7,999.5 807,996.1L807,967.3L789.6,974.8Z" style="fill:rgb(254,251,240);fill-rule:nonzero;"/>
            <path d="M813.6,957.9C813.6,957.9 801.6,956.8 794.5,956C794.5,956 788.5,955 788.1,960.6C787.7,966.1 791.1,970.3 800.8,975.1L813.5,980.7C813.5,980.7 818.3,984.1 822.8,984.1C827.3,984.1 830.7,982.6 831,979.2L831,950.4L813.6,957.9Z" style="fill:rgb(254,251,240);fill-rule:nonzero;"/>
            <path d="M776.9,837.5L773.2,836.8C773.2,836.8 772.1,862.2 775.1,880.9C778.1,899.6 780,916.8 784.4,938.1C788.9,959.4 786.6,977.4 786.6,977.4C786.6,977.4 786.2,984.5 793.7,986.7C801.2,988.9 807.2,981.8 807.2,981.8C807.2,981.8 806.1,923.1 805.7,915.6C805.3,908.1 801.6,895.4 801.6,895.4C801.6,895.4 806.8,905.9 808.7,917.1L808.7,964.2C808.7,964.2 809.4,970.2 818.8,971.3C828.1,972.4 831.2,963.8 831.2,963.8L831.2,923.8C831.2,923.8 829.8,911 828.2,899.3C826.9,889.5 826.9,879.6 828.3,869.8C830.3,856.5 832.4,837.5 831.2,826.6C829.2,826.3 776.9,837.5 776.9,837.5Z" style="fill:rgb(254,210,44);fill-rule:nonzero;"/>
            <path d="M781,701.8L781,716C781,716 779.5,729.1 787.7,729.1L787.7,740.3L808.3,740.3L808.3,728L790.7,698.8L780.9,696.2L781,701.8Z" style="fill:rgb(233,180,136);fill-rule:nonzero;"/>
            <path d="M781,701.8C781,701.8 782.1,701.8 783.6,704C785.1,706.2 786.2,710.7 786.2,710.7C786.2,710.7 788.4,710.3 789.6,713.7L790.7,717.1C790.7,717.1 797.1,719 798.9,723.1C800.8,727.2 803.8,728.7 808.2,728C808.2,728 812.7,727.3 815.7,720.1C818.7,713 820.6,702.5 813.8,694.7C807.1,686.8 803,685.7 792.1,685.7C781.3,685.7 777.2,697.4 781,701.8Z" style="fill:rgb(113,61,34);fill-rule:nonzero;"/>
            <path d="M794.6,737.3C794.6,737.3 785.9,739.5 773.5,750C761.2,760.5 751.1,784 751.1,784C751.1,784 746.2,793.3 748.9,799C748.9,799 751.9,804.6 756,804.6C760.1,804.6 768.8,794.9 771.4,791.5C774,788.1 775.8,785.9 775.8,785.9C775.8,785.9 776.5,797.1 775.8,804.6C775.1,812.1 773.2,836.8 773.2,836.8C773.2,836.8 773.4,853.6 780.9,860.7C788.5,867.8 800.8,861.1 810.6,857C820.3,852.9 827.1,846.2 829.3,842.4C831.5,838.7 832.3,820 829.3,809.5C826.3,799 824.1,786.3 826.3,774.7C828.5,763.1 833.8,749.3 828.5,737.3C823.2,725.3 808.8,729.9 794.6,737.3Z" style="fill:rgb(58,224,192);fill-rule:nonzero;"/>
        </g>
        <g>
            <g>
                <path d="M675.4,590.2C677.8,588.8 679.8,589.9 679.8,592.7C679.8,595.5 677.9,598.9 675.4,600.3C672.9,601.7 671,600.6 671,597.8C671,595 673,591.6 675.4,590.2Z" style="fill:rgb(3,30,108);fill-rule:nonzero;"/>
            </g>
            <g>
                <path d="M690.3,581.6C692.7,580.2 694.7,581.3 694.7,584.1C694.7,586.9 692.8,590.3 690.3,591.7C687.9,593.1 685.9,592 685.9,589.2C686,586.4 687.9,583 690.3,581.6Z" style="fill:rgb(3,30,108);fill-rule:nonzero;"/>
            </g>
            <g>
                <path d="M705.3,573C707.7,571.6 709.7,572.7 709.7,575.5C709.7,578.3 707.7,581.7 705.3,583.1C702.9,584.5 700.9,583.4 700.9,580.6C700.9,577.8 702.9,574.4 705.3,573Z" style="fill:rgb(3,30,108);fill-rule:nonzero;"/>
            </g>
        </g>
        <g>
            <g>
                <path d="M578.2,490.3C576.4,521.1 555,557 528.6,572.2C502.3,587.4 480.7,576.4 478.7,547.8L487,543C488.9,566.4 506.8,575.3 528.6,562.8C550.4,550.2 568.2,520.7 569.9,495.2L578.2,490.3Z" style="fill:rgb(58,224,192);fill-rule:nonzero;"/>
            </g>
            <g>
                <path d="M528.3,457.6C554.6,442.4 576.2,453.4 578.2,482L569.9,486.8C568,463.4 550.1,454.5 528.3,467C506.5,479.6 488.7,509.1 487,534.6L478.7,539.4C480.5,508.7 502,472.8 528.3,457.6Z" style="fill:rgb(254,210,44);fill-rule:nonzero;"/>
            </g>
            <g>
                <path d="M662.8,380C671.5,375 679.7,372.8 686.8,373.2L682.3,383.8C676.5,383.6 669.8,385.4 662.8,389.5C639.8,402.8 621.2,435 621.3,461.4C621.3,476.7 627.7,486.8 637.5,489.9L633,500.5C620.9,497 613.1,484.9 613,466.2C613,434.4 635.3,395.9 662.8,380Z" style="fill:rgb(249,101,168);fill-rule:nonzero;"/>
            </g>
            <g>
                <path d="M692.9,374.2C705,377.7 712.8,389.8 712.9,408.5C713,440.1 690.7,478.7 663.2,494.6C654.5,499.6 646.3,501.8 639.2,501.4L643.7,490.8C649.5,491 656.2,489.2 663.2,485.1C686.2,471.8 704.8,439.6 704.7,413.2C704.7,397.9 698.3,387.8 688.5,384.7L692.9,374.2Z" style="fill:rgb(67,103,199);fill-rule:nonzero;"/>
            </g>
            <g>
                <path d="M352.5,620.6C354.4,644 372.3,652.9 394.1,640.4C407.1,632.9 418.6,619.4 426.2,604.3L433,605.7C423.9,624.1 409.9,640.7 394.1,649.8C367.8,665 346.2,654 344.2,625.4L352.5,620.6Z" style="fill:rgb(249,101,168);fill-rule:nonzero;"/>
            </g>
            <g>
                <path d="M393.8,535.3C421.3,519.4 443.7,532.2 443.8,563.8C443.8,574.3 441.4,585.6 437.1,596.6L430.3,595.2C433.7,586.3 435.6,577.1 435.6,568.6C435.5,542.2 416.8,531.5 393.8,544.8C372,557.4 354.2,586.9 352.5,612.4L344.2,617.2C346,586.4 367.5,550.5 393.8,535.3Z" style="fill:rgb(67,103,199);fill-rule:nonzero;"/>
            </g>
        </g>
        <g>
            <path d="M523.1,830L521.7,829.9L521.7,823.8C521.7,823.8 521.7,824.9 517.4,829C513.1,833.1 513,839.8 513,839.8L513,862.7L520.9,861.1L520.9,835.4C520.9,835.4 524.3,834.5 525,832.6L525,832.5C525.3,831.4 524.4,830.1 523.1,830Z" style="fill:rgb(233,180,136);fill-rule:nonzero;"/>
            <path d="M462.6,1053.9C462.6,1053.9 453.5,1057.6 450.2,1065.7C450.2,1065.7 449.5,1076.1 460.1,1087.9C470.7,1099.7 475.1,1102.8 479,1099.9C482.8,1096.9 477.2,1075.5 477.2,1075.5L474.2,1064.7L462.6,1053.9Z" style="fill:rgb(254,251,240);fill-rule:nonzero;"/>
            <path d="M492.7,1096L495.3,1097.3C495.3,1097.3 506.4,1109.4 509.8,1113.5C513.2,1117.6 514.5,1119.9 513.5,1123.9C513.5,1123.9 510.5,1128.9 497.9,1125.2C485.3,1121.5 474.5,1105.3 474.5,1105.3C474.5,1105.3 472.5,1101.6 478.5,1097.2L492.7,1096Z" style="fill:rgb(254,251,240);fill-rule:nonzero;"/>
            <path d="M509,920.7C509,920.7 513,944.6 518.8,964.4C524.5,984.3 523.5,1000.1 518.8,1004.8C514.1,1009.5 495.2,1041.5 489.2,1047.9C483.2,1054.3 475.4,1068.4 475.4,1068.4C475.4,1068.4 463.3,1066.4 462.6,1053.9C462.6,1053.9 474.4,1028.5 487.3,1012.9C500.3,997.3 501.9,992.3 501.9,992.3C501.9,992.3 484.6,964.6 482,948.6C479.4,932.6 487.2,924.4 487.2,924.4L509,920.7Z" style="fill:rgb(3,30,108);fill-rule:nonzero;"/>
            <path d="M464.5,927.4C464.5,927.4 458.2,942.9 460.6,960C463,977.2 473,1012.9 473,1012.9C473,1012.9 468.7,1030.1 470.6,1048.8C472.5,1067.5 478.3,1097.3 478.3,1097.3C478.3,1097.3 488.1,1103 495.1,1097.3C495.1,1097.3 490.4,1031.3 490.1,1023.6C489.8,1015.9 492.6,1008.5 492.6,1008.5C492.6,1008.5 498.9,968.8 497.5,962.7C496.2,956.6 489.1,920.6 489.1,920.6L464.5,927.4Z" style="fill:rgb(3,30,108);fill-rule:nonzero;"/>
            <path d="M490.2,837.7C490.2,837.7 497.7,836.3 501.2,839.6C504.7,843 507.7,850.2 510.1,857C512.5,863.8 512.5,866.5 512.5,866.5L512.5,859.1C512.5,859.1 517.5,860.1 520.9,860.4L520.9,884.6C520.9,884.6 519.9,891.7 515.2,891.3C510.5,891 505.6,883.9 505.6,883.9C505.6,883.9 506.4,905.4 509.5,911.2C512.5,916.9 513.5,919.9 513.5,919.9C513.5,919.9 507.1,934.7 494,934.7C480.9,934.7 463,926.6 463,926.6C463,926.6 469.3,915.2 469.8,907.8C469.8,907.8 468,910.5 463,904.1C458,897.7 452.4,874.4 454.3,861.4C454.3,861.4 455.6,853.8 471.8,844.9C471.7,845 490.1,846.8 490.2,837.7Z" style="fill:rgb(249,101,168);fill-rule:nonzero;"/>
            <path d="M499.6,896.8C499.6,896.8 506.6,891 509.9,888.9C513.1,886.7 517.9,886.4 520.8,879.3C523.8,872.3 531,871.2 530.4,867.4C529.9,863.6 519.6,865.2 516.1,867.4C512.7,869.6 511,877.4 504.5,881C498,884.6 495.8,885.1 495.8,885.1C495.8,885.1 493.2,892.5 499.6,896.8Z" style="fill:rgb(233,180,136);fill-rule:nonzero;"/>
            <path d="M499.6,806.6C499.6,806.6 503.3,820.1 502.6,828.8C501.9,837.5 501.1,839.6 501.1,839.6C501.1,839.6 497.2,840.6 492.5,839.6L492.5,853.1C492.5,853.1 489.5,858.1 483.8,856.8C478.1,855.5 471.7,845 471.7,845C471.7,845 477.4,840.5 476.7,831.8C476.7,831.8 471.3,832.9 470,825.8C468.7,818.7 473.4,818.1 477.4,823.1C477.4,823.1 495.6,817.1 499.6,806.6Z" style="fill:rgb(233,180,136);fill-rule:nonzero;"/>
            <path d="M499.6,806.8L499.7,806.6C499.7,806.6 499.7,800.2 493,797.2C486.3,794.2 471.8,793.8 465.4,803.3C459,812.7 462.7,820.7 462,831.8C461.3,842.9 459,847.7 451.2,851.7C443.5,855.7 443.5,878.6 454.6,880C465.7,881.4 485.7,865.9 486.3,847.4C486.6,836.4 490.5,827.6 493.5,822.2C496.2,817.3 498.3,812.2 499.6,806.8Z" style="fill:rgb(113,61,35);fill-rule:nonzero;"/>
        </g>
        <path d="M997.3,162.4C1000.8,160.4 1003.7,162 1003.7,166L1004.2,347.1C1004.2,351.1 1001.4,356 997.9,358.1L750.9,500.7C747.4,502.7 744.5,501.1 744.5,497.1L744,316C744,312 746.8,307 750.3,305L997.3,162.4Z" style="fill:rgb(67,103,199);fill-rule:nonzero;"/>
        <path d="M749,315.9C749,313.7 750.9,310.4 752.8,309.3L998.6,167.4L999.1,347.2C999.1,349.5 997.2,352.7 995.3,353.8L749.5,495.7L749,315.9Z" style="fill:white;fill-rule:nonzero;"/>
        <path d="M749.4,455.6L749.5,495.7L995.3,353.8C997.3,352.7 999.1,349.4 999.1,347.2L999,311.5L749.4,455.6Z" style="fill:rgb(249,101,168);fill-rule:nonzero;"/>
        <g>
            <path d="M857,288.1C858.1,287.5 859.2,287.2 860.2,287.5L894.7,296.9C897.6,297.7 897.6,302.7 894.7,306.9L860.4,356C859.4,357.4 858.3,358.4 857.2,359.1C854.4,360.7 851.8,359.7 851.8,356L851.6,297.4C851.6,293.8 854.2,289.7 857,288.1Z" style="fill:rgb(249,101,168);fill-rule:nonzero;"/>
        </g>
        <g>
            <path d="M975.8,341.8C978.1,340.5 980,341.5 980,344.2C980,346.9 978.1,350.1 975.8,351.4L772.8,468.7C770.5,470 768.6,469 768.6,466.3C768.6,463.7 770.5,460.4 772.8,459.1L975.8,341.8Z" style="fill:rgb(224,68,146);fill-rule:nonzero;"/>
        </g>
        <path d="M883.5,400.7C883.5,398.2 880.8,396.7 878.7,397.9L772.7,459.1C770.4,460.4 768.5,463.7 768.5,466.3C768.5,468.9 770.4,470 772.7,468.7L880,406.7C882.2,405.5 883.5,403.2 883.5,400.7Z" style="fill:white;fill-rule:nonzero;"/>
        <g>
            <path d="M879.5,393.7C883.6,391.3 887,393.2 887,398C887,402.7 883.7,408.5 879.5,410.9C875.4,413.3 872,411.4 872,406.6C872.1,401.9 875.4,396.1 879.5,393.7Z" style="fill:white;fill-rule:nonzero;"/>
        </g>
        <g>
            <path d="M987.7,759C987.7,759 979.5,758.7 975.2,755.3C971,751.9 969.1,749.8 968.3,745.1C967.5,740.4 969.7,737.7 971.4,737.3C973.1,736.9 977.4,744.2 979.1,744.6C980.8,745 977.8,741 980,739.5C982.2,738 987.8,747.4 996.6,753.2C1005.4,759 987.7,759 987.7,759Z" style="fill:rgb(233,180,136);fill-rule:nonzero;"/>
            <path d="M939.2,777.2C939.2,777.2 931,776.9 926.7,773.5C922.5,770.1 920.6,768 919.8,763.3C919,758.6 921.2,755.9 922.9,755.5C924.6,755.1 928.9,762.4 930.6,762.8C932.3,763.2 929.3,759.2 931.5,757.7C933.7,756.2 939.3,765.6 948.1,771.4C957,777.2 939.2,777.2 939.2,777.2Z" style="fill:rgb(233,180,136);fill-rule:nonzero;"/>
            <path d="M972.7,741C972.7,741 969.4,749.4 967.5,763.9L965.6,778.4L948.9,768.7C948.9,768.7 938.6,771.2 938.9,780.3C938.9,780.3 957,793.3 963,796.9C969,800.5 972.7,804.7 977.8,798.9C982.9,793.1 987.1,773.8 987,771.4C986.9,769 972.7,741 972.7,741Z" style="fill:rgb(254,210,44);fill-rule:nonzero;"/>
            <g>
                <g>
                    <path d="M1010.2,716.4C1020.6,722.4 1020.7,732.2 1010.3,738.2L980.2,755.7C969.8,761.7 952.9,761.7 942.5,755.7L912.2,738.2C901.8,732.2 901.7,722.4 912.1,716.4L942.2,698.9C952.6,692.9 969.5,692.9 979.9,698.9L1010.2,716.4Z" style="fill:white;fill-rule:nonzero;"/>
                </g>
                <path d="M1010.3,738.3L980.2,755.8C969.8,761.8 952.9,761.8 942.5,755.8L912.2,738.3C906.9,735.3 904.3,731.3 904.3,727.3L904.2,749.4C904.2,753.4 906.8,757.4 912.1,760.4L942.4,777.9C952.8,783.9 969.7,783.9 980.1,777.9L1010.2,760.4C1015.4,757.4 1017.9,753.5 1017.9,749.6L1018,727.5C1018.1,731.3 1015.5,735.3 1010.3,738.3Z" style="fill:rgb(242,242,242);fill-rule:nonzero;"/>
            </g>
            <path d="M988.4,971.6L983.5,972.7C983.5,972.7 972.1,965.6 966.7,971.6C966.7,971.6 963.3,975.2 977.6,982.5C991.5,989.6 997.5,989.6 997.5,989.6C997.5,989.6 1005.1,987 1004.2,968.4L992.8,968.4L988.4,971.6Z" style="fill:white;fill-rule:nonzero;"/>
            <path d="M1008.4,957.2L1003.5,958.3C1003.5,958.3 992.1,951.2 986.7,957.2C986.7,957.2 983.3,960.8 997.6,968.1C1011.5,975.2 1017.5,975.2 1017.5,975.2C1017.5,975.2 1025.1,972.6 1024.2,954L1012.8,954L1008.4,957.2Z" style="fill:white;fill-rule:nonzero;"/>
            <path d="M980.2,815.9L973.3,816.4C973.3,816.4 966.7,846.2 976.8,884.8C986.9,923.4 983.6,972.7 983.6,972.7C983.6,972.7 986.9,978.7 992.3,978.7C997.7,978.7 1001.5,973.8 1004.2,968.4L1004.2,957.5C1004.2,957.5 1009.1,963.5 1015.1,963.5C1021.1,963.5 1024.3,959.7 1024.3,959.7L1024.3,909.2C1024.3,909.2 1022.7,892.4 1020.5,881C1018.3,869.6 1028.1,841.4 1025.9,823.5C1025.9,823.5 998,809.4 980.2,815.9Z" style="fill:rgb(3,30,108);fill-rule:nonzero;"/>
            <path d="M981.4,690.6C981.4,690.6 978.7,712.3 981.4,716.1C984.1,719.9 995,716.1 995,716.1L995,728C995,728 998.8,732.9 1003.7,731.3C1008.6,729.7 1012.4,724.8 1012.4,724.8L1012.4,704.2L981.4,690.6Z" style="fill:rgb(233,180,136);fill-rule:nonzero;"/>
            <path d="M994.9,728C994.9,728 975.9,735.1 972.7,741C969.5,746.9 971.6,753.9 972.7,764.5C973.8,775.2 977.6,808.8 973.2,816.4C973.2,816.4 979.7,826.7 989.5,832.7C999.3,838.7 1003.6,839.8 1012.3,835.4C1021,831.1 1025.9,823.5 1025.9,823.5C1025.9,823.5 1036.2,750.2 1031.3,736.7C1026.4,723.1 1022.9,723.6 1012.3,724.8C1001.7,725.9 994.9,728 994.9,728Z" style="fill:rgb(254,210,44);fill-rule:nonzero;"/>
            <path d="M1021.2,722.8C1021.2,722.8 1017.9,731.2 1016,745.7L1014.1,760.2L997.4,750.5C997.4,750.5 987.1,753 987.4,762.1C987.4,762.1 1005.5,775.1 1011.5,778.7C1017.5,782.3 1021.2,786.5 1026.3,780.7C1031.4,774.9 1035.6,755.6 1035.5,753.2C1035.3,750.8 1021.2,722.8 1021.2,722.8Z" style="fill:rgb(254,210,44);fill-rule:nonzero;"/>
            <path d="M989,697.6C989,697.6 983.6,695.4 981.4,690.5C979.2,685.6 979.8,675.8 992.3,674.2C1004.8,672.6 1016.7,680.2 1020,688.3C1023.3,696.4 1022.2,703.8 1028.7,711C1035.2,718.2 1054.7,723.6 1055.8,738.8C1056.9,754 1040.6,770.8 1027,762.1C1013.4,753.4 999.2,737.7 1002,719.2C1004.9,700.9 989,697.6 989,697.6Z" style="fill:rgb(113,61,35);fill-rule:nonzero;"/>
        </g>
        <g>
            <path d="M853.7,999.5L817.1,1019.4L857.8,1050.7L894.5,1030.8L853.7,999.5Z" style="fill:white;fill-rule:nonzero;"/>
            <path d="M851.6,1054.1C851.6,1054.1 845.9,1053.1 842.7,1051.9C839.5,1050.7 834.2,1046.2 833.6,1044.4C833,1042.6 832.2,1035.3 833.6,1033.7C835,1032.1 840.1,1037.7 842.2,1039.4C844.3,1041.1 844.3,1041.2 844.3,1041.2C844.3,1041.2 842.7,1036.5 843.1,1035.3C843.5,1034.1 845.9,1033.9 848.6,1036.9C851.3,1039.9 858.7,1046.4 858.7,1046.4L851.6,1054.1Z" style="fill:rgb(233,180,136);fill-rule:nonzero;"/>
            <path d="M899.9,1245.7L898,1247C898,1247 893.5,1247.6 888.4,1246.4C883.3,1245.1 877.5,1245.4 878.4,1250.3C879.3,1255.2 887.7,1259 891.3,1260.6C894.8,1262.2 901.9,1264.5 902.9,1265.7C903.9,1267 905.5,1268.9 910.9,1267.6C916.4,1266.3 916.6,1264.1 916.6,1264.1L916.6,1244.2L899.9,1245.7Z" style="fill:rgb(3,30,108);fill-rule:nonzero;"/>
            <path d="M931.4,1230.6C931.4,1230.6 925,1227.4 922.7,1227.7C920.4,1228 917.9,1231.6 922.7,1236.7C927.5,1241.8 929.4,1244.1 931.4,1247.9C933.3,1251.8 934.6,1254.6 939.1,1254.3C940.4,1254.2 941.7,1253.9 942.8,1253.4C945.6,1252.3 947.5,1249.5 947.5,1246.5L947.5,1236.2L933.7,1229.8L931.4,1230.6Z" style="fill:rgb(3,30,108);fill-rule:nonzero;"/>
            <path d="M887.1,1122L885.6,1126.9C885.6,1126.9 886.1,1155.4 890.6,1176C895.1,1196.6 898,1247 898,1247C898,1247 899,1251.8 905.1,1252.1C911.2,1252.4 917.3,1248.6 917.3,1248.6C917.3,1248.6 918.3,1218.7 917.3,1201.1C916.3,1183.4 915.3,1172.8 917.7,1163.8C917.7,1163.8 919.8,1183.4 923.1,1195.3C926.4,1207.2 929.2,1228.1 930.5,1237.1C930.5,1237.1 931.8,1242.9 936.6,1242.9C941.4,1242.9 943,1241.9 946.2,1238.1C946.2,1238.1 947.8,1209.5 947.5,1197C947.2,1184.5 940.4,1167.1 940.4,1167.1C940.4,1167.1 942,1121.8 941.4,1109.6C940.8,1097.4 919.2,1088.7 919.2,1088.7L887.1,1122Z" style="fill:rgb(167,130,100);fill-rule:nonzero;"/>
            <path d="M893.2,965.9L893.2,989.4C893.2,989.4 892.9,997.4 896.1,998.7C899.3,1000 903.2,998.7 903.2,998.7L903.2,1005.8C903.2,1005.8 912.5,1007.7 919.9,1002.3L919.9,994.9L908.3,971C908.3,971 896.4,963.6 893.2,965.9Z" style="fill:rgb(233,180,136);fill-rule:nonzero;"/>
            <path d="M903.1,1005.7C903.1,1005.7 892.8,1009.6 886.7,1015.3C880.6,1021 881.2,1032 880.6,1040.7C880,1049.4 878.7,1055.2 878.7,1055.2C878.7,1055.2 862,1045.2 860.1,1044.6C860.1,1044.6 849.5,1046.8 852.1,1057.1C852.1,1057.1 865,1066.1 872,1070.9C879.1,1075.7 885.5,1079.9 890,1079.9C890,1079.9 888.4,1088.9 885.5,1099.8C882.6,1110.7 883.6,1125.8 883.6,1125.8C883.6,1125.8 895.2,1132.2 905.4,1131.3C915.7,1130.3 919.9,1127.1 919.9,1127.1L924.7,1107.8L924.7,1123.9C924.7,1123.9 936.6,1118.1 941.4,1109.4C941.4,1109.4 940.8,1091.4 939.5,1085.3C938.2,1079.2 946.9,1056.4 949.5,1047.4C952.1,1038.4 946,1009.8 943.4,1004C940.8,998.2 930.5,992.8 919.9,997.9L903.1,1005.7Z" style="fill:rgb(3,30,108);fill-rule:nonzero;"/>
            <path d="M893.2,965.9C893.2,965.9 892.6,960.4 897.7,957.2C902.8,954 912.2,953.7 918.6,957.2C925,960.7 929.8,965.9 929.2,976.8C928.6,987.7 919.9,996.4 919.9,996.4C919.9,996.4 916.4,997.4 909,989.7C901.6,982 899.9,972 898.1,968.8C896.2,965.6 893.2,965.9 893.2,965.9Z" style="fill:rgb(113,61,35);fill-rule:nonzero;"/>
        </g>
        <g>
            <g>
                <g>
                    <path d="M565.6,624.9L565.9,711.8L501.2,749.1L490.1,768.4L478.9,762L414.3,799.3L414,712.4L565.6,624.9Z" style="fill:white;fill-rule:nonzero;"/>
                </g>
                <g>
                    <path d="M414.3,799.3L406.9,795L406.6,708.1L414,712.4L414.3,799.3Z" style="fill:rgb(220,229,254);fill-rule:nonzero;"/>
                </g>
                <g>
                    <path d="M414,712.4L406.6,708.1L558.2,620.6L565.6,624.9L414,712.4Z" style="fill:rgb(220,229,254);fill-rule:nonzero;"/>
                </g>
            </g>
            <g>
                <path d="M433.3,740.4L546.5,675.6C547.9,674.8 549,672.9 549,671.3C549,669.7 547.9,669 546.5,669.8L433.3,734.5C431.9,735.3 430.8,737.2 430.8,738.9C430.8,740.6 431.9,741.2 433.3,740.4Z" style="fill:rgb(169,214,255);fill-rule:nonzero;"/>
                <path d="M433.3,729.7L546.5,665C547.9,664.2 549,662.3 549,660.6C549,659 547.9,658.3 546.5,659.1L433.3,723.9C431.9,724.7 430.8,726.6 430.8,728.2C430.8,729.8 431.9,730.5 433.3,729.7Z" style="fill:rgb(169,214,255);fill-rule:nonzero;"/>
                <path d="M433.4,751.2L546.6,686.5C548,685.7 549.1,683.8 549.1,682.1C549.1,680.5 548,679.8 546.6,680.6L433.4,745.3C432,746.1 430.9,748 430.9,749.7C430.8,751.3 432,752 433.4,751.2Z" style="fill:rgb(169,214,255);fill-rule:nonzero;"/>
                <path d="M546.6,691.4L433.4,756.2C432,757 430.9,758.9 430.9,760.5C430.9,762.1 432,762.8 433.4,762L546.6,697.2C548,696.4 549.1,694.5 549.1,692.9C549.1,691.3 548,690.6 546.6,691.4Z" style="fill:rgb(169,214,255);fill-rule:nonzero;"/>
            </g>
        </g>
        <g>
            <g>
                <path d="M594.5,852.4L594.7,922.7L583.6,929.1L583.4,858.8L594.5,852.4Z" style="fill:rgb(249,101,168);fill-rule:nonzero;"/>
            </g>
            <g>
                <path d="M613.4,796.5L613.8,911.8L603.3,917.8L603,802.5L613.4,796.5Z" style="fill:rgb(254,210,44);fill-rule:nonzero;"/>
            </g>
            <g>
                <path d="M636.7,799.2L637,898.4L624.7,905.5L624.4,806.3L636.7,799.2Z" style="fill:rgb(58,224,192);fill-rule:nonzero;"/>
            </g>
            <g>
                <path d="M655,845.4L655.1,887.9L644,894.3L643.9,851.9L655,845.4Z" style="fill:rgb(67,103,199);fill-rule:nonzero;"/>
            </g>
        </g>
        <g>
            <g>
                <path d="M607.7,1078.5L607.6,1079.1L665.1,1045.9L748.8,1094.5L752.8,1091.2L755.1,1090.6L755.1,1098.2L688.8,1136.5L598.8,1084.2L598.8,1076.8L607.7,1078.5Z" style="fill:rgb(242,242,242);fill-rule:nonzero;"/>
                <path d="M598.8,1076.8L688.8,1129.1L755.1,1090.9L665.1,1038.5L598.8,1076.8Z" style="fill:white;fill-rule:nonzero;"/>
                <path d="M681.5,1119.1L737.8,1086.5L741.8,1088.9L685.5,1121.4L681.5,1119.1Z" style="fill:rgb(169,214,255);fill-rule:nonzero;"/>
                <path d="M672.8,1114L729.1,1081.5L733.2,1083.9L676.8,1116.4L672.8,1114Z" style="fill:rgb(169,214,255);fill-rule:nonzero;"/>
                <path d="M664.1,1109L720.5,1076.5L724.5,1078.8L668.2,1111.3L664.1,1109Z" style="fill:rgb(169,214,255);fill-rule:nonzero;"/>
                <path d="M655.5,1104L711.8,1071.4L715.8,1073.8L659.5,1106.3L655.5,1104Z" style="fill:rgb(169,214,255);fill-rule:nonzero;"/>
                <path d="M646.8,1098.9L703.1,1066.4L707.2,1068.7L650.8,1101.3L646.8,1098.9Z" style="fill:rgb(169,214,255);fill-rule:nonzero;"/>
                <path d="M638.1,1093.9L694.5,1061.4L698.5,1063.7L642.2,1096.2L638.1,1093.9Z" style="fill:rgb(169,214,255);fill-rule:nonzero;"/>
                <path d="M629.5,1088.8L685.8,1056.3L689.8,1058.7L633.5,1091.2L629.5,1088.8Z" style="fill:rgb(169,214,255);fill-rule:nonzero;"/>
                <path d="M620.8,1083.8L677.1,1051.3L681.2,1053.6L624.8,1086.2L620.8,1083.8Z" style="fill:rgb(169,214,255);fill-rule:nonzero;"/>
                <path d="M616.2,1081.1L612.1,1078.8L668.4,1046.2L672.5,1048.6L616.2,1081.1Z" style="fill:rgb(169,214,255);fill-rule:nonzero;"/>
            </g>
            <g>
                <path d="M607.7,1066.9L607.6,1067.6L665.1,1034.4L748.8,1083L752.8,1079.6L755.1,1079L755.1,1086.7L688.8,1124.9L598.8,1072.6L598.8,1065.3L607.7,1066.9Z" style="fill:rgb(242,242,242);fill-rule:nonzero;"/>
                <path d="M598.8,1065.3L688.8,1117.6L755.1,1079.3L665.1,1027L598.8,1065.3Z" style="fill:white;fill-rule:nonzero;"/>
                <path d="M681.5,1107.5L737.8,1075L741.8,1077.3L685.5,1109.9L681.5,1107.5Z" style="fill:rgb(169,214,255);fill-rule:nonzero;"/>
                <path d="M672.8,1102.5L729.1,1070L733.2,1072.3L676.8,1104.8L672.8,1102.5Z" style="fill:rgb(169,214,255);fill-rule:nonzero;"/>
                <path d="M664.1,1097.4L720.5,1064.9L724.5,1067.3L668.2,1099.8L664.1,1097.4Z" style="fill:rgb(169,214,255);fill-rule:nonzero;"/>
                <path d="M655.5,1092.4L711.8,1059.9L715.8,1062.2L659.5,1094.8L655.5,1092.4Z" style="fill:rgb(169,214,255);fill-rule:nonzero;"/>
                <path d="M646.8,1087.4L703.1,1054.9L707.2,1057.2L650.8,1089.7L646.8,1087.4Z" style="fill:rgb(169,214,255);fill-rule:nonzero;"/>
                <path d="M638.1,1082.3L694.5,1049.8L698.5,1052.2L642.2,1084.7L638.1,1082.3Z" style="fill:rgb(169,214,255);fill-rule:nonzero;"/>
                <path d="M629.5,1077.3L685.8,1044.8L689.8,1047.1L633.5,1079.6L629.5,1077.3Z" style="fill:rgb(169,214,255);fill-rule:nonzero;"/>
                <path d="M620.8,1072.3L677.1,1039.7L681.2,1042.1L624.8,1074.6L620.8,1072.3Z" style="fill:rgb(169,214,255);fill-rule:nonzero;"/>
                <path d="M616.2,1069.6L612.1,1067.2L668.4,1034.7L672.5,1037L616.2,1069.6Z" style="fill:rgb(169,214,255);fill-rule:nonzero;"/>
            </g>
            <g>
                <path d="M607.7,1055.4L607.6,1056L665.1,1022.8L748.8,1071.4L752.8,1068.1L755.1,1067.5L755.1,1075.1L688.8,1113.4L598.8,1061.1L598.8,1053.7L607.7,1055.4Z" style="fill:rgb(242,242,242);fill-rule:nonzero;"/>
                <path d="M598.8,1053.7L688.8,1106L755.1,1067.8L665.1,1015.5L598.8,1053.7Z" style="fill:white;fill-rule:nonzero;"/>
                <path d="M681.5,1096L737.8,1063.5L741.8,1065.8L685.5,1098.3L681.5,1096Z" style="fill:rgb(169,214,255);fill-rule:nonzero;"/>
                <path d="M672.8,1090.9L729.1,1058.4L733.2,1060.8L676.8,1093.3L672.8,1090.9Z" style="fill:rgb(169,214,255);fill-rule:nonzero;"/>
                <path d="M664.1,1085.9L720.5,1053.4L724.5,1055.7L668.2,1088.2L664.1,1085.9Z" style="fill:rgb(169,214,255);fill-rule:nonzero;"/>
                <path d="M655.5,1080.9L711.8,1048.3L715.8,1050.7L659.5,1083.2L655.5,1080.9Z" style="fill:rgb(169,214,255);fill-rule:nonzero;"/>
                <path d="M646.8,1075.8L703.1,1043.3L707.2,1045.6L650.8,1078.2L646.8,1075.8Z" style="fill:rgb(169,214,255);fill-rule:nonzero;"/>
                <path d="M638.1,1070.8L694.5,1038.3L698.5,1040.6L642.2,1073.1L638.1,1070.8Z" style="fill:rgb(169,214,255);fill-rule:nonzero;"/>
                <path d="M629.5,1065.8L685.8,1033.2L689.8,1035.6L633.5,1068.1L629.5,1065.8Z" style="fill:rgb(169,214,255);fill-rule:nonzero;"/>
                <path d="M620.8,1060.7L677.1,1028.2L681.2,1030.5L624.8,1063.1L620.8,1060.7Z" style="fill:rgb(169,214,255);fill-rule:nonzero;"/>
                <path d="M616.2,1058L612.1,1055.7L668.4,1023.2L672.5,1025.5L616.2,1058Z" style="fill:rgb(169,214,255);fill-rule:nonzero;"/>
            </g>
            <g>
                <path d="M607.7,1043.8L607.6,1044.5L665.1,1011.3L748.8,1059.9L752.8,1056.5L755.1,1055.9L755.1,1063.6L688.8,1101.8L598.8,1049.5L598.8,1042.2L607.7,1043.8Z" style="fill:rgb(242,242,242);fill-rule:nonzero;"/>
                <path d="M598.8,1042.2L688.8,1094.5L755.1,1056.2L665.1,1003.9L598.8,1042.2Z" style="fill:white;fill-rule:nonzero;"/>
                <path d="M681.5,1084.4L737.8,1051.9L741.8,1054.2L685.5,1086.8L681.5,1084.4Z" style="fill:rgb(169,214,255);fill-rule:nonzero;"/>
                <path d="M672.8,1079.4L729.1,1046.9L733.2,1049.2L676.8,1081.7L672.8,1079.4Z" style="fill:rgb(169,214,255);fill-rule:nonzero;"/>
                <path d="M664.1,1074.4L720.5,1041.8L724.5,1044.2L668.2,1076.7L664.1,1074.4Z" style="fill:rgb(169,214,255);fill-rule:nonzero;"/>
                <path d="M655.5,1069.3L711.8,1036.8L715.8,1039.1L659.5,1071.7L655.5,1069.3Z" style="fill:rgb(169,214,255);fill-rule:nonzero;"/>
                <path d="M646.8,1064.3L703.1,1031.8L707.2,1034.1L650.8,1066.6L646.8,1064.3Z" style="fill:rgb(169,214,255);fill-rule:nonzero;"/>
                <path d="M638.1,1059.2L694.5,1026.7L698.5,1029.1L642.2,1061.6L638.1,1059.2Z" style="fill:rgb(169,214,255);fill-rule:nonzero;"/>
                <path d="M629.5,1054.2L685.8,1021.7L689.8,1024L633.5,1056.5L629.5,1054.2Z" style="fill:rgb(169,214,255);fill-rule:nonzero;"/>
                <path d="M620.8,1049.2L677.1,1016.6L681.2,1019L624.8,1051.5L620.8,1049.2Z" style="fill:rgb(169,214,255);fill-rule:nonzero;"/>
                <path d="M616.2,1046.5L612.1,1044.1L668.4,1011.6L672.5,1014L616.2,1046.5Z" style="fill:rgb(169,214,255);fill-rule:nonzero;"/>
            </g>
            <g>
                <path d="M607.7,1032.3L607.6,1032.9L665.1,999.7L748.8,1048.3L752.8,1045L755.1,1044.4L755.1,1052L688.8,1090.3L598.8,1038L598.8,1030.6L607.7,1032.3Z" style="fill:rgb(242,242,242);fill-rule:nonzero;"/>
                <path d="M598.8,1030.6L688.8,1082.9L755.1,1044.7L665.1,992.4L598.8,1030.6Z" style="fill:white;fill-rule:nonzero;"/>
                <path d="M681.5,1072.9L737.8,1040.4L741.8,1042.7L685.5,1075.2L681.5,1072.9Z" style="fill:rgb(169,214,255);fill-rule:nonzero;"/>
                <path d="M672.8,1067.8L729.1,1035.3L733.2,1037.7L676.8,1070.2L672.8,1067.8Z" style="fill:rgb(169,214,255);fill-rule:nonzero;"/>
                <path d="M664.1,1062.8L720.5,1030.3L724.5,1032.6L668.2,1065.2L664.1,1062.8Z" style="fill:rgb(169,214,255);fill-rule:nonzero;"/>
                <path d="M655.5,1057.8L711.8,1025.2L715.8,1027.6L659.5,1060.1L655.5,1057.8Z" style="fill:rgb(169,214,255);fill-rule:nonzero;"/>
                <path d="M646.8,1052.7L703.1,1020.2L707.2,1022.6L650.8,1055.1L646.8,1052.7Z" style="fill:rgb(169,214,255);fill-rule:nonzero;"/>
                <path d="M638.1,1047.7L694.5,1015.2L698.5,1017.5L642.2,1050L638.1,1047.7Z" style="fill:rgb(169,214,255);fill-rule:nonzero;"/>
                <path d="M629.5,1042.7L685.8,1010.1L689.8,1012.5L633.5,1045L629.5,1042.7Z" style="fill:rgb(169,214,255);fill-rule:nonzero;"/>
                <path d="M620.8,1037.6L677.1,1005.1L681.2,1007.4L624.8,1040L620.8,1037.6Z" style="fill:rgb(169,214,255);fill-rule:nonzero;"/>
                <path d="M616.2,1034.9L612.1,1032.6L668.4,1000.1L672.5,1002.4L616.2,1034.9Z" style="fill:rgb(169,214,255);fill-rule:nonzero;"/>
            </g>
            <g>
                <path d="M607.7,1020.7L607.6,1021.4L665.1,988.2L748.8,1036.8L752.8,1033.5L755.1,1032.8L755.1,1040.5L688.8,1078.7L598.8,1026.4L598.8,1019.1L607.7,1020.7Z" style="fill:rgb(242,242,242);fill-rule:nonzero;"/>
                <path d="M598.8,1019.1L688.8,1071.4L755.1,1033.1L665.1,980.8L598.8,1019.1Z" style="fill:white;fill-rule:nonzero;"/>
                <path d="M681.5,1061.3L737.8,1028.8L741.8,1031.2L685.5,1063.7L681.5,1061.3Z" style="fill:rgb(169,214,255);fill-rule:nonzero;"/>
                <path d="M672.8,1056.3L729.1,1023.8L733.2,1026.1L676.8,1058.6L672.8,1056.3Z" style="fill:rgb(169,214,255);fill-rule:nonzero;"/>
                <path d="M664.1,1051.3L720.5,1018.7L724.5,1021.1L668.2,1053.6L664.1,1051.3Z" style="fill:rgb(169,214,255);fill-rule:nonzero;"/>
                <path d="M655.5,1046.2L711.8,1013.7L715.8,1016L659.5,1048.6L655.5,1046.2Z" style="fill:rgb(169,214,255);fill-rule:nonzero;"/>
                <path d="M646.8,1041.2L703.1,1008.7L707.2,1011L650.8,1043.5L646.8,1041.2Z" style="fill:rgb(169,214,255);fill-rule:nonzero;"/>
                <path d="M638.1,1036.1L694.5,1003.6L698.5,1006L642.2,1038.5L638.1,1036.1Z" style="fill:rgb(169,214,255);fill-rule:nonzero;"/>
                <path d="M629.5,1031.1L685.8,998.6L689.8,1000.9L633.5,1033.5L629.5,1031.1Z" style="fill:rgb(169,214,255);fill-rule:nonzero;"/>
                <path d="M620.8,1026.1L677.1,993.6L681.2,995.9L624.8,1028.4L620.8,1026.1Z" style="fill:rgb(169,214,255);fill-rule:nonzero;"/>
                <path d="M616.2,1023.4L612.1,1021L668.4,988.5L672.5,990.9L616.2,1023.4Z" style="fill:rgb(169,214,255);fill-rule:nonzero;"/>
            </g>
        </g>
        <g>
            <g>
                <path d="M716.5,1020.2C716.7,1020.9 716.8,1021.7 716.8,1022.5C716.8,1023.3 716.7,1024 716.5,1024.8L722.2,1024.8L722.2,1020.2L716.5,1020.2Z" style="fill:rgb(49,55,71);fill-rule:nonzero;"/>
            </g>
            <g>
                <path d="M716.5,1024.7L716.5,1030.3L722.2,1030.3L722.2,1024.7L716.5,1024.7Z" style="fill:rgb(35,41,53);fill-rule:nonzero;"/>
            </g>
            <g>
                <path d="M722.2,1025.9L722.2,1031.5L781.6,1031.5L781.6,1025.9L722.2,1025.9Z" style="fill:rgb(229,72,151);fill-rule:nonzero;"/>
            </g>
            <g>
                <path d="M722.2,1019L722.2,1025.9L781.6,1025.9L781.7,1019L722.2,1019Z" style="fill:rgb(249,101,168);fill-rule:nonzero;"/>
            </g>
            <path d="M687.4,1039.4C695.5,1039.4 702.8,1037.5 708.1,1034.4C712.5,1031.8 715.6,1028.5 716.5,1024.7C716.7,1024 716.8,1023.2 716.8,1022.4L716.8,1022.3L716.8,1028C716.8,1028.8 716.7,1029.5 716.5,1030.3C715.6,1034.1 712.6,1037.4 708.1,1040C702.8,1043.1 695.4,1045 687.4,1045C671.2,1045 658.2,1037.4 658.2,1028L658.2,1022.4C658.2,1031.8 671.2,1039.4 687.4,1039.4Z" style="fill:rgb(229,72,151);fill-rule:nonzero;"/>
            <path d="M670.5,1012.6C666.1,1015.1 663.4,1018.6 663.4,1022.5C663.4,1026.4 666.1,1029.8 670.4,1032.4C674.7,1034.9 680.8,1036.5 687.4,1036.5C694,1036.5 700.1,1034.9 704.4,1032.4C708.8,1029.9 711.5,1026.4 711.5,1022.5C711.5,1018.6 708.8,1015.2 704.5,1012.6C700.2,1010.1 694.1,1008.5 687.5,1008.5C680.9,1008.5 674.9,1010.1 670.5,1012.6Z" style="fill:rgb(220,248,255);fill-rule:nonzero;"/>
            <path d="M658.2,1022.4C658.1,1031.8 671.2,1039.4 687.4,1039.4C695.5,1039.4 702.8,1037.5 708.1,1034.4C712.5,1031.8 715.6,1028.5 716.5,1024.7C716.7,1024 716.8,1023.2 716.8,1022.4C716.8,1021.6 716.7,1020.9 716.5,1020.1C714.6,1011.8 702.4,1005.4 687.6,1005.4C679.5,1005.4 672.2,1007.3 666.9,1010.4C661.5,1013.5 658.2,1017.8 658.2,1022.4ZM663.4,1022.4C663.4,1018.5 666.1,1015.1 670.5,1012.5C674.9,1010 680.9,1008.4 687.5,1008.4C694.1,1008.4 700.2,1010 704.5,1012.5C708.8,1015 711.5,1018.5 711.5,1022.4C711.5,1026.3 708.8,1029.7 704.4,1032.3C700,1034.8 694,1036.4 687.4,1036.4C680.8,1036.4 674.7,1034.8 670.4,1032.3C666.1,1029.8 663.4,1026.3 663.4,1022.4Z" style="fill:rgb(249,101,168);fill-rule:nonzero;"/>
            <path d="M686.6,1036.4C682.2,1036.3 678.2,1035.6 674.7,1034.3L708,1015.1C710.1,1017.1 711.4,1019.5 711.6,1022L686.6,1036.4Z" style="fill:white;fill-rule:nonzero;"/>
            <path d="M694.6,1009.1C698.3,1009.8 701.6,1010.9 704.3,1012.4L670.2,1032.1C667.6,1030.5 665.6,1028.6 664.5,1026.5L694.6,1009.1Z" style="fill:white;fill-rule:nonzero;"/>
        </g>
    </g>
</svg>
