<?xml version="1.0" encoding="UTF-8" standalone="no"?>
<!DOCTYPE svg PUBLIC "-//W3C//DTD SVG 1.1//EN" "http://www.w3.org/Graphics/SVG/1.1/DTD/svg11.dtd">
<svg width="100%" height="100%" viewBox="0 0 943 789" version="1.1" xmlns="http://www.w3.org/2000/svg" xmlns:xlink="http://www.w3.org/1999/xlink" xml:space="preserve" xmlns:serif="http://www.serif.com/" style="fill-rule:evenodd;clip-rule:evenodd;stroke-linejoin:round;stroke-miterlimit:2;">
    <ellipse cx="265.952" cy="750" rx="253" ry="39" style="fill:rgb(126,120,195);"/>
    <rect x="56" y="179" width="140" height="2" style="fill:rgb(242,242,242);"/>
    <rect x="94" y="161" width="2" height="18.5" style="fill:rgb(242,242,242);"/>
    <rect x="155" y="161" width="2" height="18.5" style="fill:rgb(242,242,242);"/>
    <rect x="432" y="124" width="140" height="2" style="fill:rgb(242,242,242);"/>
    <rect x="470" y="106" width="2" height="18.5" style="fill:rgb(242,242,242);"/>
    <rect x="531" y="106" width="2" height="18.5" style="fill:rgb(242,242,242);"/>
    <rect x="511" y="681" width="140" height="2" style="fill:rgb(242,242,242);"/>
    <rect x="549" y="663" width="2" height="18.5" style="fill:rgb(242,242,242);"/>
    <rect x="610" y="663" width="2" height="18.5" style="fill:rgb(242,242,242);"/>
    <rect x="792" y="591" width="140" height="2" style="fill:rgb(242,242,242);"/>
    <rect x="830" y="573" width="2" height="18.5" style="fill:rgb(242,242,242);"/>
    <rect x="891" y="573" width="2" height="18.5" style="fill:rgb(242,242,242);"/>
    <rect x="803" y="362" width="140" height="2" style="fill:rgb(242,242,242);"/>
    <rect x="841" y="344" width="2" height="18.5" style="fill:rgb(242,242,242);"/>
    <rect x="902" y="344" width="2" height="18.5" style="fill:rgb(242,242,242);"/>
    <rect x="306" y="384" width="140" height="2" style="fill:rgb(242,242,242);"/>
    <rect x="344" y="366" width="2" height="18.5" style="fill:rgb(242,242,242);"/>
    <rect x="405" y="366" width="2" height="18.5" style="fill:rgb(242,242,242);"/>
    <rect x="654" y="534" width="140" height="2" style="fill:rgb(242,242,242);"/>
    <rect x="692" y="516" width="2" height="18.5" style="fill:rgb(242,242,242);"/>
    <rect x="753" y="516" width="2" height="18.5" style="fill:rgb(242,242,242);"/>
    <rect x="457" y="471" width="140" height="2" style="fill:rgb(242,242,242);"/>
    <rect x="495" y="453" width="2" height="18.5" style="fill:rgb(242,242,242);"/>
    <rect x="556" y="453" width="2" height="18.5" style="fill:rgb(242,242,242);"/>
    <rect x="266" y="273" width="140" height="2" style="fill:rgb(242,242,242);"/>
    <rect x="304" y="255" width="2" height="18.5" style="fill:rgb(242,242,242);"/>
    <rect x="365" y="255" width="2" height="18.5" style="fill:rgb(242,242,242);"/>
    <rect x="0" y="491" width="140" height="2" style="fill:rgb(242,242,242);"/>
    <rect x="38" y="473" width="2" height="18.5" style="fill:rgb(242,242,242);"/>
    <rect x="99" y="473" width="2" height="18.5" style="fill:rgb(242,242,242);"/>
    <circle cx="723.952" cy="215" r="215" style="fill:rgb(82,53,228);"/>
    <g transform="matrix(0.972426,-0.23321,0.23321,0.972426,-235.504,8.62926)">
        <rect x="216.691" y="380.634" width="2.001" height="207.872" style="fill:rgb(47,46,65);"/>
    </g>
    <g transform="matrix(1,0,0,1,-128.5,-55.5)">
        <path d="M411.952,521C411.952,521 452.952,538 439.952,548C426.952,558 399.952,536 400.952,533C401.952,530 396.952,523 396.952,523L411.952,521Z" style="fill:rgb(233,180,136);fill-rule:nonzero;"/>
    </g>
    <g transform="matrix(1,0,0,1,-128.5,-55.5)">
        <path d="M375.952,387L388.952,399L391.952,434L401.952,471C401.952,471 418.952,506 415.952,513C412.952,520 418.952,522 418.952,522L395.952,531C395.952,531 370.952,503 370.952,497C370.952,491 375.952,387 375.952,387Z" style="fill:rgb(243,77,160);fill-rule:nonzero;"/>
    </g>
    <g transform="matrix(1,0,0,1,-129.152,-54.8913)">
        <path d="M375.952,387L388.952,399L391.952,434L401.952,471C401.952,471 418.952,506 415.952,513C412.952,520 418.952,522 418.952,522L395.952,531C395.952,531 370.952,503 370.952,497C370.952,491 375.952,387 375.952,387Z" style="fill:rgb(245,101,168);fill-opacity:0.1;fill-rule:nonzero;"/>
    </g>
    <g transform="matrix(1,0,0,1,-128.5,-55.5)">
        <path d="M498.952,747C498.952,747 493.952,770 492.952,772C491.952,774 511.952,781 511.952,781L535.952,764C535.952,764 525.952,742 525.952,738L498.952,747Z" style="fill:rgb(69,178,149);fill-rule:nonzero;"/>
    </g>
    <g transform="matrix(1,0,0,1,-128.5,-55.5)">
        <path d="M367.952,523L374.952,531C374.952,531 519.952,549 522.952,577C525.952,605 546.952,737 534.952,741C522.952,745 491.952,760 491.952,752C491.952,744 471.952,634 475.952,614C475.952,614 302.952,592 298.952,567C294.952,542 302.952,531 302.952,531L367.952,523Z" style="fill:rgb(8,27,97);fill-rule:nonzero;"/>
    </g>
    <g transform="matrix(1,0,0,1,-129.579,-56.3989)">
        <path d="M367.952,523L374.952,531C374.952,531 397.077,533.747 424.221,538.763C466.566,546.588 521.124,559.938 522.952,577C525.952,605 546.952,737 534.952,741C522.952,745 491.952,760 491.952,752C491.952,744 471.952,634 475.952,614C475.952,614 302.952,592 298.952,567C294.952,542 302.952,531 302.952,531L367.952,523Z" style="fill:rgb(6,23,86);fill-opacity:0.1;fill-rule:nonzero;"/>
    </g>
    <g transform="matrix(1,0,0,1,-128.5,-55.5)">
        <path d="M496.952,770C496.952,770 492.952,761 490.952,764C488.952,767 481.952,802 488.952,802C495.952,802 559.952,818 568.952,816C577.952,814 594.952,817 592.952,807C590.952,797 580.952,796 580.952,796C580.952,796 543.952,774 541.952,763C539.952,752 528.952,758 528.952,758L528.952,765C528.952,765 507.952,781 496.952,770Z" style="fill:rgb(47,46,65);fill-rule:nonzero;"/>
    </g>
    <g transform="matrix(1,0,0,1,-128.5,-55.5)">
        <path d="M306.952,311C306.952,311 313.952,345 298.952,348C283.952,351 317.952,371 317.952,371L339.952,383L355.952,367C355.952,367 341.452,337.5 352.452,315.5C363.452,293.5 306.952,311 306.952,311Z" style="fill:rgb(159,97,106);fill-rule:nonzero;"/>
    </g>
    <g transform="matrix(1,0,0,1,-128.5,-55.5)">
        <path d="M355.952,367L339.952,383L317.952,371C317.952,371 283.952,351 298.952,348C308.602,346.07 309.142,331.31 308.312,321.03C308.041,317.664 307.587,314.316 306.952,311C306.317,307.684 363.452,293.5 352.452,315.5C350.781,318.897 349.622,322.523 349.012,326.26C345.642,346.03 355.952,367 355.952,367Z" style="fill:rgb(233,180,136);fill-rule:nonzero;"/>
    </g>
    <path d="M283.452,720.5L283.452,743.5L321.452,743.5L324.452,734.5L320.452,710.5L283.452,720.5Z" style="fill:rgb(69,178,149);fill-rule:nonzero;"/>
    <g transform="matrix(1,0,0,1,-128.5,-55.5)">
        <path d="M254.952,543C254.952,543 254.952,602 278.952,604C302.952,606 388.952,617 388.952,617C388.952,617 393.952,715 402.952,747C411.952,779 403.952,781 411.952,783C419.952,785 453.952,778 452.952,771C451.952,764 447.952,587 447.952,587C447.952,587 456.952,549 336.952,531L254.952,543Z" style="fill:rgb(9,30,108);fill-rule:nonzero;"/>
    </g>
    <g transform="matrix(1,0,0,1,-128.5,-55.5)">
        <path d="M414.952,792C414.952,792 408.952,779 407.952,783C406.952,787 394.952,822 406.952,825C418.952,828 456.952,844 481.952,843C506.952,842 509.952,841 509.952,841C509.952,841 516.952,831 507.952,825C498.952,819 461.952,784 459.952,780C457.952,776 442.952,773 442.952,780C442.952,784.907 432.633,793.254 424.051,794.706C420.39,795.326 417.045,794.691 414.952,792Z" style="fill:rgb(47,46,65);fill-rule:nonzero;"/>
    </g>
    <g transform="matrix(1,0,0,1,-128.5,-55.5)">
        <path d="M352.452,315.5C350.781,318.897 349.622,322.523 349.012,326.26C344.032,329.27 340.702,328.5 334.452,328.5C325.182,328.5 321.442,316.65 315.452,310.5C314.982,304.79 306.952,311 306.952,311C306.952,311 363.452,293.5 352.452,315.5Z" style="fill-opacity:0.1;fill-rule:nonzero;"/>
    </g>
    <circle cx="203.452" cy="239.5" r="33" style="fill:rgb(233,180,136);"/>
    <g transform="matrix(1,0,0,1,-128.5,-55.5)">
        <path d="M388.952,399C388.952,399 383.952,435 380.952,448C377.952,461 373.952,521 371.952,529C369.952,537 357.952,539 333.952,536C332.446,535.81 330.93,535.697 329.412,535.66C314.632,535.19 297.722,540.72 282.072,545.06C273.072,547.56 264.482,549.66 256.952,550C245.552,550.52 242.212,537.88 242.602,524.2C242.972,511.47 246.582,497.82 249.952,493C256.022,484.32 250.052,406.39 252.292,380.69L252.292,380.68C252.632,376.76 253.162,374.06 253.952,373C259.952,365 298.952,345 303.322,345.81C307.682,346.62 344.952,370 344.952,370C353.952,370 353.662,360.24 353.662,360.24C353.662,360.24 359.952,372 371.952,375C383.952,378 388.952,399 388.952,399Z" style="fill:rgb(245,101,168);fill-rule:nonzero;"/>
    </g>
    <g transform="matrix(1,0,0,1,-128.5,-55.5)">
        <path d="M322.105,528.643C322.105,528.643 386.521,530.694 375.236,538.347C363.952,546 313.952,553 312.952,543C311.952,533 322.105,528.643 322.105,528.643Z" style="fill:rgb(233,180,136);fill-rule:nonzero;"/>
    </g>
    <g transform="matrix(1,0,0,1,-128.5,-55.5)">
        <path d="M329.412,535.66C329.622,539.5 319.292,548.15 315.952,554C314.102,557.24 299.782,552.97 282.072,545.06C268.482,538.96 255.298,531.992 242.602,524.2C242.972,511.47 246.582,497.82 249.952,493C256.022,484.32 250.052,406.39 252.292,380.69L252.292,380.68C252.826,380.409 253.381,380.181 253.952,380L265.952,380C306.952,399 259.952,481 259.952,481C259.952,481 321.952,532 327.952,534C328.759,534.153 329.363,534.84 329.412,535.66Z" style="fill-opacity:0.1;fill-rule:nonzero;"/>
    </g>
    <g transform="matrix(1,0,0,1,-128.5,-55.5)">
        <path d="M265.952,374L253.952,374C253.952,374 242.952,377 233.952,397C224.952,417 191.952,479 220.952,503C249.952,527 311.952,555 315.952,548C319.952,541 333.952,530 327.952,528C321.952,526 259.952,475 259.952,475C259.952,475 306.952,393 265.952,374Z" style="fill:rgb(247,92,164);fill-rule:nonzero;"/>
    </g>
    <g transform="matrix(1,0,0,1,-128.5,-55.5)">
        <path d="M326.875,279.644C326.875,279.644 328.324,259.597 346.189,267.771C364.055,275.945 362.889,253.414 357.49,249.433C352.091,245.451 352.262,244.466 332.516,247.13C312.77,249.794 274.435,254.307 286.83,294.01C299.226,333.714 310.452,323.5 310.452,323.5C310.452,323.5 300.599,287.772 310.583,294.579L320.566,301.386L325.834,300.27L326.875,279.644Z" style="fill:rgb(47,46,65);fill-rule:nonzero;"/>
    </g>
    <path d="M347.014,731.345L283.237,557.952L114.729,546.058L70.925,731.23L68.979,730.77L113.175,543.942L114.022,544.003L284.667,556.048L284.891,556.655L348.891,730.655L347.014,731.345Z" style="fill:rgb(47,46,65);fill-rule:nonzero;"/>
    <circle cx="596.704" cy="555.8" r="31.248" style="fill:white;fill-opacity:0.4;"/>
    <circle cx="538.872" cy="570.724" r="21.92" style="fill:white;fill-opacity:0.4;"/>
    <circle cx="55.872" cy="261.724" r="21.92" style="fill:white;fill-opacity:0.4;"/>
    <g transform="matrix(1,0,0,1,-128.5,-55.5)">
        <path d="M603.083,794.618L601.083,794.579C601.857,772.341 604.229,750.188 608.183,728.291C616.831,681.411 631.212,650.622 650.926,636.78L652.074,638.416C606.022,670.75 603.106,793.382 603.083,794.618Z" style="fill:rgb(47,46,65);fill-rule:nonzero;"/>
    </g>
    <g transform="matrix(1,0,0,1,-128.5,-55.5)">
        <path d="M628.083,794.139L626.083,794.1C626.126,791.885 627.376,739.686 647.926,725.258L649.074,726.895C629.354,740.741 628.093,793.607 628.083,794.139Z" style="fill:rgb(47,46,65);fill-rule:nonzero;"/>
    </g>
    <circle cx="534.952" cy="573.098" r="10" style="fill:white;"/>
    <circle cx="530" cy="659.098" r="10" style="fill:white;"/>
    <g transform="matrix(1,0,0,1,-128.5,-55.5)">
        <path d="M623.422,644.593C625.301,656.597 620.403,667.333 620.403,667.333C620.403,667.333 612.458,658.608 610.578,646.603C608.699,634.599 613.597,623.863 613.597,623.863C613.597,623.863 621.542,632.589 623.422,644.593Z" style="fill:rgb(47,46,65);fill-rule:nonzero;"/>
    </g>
    <g transform="matrix(1,0,0,1,-128.5,-55.5)">
        <path d="M656.109,673.746C644.616,677.689 633.19,674.736 633.19,674.736C633.19,674.736 640.398,665.392 651.891,661.45C663.384,657.508 674.81,660.46 674.81,660.46C674.81,660.46 667.602,669.804 656.109,673.746Z" style="fill:rgb(47,46,65);fill-rule:nonzero;"/>
    </g>
    <g transform="matrix(1,0,0,1,-128.5,-55.5)">
        <path d="M656.478,749.908C651.277,751.541 645.737,751.78 640.414,750.601C647.306,741.827 658.76,737.898 669.586,740.595C666.108,744.793 661.587,748.005 656.478,749.908Z" style="fill:rgb(47,46,65);fill-rule:nonzero;"/>
    </g>
    <g transform="matrix(0.983362,-0.181658,0.181658,0.983362,-172.647,4.49682)">
        <path d="M303.932,250.5L311.452,250.5L311.452,291.5L299.452,291.5L299.452,254.98C299.452,252.522 301.474,250.5 303.932,250.5Z" style="fill:white;fill-rule:nonzero;"/>
    </g>
    <circle cx="181.952" cy="243" r="15" style="fill:white;"/>
    <circle cx="181.952" cy="243" r="9" style="fill:rgb(242,242,242);"/>
    <circle cx="181.952" cy="243" r="3" style="fill:white;"/>
    <path d="M745.452,134.956L745.452,224.956L614.622,224.956L590.452,253.956L593.212,224.956L581.452,224.956L581.452,134.956L745.452,134.956Z" style="fill:white;fill-rule:nonzero;"/>
    <rect x="686.452" y="165.956" width="59" height="59" style="fill-opacity:0.1;"/>
    <path d="M699.452,178.956L863.452,178.956L863.452,268.956L851.69,268.956L854.452,297.956L830.285,268.956L699.452,268.956L699.452,178.956Z" style="fill:white;fill-rule:nonzero;"/>
    <ellipse cx="591.452" cy="264.956" rx="36" ry="3.512" style="fill-opacity:0.1;"/>
    <ellipse cx="854.452" cy="311.956" rx="41" ry="4" style="fill-opacity:0.1;"/>
</svg>
