<?xml version="1.0" encoding="UTF-8" standalone="no"?>
<!DOCTYPE svg PUBLIC "-//W3C//DTD SVG 1.1//EN" "http://www.w3.org/Graphics/SVG/1.1/DTD/svg11.dtd">
<svg width="100%" height="100%" viewBox="0 0 783 635" version="1.1" xmlns="http://www.w3.org/2000/svg" xmlns:xlink="http://www.w3.org/1999/xlink" xml:space="preserve" xmlns:serif="http://www.serif.com/" style="fill-rule:evenodd;clip-rule:evenodd;stroke-linejoin:round;stroke-miterlimit:2;">
    <path d="M782.009,634.123L524.27,634.123L524.27,632.017L782.39,632.017L782.009,634.123Z" style="fill:rgb(63,61,86);fill-rule:nonzero;"/>
    <circle cx="6.813" cy="6.814" r="6.813" style="fill:rgb(230,230,230);"/>
    <circle cx="41.302" cy="6.814" r="6.813" style="fill:rgb(230,230,230);"/>
    <circle cx="75.791" cy="6.814" r="6.813" style="fill:rgb(230,230,230);"/>
    <circle cx="110.28" cy="6.814" r="6.813" style="fill:rgb(230,230,230);"/>
    <circle cx="144.769" cy="6.814" r="6.813" style="fill:rgb(230,230,230);"/>
    <circle cx="179.258" cy="6.814" r="6.813" style="fill:rgb(230,230,230);"/>
    <circle cx="213.747" cy="6.814" r="6.813" style="fill:rgb(230,230,230);"/>
    <circle cx="248.236" cy="6.814" r="6.813" style="fill:rgb(230,230,230);"/>
    <circle cx="282.725" cy="6.814" r="6.813" style="fill:rgb(230,230,230);"/>
    <circle cx="317.214" cy="6.814" r="6.813" style="fill:rgb(230,230,230);"/>
    <circle cx="6.813" cy="41.736" r="6.813" style="fill:rgb(230,230,230);"/>
    <circle cx="41.302" cy="41.736" r="6.813" style="fill:rgb(230,230,230);"/>
    <circle cx="75.791" cy="41.736" r="6.813" style="fill:rgb(230,230,230);"/>
    <circle cx="110.28" cy="41.736" r="6.813" style="fill:rgb(82,70,238);"/>
    <circle cx="144.769" cy="41.736" r="6.813" style="fill:rgb(230,230,230);"/>
    <circle cx="179.258" cy="41.736" r="6.813" style="fill:rgb(230,230,230);"/>
    <circle cx="213.747" cy="41.736" r="6.813" style="fill:rgb(230,230,230);"/>
    <circle cx="248.236" cy="41.736" r="6.813" style="fill:rgb(230,230,230);"/>
    <circle cx="282.725" cy="41.736" r="6.813" style="fill:rgb(230,230,230);"/>
    <circle cx="317.214" cy="41.736" r="6.813" style="fill:rgb(230,230,230);"/>
    <circle cx="6.813" cy="76.658" r="6.813" style="fill:rgb(230,230,230);"/>
    <circle cx="41.302" cy="76.658" r="6.813" style="fill:rgb(230,230,230);"/>
    <circle cx="75.791" cy="76.658" r="6.813" style="fill:rgb(230,230,230);"/>
    <circle cx="110.28" cy="76.658" r="6.813" style="fill:rgb(230,230,230);"/>
    <circle cx="144.769" cy="76.658" r="6.813" style="fill:rgb(230,230,230);"/>
    <circle cx="179.258" cy="76.658" r="6.813" style="fill:rgb(230,230,230);"/>
    <circle cx="213.747" cy="76.658" r="6.813" style="fill:rgb(230,230,230);"/>
    <circle cx="248.236" cy="76.658" r="6.813" style="fill:rgb(230,230,230);"/>
    <circle cx="282.725" cy="76.658" r="6.813" style="fill:rgb(230,230,230);"/>
    <circle cx="317.214" cy="76.658" r="6.813" style="fill:rgb(230,230,230);"/>
    <circle cx="6.813" cy="111.58" r="6.813" style="fill:rgb(230,230,230);"/>
    <circle cx="41.302" cy="111.58" r="6.813" style="fill:rgb(230,230,230);"/>
    <circle cx="75.791" cy="111.58" r="6.813" style="fill:rgb(230,230,230);"/>
    <circle cx="110.28" cy="111.58" r="6.813" style="fill:rgb(230,230,230);"/>
    <circle cx="144.769" cy="111.58" r="6.813" style="fill:rgb(230,230,230);"/>
    <circle cx="179.258" cy="111.58" r="6.813" style="fill:rgb(230,230,230);"/>
    <circle cx="213.747" cy="111.58" r="6.813" style="fill:rgb(230,230,230);"/>
    <circle cx="248.236" cy="111.58" r="6.813" style="fill:rgb(230,230,230);"/>
    <circle cx="282.725" cy="111.58" r="6.813" style="fill:rgb(230,230,230);"/>
    <circle cx="317.214" cy="111.58" r="6.813" style="fill:rgb(230,230,230);"/>
    <circle cx="6.813" cy="146.502" r="6.813" style="fill:rgb(230,230,230);"/>
    <circle cx="41.302" cy="146.502" r="6.813" style="fill:rgb(82,70,238);"/>
    <circle cx="75.791" cy="146.502" r="6.813" style="fill:rgb(230,230,230);"/>
    <circle cx="110.28" cy="146.502" r="6.813" style="fill:rgb(230,230,230);"/>
    <circle cx="144.769" cy="146.502" r="6.813" style="fill:rgb(230,230,230);"/>
    <circle cx="179.258" cy="146.502" r="6.813" style="fill:rgb(230,230,230);"/>
    <circle cx="213.747" cy="146.502" r="6.813" style="fill:rgb(230,230,230);"/>
    <circle cx="248.236" cy="146.502" r="6.813" style="fill:rgb(230,230,230);"/>
    <circle cx="282.725" cy="146.502" r="6.813" style="fill:rgb(230,230,230);"/>
    <circle cx="317.214" cy="146.502" r="6.813" style="fill:rgb(230,230,230);"/>
    <circle cx="6.813" cy="181.424" r="6.813" style="fill:rgb(230,230,230);"/>
    <circle cx="41.302" cy="181.424" r="6.813" style="fill:rgb(230,230,230);"/>
    <circle cx="75.791" cy="181.424" r="6.813" style="fill:rgb(230,230,230);"/>
    <circle cx="110.28" cy="181.424" r="6.813" style="fill:rgb(230,230,230);"/>
    <circle cx="144.769" cy="181.424" r="6.813" style="fill:rgb(230,230,230);"/>
    <circle cx="179.258" cy="181.424" r="6.813" style="fill:rgb(230,230,230);"/>
    <circle cx="213.747" cy="181.424" r="6.813" style="fill:rgb(230,230,230);"/>
    <circle cx="248.236" cy="181.424" r="6.813" style="fill:rgb(230,230,230);"/>
    <circle cx="282.725" cy="181.424" r="6.813" style="fill:rgb(230,230,230);"/>
    <circle cx="317.214" cy="181.424" r="6.813" style="fill:rgb(230,230,230);"/>
    <circle cx="6.813" cy="216.346" r="6.813" style="fill:rgb(230,230,230);"/>
    <circle cx="41.302" cy="216.346" r="6.813" style="fill:rgb(230,230,230);"/>
    <circle cx="75.791" cy="216.346" r="6.813" style="fill:rgb(82,70,238);"/>
    <circle cx="110.28" cy="216.346" r="6.813" style="fill:rgb(230,230,230);"/>
    <circle cx="144.769" cy="216.346" r="6.813" style="fill:rgb(230,230,230);"/>
    <circle cx="179.258" cy="216.346" r="6.813" style="fill:rgb(230,230,230);"/>
    <circle cx="213.747" cy="216.346" r="6.813" style="fill:rgb(230,230,230);"/>
    <circle cx="248.236" cy="216.346" r="6.813" style="fill:rgb(230,230,230);"/>
    <circle cx="282.725" cy="216.346" r="6.813" style="fill:rgb(230,230,230);"/>
    <circle cx="317.214" cy="216.346" r="6.813" style="fill:rgb(230,230,230);"/>
    <circle cx="6.813" cy="251.268" r="6.813" style="fill:rgb(230,230,230);"/>
    <circle cx="41.302" cy="251.268" r="6.813" style="fill:rgb(230,230,230);"/>
    <circle cx="75.791" cy="251.268" r="6.813" style="fill:rgb(230,230,230);"/>
    <circle cx="110.28" cy="251.268" r="6.813" style="fill:rgb(230,230,230);"/>
    <circle cx="144.769" cy="251.268" r="6.813" style="fill:rgb(230,230,230);"/>
    <circle cx="179.258" cy="251.268" r="6.813" style="fill:rgb(230,230,230);"/>
    <circle cx="213.747" cy="251.268" r="6.813" style="fill:rgb(230,230,230);"/>
    <circle cx="248.236" cy="251.268" r="6.813" style="fill:rgb(230,230,230);"/>
    <circle cx="282.725" cy="251.268" r="6.813" style="fill:rgb(230,230,230);"/>
    <circle cx="317.214" cy="251.268" r="6.813" style="fill:rgb(230,230,230);"/>
    <circle cx="6.813" cy="286.19" r="6.813" style="fill:rgb(230,230,230);"/>
    <circle cx="41.302" cy="286.19" r="6.813" style="fill:rgb(230,230,230);"/>
    <circle cx="75.791" cy="286.19" r="6.813" style="fill:rgb(230,230,230);"/>
    <circle cx="110.28" cy="286.19" r="6.813" style="fill:rgb(230,230,230);"/>
    <circle cx="144.769" cy="286.19" r="6.813" style="fill:rgb(230,230,230);"/>
    <circle cx="179.258" cy="286.19" r="6.813" style="fill:rgb(230,230,230);"/>
    <circle cx="213.747" cy="286.19" r="6.813" style="fill:rgb(230,230,230);"/>
    <circle cx="248.236" cy="286.19" r="6.813" style="fill:rgb(230,230,230);"/>
    <circle cx="282.725" cy="286.19" r="6.813" style="fill:rgb(230,230,230);"/>
    <circle cx="317.214" cy="286.19" r="6.813" style="fill:rgb(230,230,230);"/>
    <circle cx="6.813" cy="321.112" r="6.813" style="fill:rgb(230,230,230);"/>
    <circle cx="41.302" cy="321.112" r="6.813" style="fill:rgb(230,230,230);"/>
    <circle cx="75.791" cy="321.112" r="6.813" style="fill:rgb(230,230,230);"/>
    <circle cx="110.28" cy="321.112" r="6.813" style="fill:rgb(230,230,230);"/>
    <circle cx="144.769" cy="321.112" r="6.813" style="fill:rgb(230,230,230);"/>
    <circle cx="179.258" cy="321.112" r="6.813" style="fill:rgb(230,230,230);"/>
    <circle cx="213.747" cy="321.112" r="6.813" style="fill:rgb(230,230,230);"/>
    <circle cx="248.236" cy="321.112" r="6.813" style="fill:rgb(230,230,230);"/>
    <circle cx="282.725" cy="321.112" r="6.813" style="fill:rgb(230,230,230);"/>
    <circle cx="317.214" cy="321.112" r="6.813" style="fill:rgb(230,230,230);"/>
    <g transform="matrix(1,0,0,1,-208.805,-132.939)">
        <path d="M609.209,193.831C613.935,193.83 617.823,197.719 617.823,202.444L617.823,547.004C617.823,551.729 613.935,555.618 609.209,555.618L361.988,555.618C357.262,555.618 353.374,551.729 353.374,547.004L353.374,202.444C353.374,197.719 357.262,193.83 361.988,193.83L609.209,193.83" style="fill:rgb(230,230,230);fill-rule:nonzero;"/>
    </g>
    <g transform="matrix(1,0,0,1,-208.805,-132.939)">
        <rect x="362.991" y="203.447" width="245.216" height="342.554" style="fill:white;fill-rule:nonzero;"/>
    </g>
    <g transform="matrix(1,0,0,1,-208.805,-132.939)">
        <path d="M553.649,257.643C554.594,257.643 555.372,258.421 555.372,259.366L555.372,262.811C555.372,263.756 554.594,264.534 553.649,264.534L417.548,264.534C416.603,264.534 415.825,263.756 415.825,262.811L415.825,259.366C415.825,258.421 416.603,257.643 417.548,257.643L553.649,257.643" style="fill:rgb(230,230,230);fill-rule:nonzero;"/>
    </g>
    <g transform="matrix(1,0,0,1,-208.805,-132.939)">
        <path d="M553.649,274.009C554.594,274.009 555.372,274.787 555.372,275.732L555.372,279.178C555.372,280.123 554.594,280.901 553.649,280.901L417.548,280.901C416.603,280.901 415.825,280.123 415.825,279.178L415.825,275.732C415.825,274.787 416.603,274.009 417.548,274.009L553.649,274.009" style="fill:rgb(230,230,230);fill-rule:nonzero;"/>
    </g>
    <g transform="matrix(1,0,0,1,-208.805,-132.939)">
        <path d="M553.649,290.376C554.594,290.376 555.372,291.154 555.372,292.099L555.372,295.544C555.372,296.489 554.594,297.267 553.649,297.267L417.548,297.267C416.603,297.267 415.825,296.489 415.825,295.544L415.825,292.099C415.825,291.154 416.603,290.376 417.548,290.376L553.649,290.376" style="fill:rgb(82,70,238);fill-rule:nonzero;"/>
    </g>
    <g transform="matrix(1,0,0,1,-208.805,-132.939)">
        <path d="M553.649,307.101C554.594,307.101 555.372,307.878 555.372,308.824L555.372,312.269C555.372,313.214 554.594,313.992 553.649,313.992L417.548,313.992C416.603,313.992 415.825,313.214 415.825,312.269L415.825,308.824C415.825,307.878 416.603,307.101 417.548,307.101L553.649,307.101" style="fill:rgb(230,230,230);fill-rule:nonzero;"/>
    </g>
    <g transform="matrix(1,0,0,1,-208.805,-132.939)">
        <path d="M553.649,323.467C554.594,323.467 555.372,324.245 555.372,325.19L555.372,328.636C555.372,329.581 554.594,330.358 553.649,330.358L417.548,330.358C416.603,330.358 415.825,329.581 415.825,328.636L415.825,325.19C415.825,324.245 416.603,323.467 417.548,323.467L553.649,323.467" style="fill:rgb(230,230,230);fill-rule:nonzero;"/>
    </g>
    <g transform="matrix(1,0,0,1,-208.805,-132.939)">
        <path d="M553.649,339.834C554.594,339.834 555.372,340.612 555.372,341.557L555.372,345.002C555.372,345.947 554.594,346.725 553.649,346.725L417.548,346.725C416.603,346.725 415.825,345.947 415.825,345.002L415.825,341.557C415.825,340.612 416.603,339.834 417.548,339.834L553.649,339.834" style="fill:rgb(230,230,230);fill-rule:nonzero;"/>
    </g>
    <g transform="matrix(1,0,0,1,-208.805,-132.939)">
        <path d="M418.417,394.89C417.32,394.891 416.418,395.793 416.417,396.89L416.417,489.806C416.418,490.902 417.321,491.804 418.417,491.806L552.548,491.806C553.645,491.804 554.547,490.902 554.548,489.806L554.548,396.89C554.547,395.793 553.645,394.891 552.548,394.89L418.417,394.89Z" style="fill:rgb(101,145,245);fill-rule:nonzero;"/>
    </g>
    <path d="M277.241,161.182L275.833,160.808L306.56,45.221L484.785,45.221L484.785,46.678L307.679,46.678L277.241,161.182Z" style="fill:rgb(63,61,86);fill-rule:nonzero;"/>
    <g transform="matrix(1,0,0,1,-208.805,-132.939)">
        <path d="M708.153,194.179C708.153,194.179 708.153,194.179 708.153,194.179C699.764,194.179 692.862,187.277 692.862,178.888C692.862,170.5 699.764,163.597 708.153,163.597C716.541,163.597 723.443,170.5 723.443,178.888C723.434,187.273 716.537,194.17 708.153,194.179ZM708.153,165.054C708.153,165.054 708.153,165.054 708.153,165.054C700.563,165.054 694.318,171.299 694.318,178.888C694.318,186.478 700.563,192.723 708.153,192.723C715.742,192.723 721.987,186.478 721.987,178.888C721.979,171.302 715.739,165.062 708.153,165.054Z" style="fill:rgb(63,61,86);fill-rule:nonzero;"/>
    </g>
    <circle cx="499.348" cy="45.95" r="5.825" style="fill:rgb(82,70,238);"/>
    <path d="M272.477,356.941L273.884,357.317L242.937,472.845L64.712,472.504L64.715,471.047L241.82,471.387L272.477,356.941Z" style="fill:rgb(63,61,86);fill-rule:nonzero;"/>
    <g transform="matrix(1,0,0,1,-208.805,-132.939)">
        <path d="M258.985,589.395C267.362,589.411 274.246,596.309 274.246,604.686C274.246,613.075 267.344,619.977 258.955,619.977C250.567,619.977 243.664,613.075 243.664,604.686C243.664,604.677 243.664,604.667 243.664,604.657C243.69,596.272 250.6,589.389 258.985,589.395ZM258.929,618.521C258.938,618.521 258.947,618.521 258.955,618.521C266.545,618.521 272.79,612.276 272.79,604.686C272.79,597.097 266.545,590.852 258.955,590.852C251.376,590.852 245.135,597.08 245.121,604.66C245.115,612.246 251.343,618.498 258.929,618.521Z" style="fill:rgb(63,61,86);fill-rule:nonzero;"/>
    </g>
    <circle cx="50.15" cy="471.748" r="5.825" style="fill:rgb(82,70,238);"/>
    <path d="M616.828,600.594L606.551,600.594L608.386,543.702L635.548,545.17L616.828,600.594Z" style="fill:rgb(255,184,184);fill-rule:nonzero;"/>
    <g transform="matrix(1,0,0,1,-208.805,-132.939)">
        <path d="M827.036,766.229C823.934,767.645 821.335,756.174 818.718,758.746C811.399,765.938 803.837,767.505 794.068,764.364L793.841,764.326C791.954,763.719 790.666,761.952 790.666,759.97C790.666,759.422 790.765,758.877 790.957,758.364C791.485,756.957 792.674,755.896 794.132,755.532L801.916,753.586L814.137,732.092L826.614,731.249C832.246,738.429 834.28,747.811 832.127,756.678C830.995,761.299 829.247,765.22 827.036,766.229Z" style="fill:rgb(47,46,65);fill-rule:nonzero;"/>
    </g>
    <path d="M714.467,593.074L704.91,596.854L685.691,543.275L711.489,534.65L714.467,593.074Z" style="fill:rgb(255,184,184);fill-rule:nonzero;"/>
    <g transform="matrix(1,0,0,1,-208.805,-132.939)">
        <path d="M936.601,755.901C934.237,758.358 927.602,748.648 926.115,752.001C921.954,761.382 915.498,765.62 905.258,766.293L905.034,766.34C904.934,766.347 904.834,766.35 904.734,766.35C902.255,766.35 900.204,764.335 900.159,761.857C900.132,760.354 900.848,758.931 902.069,758.056L908.592,753.383L912.052,728.901L923.344,723.528C931.221,728.133 936.563,736.109 937.823,745.147C938.47,749.861 938.287,754.149 936.601,755.901Z" style="fill:rgb(47,46,65);fill-rule:nonzero;"/>
    </g>
    <g transform="matrix(1,0,0,1,-208.805,-132.939)">
        <path d="M892.071,451.3L876.293,455.357C875.621,455.53 874.93,455.617 874.236,455.617C869.826,455.617 866.154,452.084 865.985,447.677C865.981,447.571 865.979,447.465 865.979,447.359C865.979,442.829 869.706,439.102 874.236,439.102C874.325,439.102 874.414,439.103 874.503,439.106L888.401,439.554L915.182,429.802L889.869,410.925L892.805,384.498L942.137,424.102C943.914,425.529 945.018,427.634 945.18,429.908C945.458,433.793 942.929,437.366 939.172,438.395C927.613,447.828 910.773,450.718 892.071,451.3Z" style="fill:rgb(255,184,184);fill-rule:nonzero;"/>
    </g>
    <circle cx="647.296" cy="193.566" r="25.693" style="fill:rgb(255,184,184);"/>
    <g transform="matrix(1,0,0,1,-208.805,-132.939)">
        <path d="M887.667,361.741L853.165,375.689C854.177,364.785 851.317,353.865 845.09,344.857L873.719,338.25C873.347,346.994 878.075,354.81 887.667,361.741Z" style="fill:rgb(255,184,184);fill-rule:nonzero;"/>
    </g>
    <g transform="matrix(1,0,0,1,-208.805,-132.939)">
        <path d="M893.907,421.569C866.094,423.795 850.881,420.102 827.472,406.52L836.281,385.966C835.381,379.665 838.091,373.367 843.284,369.688L852.431,363.209L880.326,355.134L881.577,355.197C889.218,355.579 895.452,361.648 896.039,369.276C902.099,387.386 902.138,404.893 893.907,421.569Z" style="fill:rgb(101,184,245);fill-rule:nonzero;"/>
    </g>
    <g transform="matrix(1,0,0,1,-208.805,-132.939)">
        <path d="M888.401,464.513L828.94,457.906L824.535,438.82C814.772,424.082 819.034,410.583 830.408,397.711C851.141,411.017 870.386,416.767 897.944,412.393C890.615,430.216 883.847,447.733 888.401,464.513Z" style="fill:rgb(47,46,65);fill-rule:nonzero;"/>
    </g>
    <g transform="matrix(1,0,0,1,-208.805,-132.939)">
        <path d="M934.648,686.942L887.3,684.372L871.884,561.78L859.404,683.638L803.247,681.069C820.377,600.958 832.278,524.906 828.94,454.97L887.667,460.109C907.57,481.094 917.453,514.594 923.27,554.439C929.087,594.284 933.776,640.475 934.648,686.942Z" style="fill:rgb(47,46,65);fill-rule:nonzero;"/>
    </g>
    <circle cx="675.58" cy="161.345" r="8.831" style="fill:rgb(47,46,65);"/>
    <g transform="matrix(1,0,0,1,-208.805,-132.939)">
        <path d="M875.285,292.122C875.585,287.497 879.478,283.856 884.112,283.867C883.93,283.844 883.749,283.816 883.563,283.804C883.375,283.792 883.186,283.786 882.997,283.786C878.152,283.786 874.165,287.773 874.165,292.617C874.165,297.249 877.808,301.133 882.43,301.43C882.616,301.442 882.799,301.438 882.983,301.438C878.385,300.856 874.99,296.746 875.285,292.122Z" style="fill:rgb(47,46,65);fill-rule:nonzero;"/>
    </g>
    <g transform="matrix(1,0,0,1,-208.805,-132.939)">
        <path d="M875.235,295.893C867.359,289.359 844.768,297.663 843.311,302.056C832.66,303.507 824.596,309.721 824.596,320.77L824.596,320.771C830.928,323.365 838.13,323.045 845.915,320.771C858.325,330.884 859.175,343.597 851.628,358.2L860.913,358.385L872.422,341.565L872.973,358.627L894.256,358.2L894.256,333.749C894.325,325.619 892.453,317.59 888.798,310.328C885.481,303.885 880.334,300.123 875.235,295.893Z" style="fill:rgb(47,46,65);fill-rule:nonzero;"/>
    </g>
    <ellipse cx="646.611" cy="200.241" rx="4.223" ry="5.912" style="fill:rgb(255,184,184);"/>
    <g transform="matrix(1,0,0,1,-208.805,-132.939)">
        <path d="M823.113,559.928C823.927,559.928 824.596,560.598 824.596,561.411L824.596,620.731C824.596,621.544 823.927,622.214 823.113,622.214L780.552,622.214C779.738,622.214 779.069,621.544 779.069,620.731L779.069,561.411C779.069,560.598 779.738,559.928 780.552,559.928L823.113,559.928" style="fill:rgb(64,117,237);fill-rule:nonzero;"/>
    </g>
    <g transform="matrix(1,0,0,1,-208.805,-132.939)">
        <path d="M828.94,537.922L830.377,562.835C830.389,563.043 830.395,563.251 830.395,563.458C830.395,569.393 825.511,574.277 819.576,574.277C819.049,574.277 818.523,574.239 818.002,574.162C811.673,573.231 811.529,567.041 813.08,560.835L818.992,537.188C833.494,485.19 837.41,434.152 836.676,384.376C836.675,384.302 836.674,384.229 836.674,384.155C836.674,377.299 842.315,371.657 849.171,371.657C849.284,371.657 849.397,371.659 849.51,371.662C856.223,371.857 861.639,377.432 861.639,384.148C861.639,384.295 861.636,384.442 861.631,384.589C859.578,443.039 851.053,496.119 828.94,537.922Z" style="fill:rgb(255,184,184);fill-rule:nonzero;"/>
    </g>
</svg>
